<?xml version="1.0" encoding="utf-8" standalone="no"?>
<!DOCTYPE svg PUBLIC "-//W3C//DTD SVG 1.1//EN"
  "http://www.w3.org/Graphics/SVG/1.1/DTD/svg11.dtd">
<!-- Created with matplotlib (https://matplotlib.org/) -->
<svg height="255.11811pt" version="1.1" viewBox="0 0 518.740157 255.11811" width="518.740157pt" xmlns="http://www.w3.org/2000/svg" xmlns:xlink="http://www.w3.org/1999/xlink">
 <defs>
  <style type="text/css">
*{stroke-linecap:butt;stroke-linejoin:round;}
  </style>
 </defs>
 <g id="figure_1">
  <g id="patch_1">
   <path d="M 0 255.11811 
L 518.740157 255.11811 
L 518.740157 0 
L 0 0 
z
" style="fill:#ffffff;"/>
  </g>
  <g id="axes_1">
   <g id="patch_2">
    <path d="M 72.088558 178.805836 
L 496.252017 178.805836 
L 496.252017 20.179111 
L 72.088558 20.179111 
z
" style="fill:#ffffff;"/>
   </g>
   <g id="PolyCollection_1">
    <defs>
     <path d="M 83.079814 -83.52258 
L 83.079814 -96.742445 
L 126.48879 -120.422 
L 173.366764 -147.462619 
L 220.244738 -163.144031 
L 267.122711 -192.463017 
L 314.000685 -203.673428 
L 360.878659 -212.86644 
L 407.756632 -224.654726 
L 454.634606 -222.788101 
L 484.817279 -216.498139 
L 484.817279 -211.71242 
L 484.817279 -211.71242 
L 454.634606 -218.632808 
L 407.756632 -220.007529 
L 360.878659 -211.00576 
L 314.000685 -192.83516 
L 267.122711 -185.917786 
L 220.244738 -156.845405 
L 173.366764 -138.542764 
L 126.48879 -99.122057 
L 83.079814 -83.52258 
z
" id="mae09a93327" style="stroke:#ff0000;stroke-opacity:0.25;"/>
    </defs>
    <g clip-path="url(#p8af98c0783)">
     <use style="fill:#ff0000;fill-opacity:0.25;stroke:#ff0000;stroke-opacity:0.25;" x="0" xlink:href="#mae09a93327" y="255.11811"/>
    </g>
   </g>
   <g id="PolyCollection_2">
    <defs>
     <path d="M 83.079814 -112.794111 
L 83.079814 -135.208018 
L 126.48879 -150.60353 
L 173.366764 -170.212506 
L 220.244738 -185.638821 
L 267.122711 -200.470052 
L 314.000685 -204.853828 
L 360.878659 -216.365964 
L 407.756632 -223.014935 
L 454.634606 -227.728693 
L 484.817279 -224.067411 
L 484.817279 -220.53526 
L 484.817279 -220.53526 
L 454.634606 -223.920329 
L 407.756632 -218.267729 
L 360.878659 -209.914724 
L 314.000685 -201.448966 
L 267.122711 -197.104511 
L 220.244738 -182.119424 
L 173.366764 -164.226827 
L 126.48879 -129.710673 
L 83.079814 -112.794111 
z
" id="mef3ac39588" style="stroke:#0000ff;stroke-opacity:0.2;"/>
    </defs>
    <g clip-path="url(#p8af98c0783)">
     <use style="fill:#0000ff;fill-opacity:0.2;stroke:#0000ff;stroke-opacity:0.2;" x="0" xlink:href="#mef3ac39588" y="255.11811"/>
    </g>
   </g>
   <g id="PolyCollection_3">
    <defs>
     <path d="M 83.079814 -156.725982 
L 83.079814 -169.758448 
L 126.48879 -175.078568 
L 173.366764 -180.90669 
L 220.244738 -185.502585 
L 267.122711 -189.982885 
L 314.000685 -201.418158 
L 360.878659 -210.736993 
L 407.756632 -219.699478 
L 454.634606 -223.824914 
L 484.817279 -219.858306 
L 484.817279 -215.64179 
L 484.817279 -215.64179 
L 454.634606 -220.570413 
L 407.756632 -216.562098 
L 360.878659 -206.578854 
L 314.000685 -199.3221 
L 267.122711 -182.970929 
L 220.244738 -182.323528 
L 173.366764 -173.349029 
L 126.48879 -165.37003 
L 83.079814 -156.725982 
z
" id="ma4a1a28faa" style="stroke:#ffa500;stroke-opacity:0.15;"/>
    </defs>
    <g clip-path="url(#p8af98c0783)">
     <use style="fill:#ffa500;fill-opacity:0.15;stroke:#ffa500;stroke-opacity:0.15;" x="0" xlink:href="#ma4a1a28faa" y="255.11811"/>
    </g>
   </g>
   <g id="matplotlib.axis_1">
    <g id="xtick_1">
     <g id="line2d_1">
      <defs>
       <path d="M 0 0 
L 0 3.5 
" id="mae42fe131a" style="stroke:#000000;stroke-width:0.8;"/>
      </defs>
      <g>
       <use style="stroke:#000000;stroke-width:0.8;" x="83.079814" xlink:href="#mae42fe131a" y="178.805836"/>
      </g>
     </g>
     <g id="text_1">
      <!-- 10 -->
      <defs>
       <path d="M 26.59375 63.796875 
C 26.59375 65.890625 26.5 66 25.09375 66 
C 21.203125 61.359375 15.296875 59.890625 9.703125 59.6875 
C 9.40625 59.6875 8.90625 59.6875 8.796875 59.5 
C 8.703125 59.296875 8.703125 59.09375 8.703125 57 
C 11.796875 57 17 57.59375 21 59.984375 
L 21 7.296875 
C 21 3.796875 20.796875 2.59375 12.203125 2.59375 
L 9.203125 2.59375 
L 9.203125 0 
C 14 0.09375 19 0.1875 23.796875 0.1875 
C 28.59375 0.1875 33.59375 0.09375 38.40625 0 
L 38.40625 2.59375 
L 35.40625 2.59375 
C 26.796875 2.59375 26.59375 3.6875 26.59375 7.296875 
z
" id="CMR17-49"/>
       <path d="M 42 31.84375 
C 42 37.96875 41.90625 48.421875 37.703125 56.453125 
C 34 63.484375 28.09375 66 22.90625 66 
C 18.09375 66 12 63.78125 8.203125 56.5625 
C 4.203125 49.015625 3.796875 39.671875 3.796875 31.84375 
C 3.796875 26.109375 3.90625 17.375 7 9.734375 
C 11.296875 -0.609375 19 -2 22.90625 -2 
C 27.5 -2 34.5 -0.109375 38.59375 9.4375 
C 41.59375 16.375 42 24.5 42 31.84375 
z
M 22.90625 -0.40625 
C 16.5 -0.40625 12.703125 5.125 11.296875 12.75 
C 10.203125 18.6875 10.203125 27.328125 10.203125 32.953125 
C 10.203125 40.6875 10.203125 47.109375 11.5 53.234375 
C 13.40625 61.78125 19 64.390625 22.90625 64.390625 
C 27 64.390625 32.296875 61.671875 34.203125 53.4375 
C 35.5 47.71875 35.59375 40.984375 35.59375 32.953125 
C 35.59375 26.421875 35.59375 18.375 34.40625 12.453125 
C 32.296875 1.5 26.40625 -0.40625 22.90625 -0.40625 
z
" id="CMR17-48"/>
      </defs>
      <g transform="translate(80.379422 204.669721)rotate(-45)scale(0.16 -0.16)">
       <use transform="scale(0.996264)" xlink:href="#CMR17-49"/>
       <use transform="translate(45.690477 0)scale(0.996264)" xlink:href="#CMR17-48"/>
      </g>
     </g>
    </g>
    <g id="xtick_2">
     <g id="line2d_2">
      <g>
       <use style="stroke:#000000;stroke-width:0.8;" x="126.48879" xlink:href="#mae42fe131a" y="178.805836"/>
      </g>
     </g>
     <g id="text_2">
      <!-- 19 -->
      <defs>
       <path d="M 35.203125 29.234375 
C 35.203125 7 26.09375 0.390625 18.59375 0.390625 
C 16.296875 0.390625 10.703125 0.671875 8.40625 4.390625 
C 11 4 12.90625 5.390625 12.90625 7.890625 
C 12.90625 10.59375 10.703125 11.5 9.296875 11.5 
C 8.40625 11.5 5.703125 11.09375 5.703125 7.6875 
C 5.703125 1.0625 11.59375 -2 18.796875 -2 
C 30.296875 -2 42 10.390625 42 32.65625 
C 42 60.265625 30.796875 66 23.203125 66 
C 13.296875 66 3.796875 57.25 3.796875 43.75 
C 3.796875 31.25 11.90625 22 22.09375 22 
C 30.5 22 34.203125 29.84375 35.203125 33.15625 
z
M 22.296875 23.59375 
C 19.59375 23.59375 15.796875 24.09375 12.703125 30.140625 
C 10.59375 34.078125 10.59375 38.703125 10.59375 43.640625 
C 10.59375 49.59375 10.59375 53.71875 13.40625 58.15625 
C 14.796875 60.265625 17.40625 63.6875 23.203125 63.6875 
C 35 63.6875 35 45.453125 35 41.421875 
C 35 34.265625 31.796875 23.59375 22.296875 23.59375 
z
" id="CMR17-57"/>
      </defs>
      <g transform="translate(123.788398 204.669721)rotate(-45)scale(0.16 -0.16)">
       <use transform="scale(0.996264)" xlink:href="#CMR17-49"/>
       <use transform="translate(45.690477 0)scale(0.996264)" xlink:href="#CMR17-57"/>
      </g>
     </g>
    </g>
    <g id="xtick_3">
     <g id="line2d_3">
      <g>
       <use style="stroke:#000000;stroke-width:0.8;" x="173.366764" xlink:href="#mae42fe131a" y="178.805836"/>
      </g>
     </g>
     <g id="text_3">
      <!-- 38 -->
      <defs>
       <path d="M 22.09375 34 
C 31 34 34.90625 26.140625 34.90625 17.09375 
C 34.90625 5.03125 28.5 0.390625 22.703125 0.390625 
C 17.40625 0.390625 8.796875 3.015625 6.09375 10.796875 
C 6.59375 10.59375 7.09375 10.59375 7.59375 10.59375 
C 10 10.59375 11.796875 12.1875 11.796875 14.796875 
C 11.796875 17.6875 9.59375 19 7.59375 19 
C 5.90625 19 3.296875 18.1875 3.296875 14.484375 
C 3.296875 5.234375 12.296875 -2 22.90625 -2 
C 34 -2 42.5 6.75 42.5 16.984375 
C 42.5 26.84375 34.5 34 25 35.09375 
C 32.59375 36.671875 39.90625 43.375 39.90625 52.390625 
C 39.90625 60.25 32 66 23 66 
C 13.90625 66 5.90625 60.34375 5.90625 52.296875 
C 5.90625 48.796875 8.5 48.1875 9.796875 48.1875 
C 11.90625 48.1875 13.703125 49.484375 13.703125 52.09375 
C 13.703125 54.6875 11.90625 56 9.796875 56 
C 9.40625 56 8.90625 56 8.5 55.796875 
C 11.40625 62.484375 19.296875 63.6875 22.796875 63.6875 
C 26.296875 63.6875 32.90625 61.96875 32.90625 52.296875 
C 32.90625 49.484375 32.5 44.546875 29.09375 40.21875 
C 26.09375 36.390625 22.703125 36.1875 19.40625 35.890625 
C 18.90625 35.890625 16.59375 35.6875 16.203125 35.6875 
C 15.5 35.59375 15.09375 35.5 15.09375 34.796875 
C 15.09375 34.09375 15.203125 34 17.203125 34 
z
" id="CMR17-51"/>
       <path d="M 27.203125 35.765625 
C 33.5 38.96875 39.90625 43.796875 39.90625 51.53125 
C 39.90625 60.6875 31.09375 66 23 66 
C 13.90625 66 5.90625 59.375 5.90625 50.234375 
C 5.90625 47.71875 6.5 43.390625 10.40625 39.578125 
C 11.40625 38.578125 15.59375 35.5625 18.296875 33.65625 
C 13.796875 31.34375 3.296875 25.8125 3.296875 14.765625 
C 3.296875 4.40625 13.09375 -2 22.796875 -2 
C 33.5 -2 42.5 5.71875 42.5 15.96875 
C 42.5 25.109375 36.40625 29.328125 32.40625 32.046875 
z
M 14.09375 44.609375 
C 13.296875 45.109375 9.296875 48.21875 9.296875 52.9375 
C 9.296875 59.078125 15.59375 63.6875 22.796875 63.6875 
C 30.703125 63.6875 36.5 58.0625 36.5 51.53125 
C 36.5 42.1875 26.09375 36.859375 25.59375 36.859375 
C 25.5 36.859375 25.40625 36.859375 24.59375 37.46875 
z
M 32.5 24 
C 34 22.90625 38.796875 19.578125 38.796875 13.453125 
C 38.796875 6.015625 31.40625 0.390625 23 0.390625 
C 13.90625 0.390625 7 6.921875 7 14.859375 
C 7 22.796875 13.09375 29.4375 20 32.546875 
z
" id="CMR17-56"/>
      </defs>
      <g transform="translate(170.666372 204.669721)rotate(-45)scale(0.16 -0.16)">
       <use transform="scale(0.996264)" xlink:href="#CMR17-51"/>
       <use transform="translate(45.690477 0)scale(0.996264)" xlink:href="#CMR17-56"/>
      </g>
     </g>
    </g>
    <g id="xtick_4">
     <g id="line2d_4">
      <g>
       <use style="stroke:#000000;stroke-width:0.8;" x="220.244738" xlink:href="#mae42fe131a" y="178.805836"/>
      </g>
     </g>
     <g id="text_4">
      <!-- 76 -->
      <defs>
       <path d="M 45.09375 61.796875 
L 45.09375 64 
L 21.59375 64 
C 9.90625 64 9.703125 65.09375 9.296875 67 
L 7.5 67 
L 4.59375 48.5 
L 6.40625 48.5 
C 6.703125 50.40625 7.40625 55.5 8.59375 57.390625 
C 9.203125 58.1875 16.59375 58.1875 18.296875 58.1875 
L 40.296875 58.1875 
L 29.203125 41.71875 
C 21.796875 30.640625 16.703125 15.671875 16.703125 2.59375 
C 16.703125 1.390625 16.703125 -2 20.296875 -2 
C 23.90625 -2 23.90625 1.390625 23.90625 2.6875 
L 23.90625 7.28125 
C 23.90625 23.65625 26.703125 34.4375 31.296875 41.3125 
z
" id="CMR17-55"/>
       <path d="M 10.59375 34.34375 
C 10.59375 58 21.796875 63.6875 28.296875 63.6875 
C 30.40625 63.6875 35.5 63.265625 37.5 59.09375 
C 35.90625 59.09375 32.90625 59.09375 32.90625 55.59375 
C 32.90625 52.890625 35.09375 52 36.5 52 
C 37.40625 52 40.09375 52.390625 40.09375 55.796875 
C 40.09375 62.296875 35.09375 66 28.203125 66 
C 16.296875 66 3.796875 53.296875 3.796875 31.421875 
C 3.796875 4.015625 15.09375 -2 23.09375 -2 
C 32.796875 -2 42 6.734375 42 20.234375 
C 42 32.828125 33.90625 42 23.703125 42 
C 17.59375 42 13.09375 37.96875 10.59375 30.921875 
z
M 23.09375 0.390625 
C 10.796875 0.390625 10.796875 18.9375 10.796875 22.65625 
C 10.796875 29.90625 14.203125 40.390625 23.5 40.390625 
C 25.203125 40.390625 30.09375 40.390625 33.40625 33.4375 
C 35.203125 29.515625 35.203125 25.375 35.203125 20.34375 
C 35.203125 14.90625 35.203125 10.875 33.09375 6.84375 
C 30.90625 2.703125 27.703125 0.390625 23.09375 0.390625 
z
" id="CMR17-54"/>
      </defs>
      <g transform="translate(217.544346 204.669721)rotate(-45)scale(0.16 -0.16)">
       <use transform="scale(0.996264)" xlink:href="#CMR17-55"/>
       <use transform="translate(45.690477 0)scale(0.996264)" xlink:href="#CMR17-54"/>
      </g>
     </g>
    </g>
    <g id="xtick_5">
     <g id="line2d_5">
      <g>
       <use style="stroke:#000000;stroke-width:0.8;" x="267.122711" xlink:href="#mae42fe131a" y="178.805836"/>
      </g>
     </g>
     <g id="text_5">
      <!-- 152 -->
      <defs>
       <path d="M 11.40625 58.59375 
C 12.40625 58.1875 16.5 56.890625 20.703125 56.890625 
C 30 56.890625 35.09375 61.890625 38 64.6875 
C 38 65.484375 38 66 37.40625 66 
C 37.296875 66 37.09375 66 36.296875 65.59375 
C 32.796875 64.09375 28.703125 63 23.703125 63 
C 20.703125 63 16.203125 63.359375 11.296875 65.484375 
C 10.203125 66 10 66 9.90625 66 
C 9.40625 66 9.296875 65.890625 9.296875 63.90625 
L 9.296875 34.859375 
C 9.296875 33.015625 9.296875 32.5 10.296875 32.5 
C 10.796875 32.5 11 32.703125 11.5 33.421875 
C 14.703125 38.046875 19.09375 40 24.09375 40 
C 27.59375 40 35.09375 37.734375 35.09375 20.203125 
C 35.09375 16.984375 35.09375 11.1875 32.09375 6.59375 
C 29.59375 2.484375 25.703125 0.390625 21.40625 0.390625 
C 14.796875 0.390625 8.09375 4.984375 6.296875 12.6875 
C 6.703125 12.59375 7.5 12.390625 7.90625 12.390625 
C 9.203125 12.390625 11.703125 13.09375 11.703125 16.1875 
C 11.703125 18.890625 9.796875 20 7.90625 20 
C 5.59375 20 4.09375 18.59375 4.09375 15.796875 
C 4.09375 7.09375 11 -2 21.59375 -2 
C 31.90625 -2 41.703125 6.890625 41.703125 19.796875 
C 41.703125 32.09375 33.90625 41.59375 24.203125 41.59375 
C 19.09375 41.59375 14.796875 39.6875 11.40625 36 
z
" id="CMR17-53"/>
       <path d="M 41.703125 15.46875 
L 39.90625 15.46875 
C 38.90625 8.390625 38.09375 7.1875 37.703125 6.59375 
C 37.203125 5.796875 30 5.796875 28.59375 5.796875 
L 9.40625 5.796875 
C 13 9.6875 20 16.765625 28.5 24.9375 
C 34.59375 30.71875 41.703125 37.5 41.703125 47.390625 
C 41.703125 59.1875 32.296875 66 21.796875 66 
C 10.796875 66 4.09375 56.296875 4.09375 47.296875 
C 4.09375 43.390625 7 42.890625 8.203125 42.890625 
C 9.203125 42.890625 12.203125 43.484375 12.203125 46.984375 
C 12.203125 50.09375 9.59375 51 8.203125 51 
C 7.59375 51 7 50.890625 6.59375 50.6875 
C 8.5 59.1875 14.296875 63.390625 20.40625 63.390625 
C 29.09375 63.390625 34.796875 56.5 34.796875 47.390625 
C 34.796875 38.703125 29.703125 31.21875 24 24.734375 
L 4.09375 2.296875 
L 4.09375 0 
L 39.296875 0 
z
" id="CMR17-50"/>
      </defs>
      <g transform="translate(261.663193 210.187973)rotate(-45)scale(0.16 -0.16)">
       <use transform="scale(0.996264)" xlink:href="#CMR17-49"/>
       <use transform="translate(45.690477 0)scale(0.996264)" xlink:href="#CMR17-53"/>
       <use transform="translate(91.380954 0)scale(0.996264)" xlink:href="#CMR17-50"/>
      </g>
     </g>
    </g>
    <g id="xtick_6">
     <g id="line2d_6">
      <g>
       <use style="stroke:#000000;stroke-width:0.8;" x="314.000685" xlink:href="#mae42fe131a" y="178.805836"/>
      </g>
     </g>
     <g id="text_6">
      <!-- 304 -->
      <defs>
       <path d="M 33.59375 64.796875 
C 33.59375 66.890625 33.5 67 31.703125 67 
L 2 19.59375 
L 2 17 
L 27.796875 17 
L 27.796875 7.1875 
C 27.796875 3.59375 27.59375 2.59375 20.59375 2.59375 
L 18.703125 2.59375 
L 18.703125 0 
C 21.90625 0.1875 27.296875 0.1875 30.703125 0.1875 
C 34.09375 0.1875 39.5 0.1875 42.703125 0 
L 42.703125 2.59375 
L 40.796875 2.59375 
C 33.796875 2.59375 33.59375 3.59375 33.59375 7.1875 
L 33.59375 17 
L 43.796875 17 
L 43.796875 19.59375 
L 33.59375 19.59375 
z
M 28.09375 58.171875 
L 28.09375 19.59375 
L 4 19.59375 
z
" id="CMR17-52"/>
      </defs>
      <g transform="translate(308.541167 210.187973)rotate(-45)scale(0.16 -0.16)">
       <use transform="scale(0.996264)" xlink:href="#CMR17-51"/>
       <use transform="translate(45.690477 0)scale(0.996264)" xlink:href="#CMR17-48"/>
       <use transform="translate(91.380954 0)scale(0.996264)" xlink:href="#CMR17-52"/>
      </g>
     </g>
    </g>
    <g id="xtick_7">
     <g id="line2d_7">
      <g>
       <use style="stroke:#000000;stroke-width:0.8;" x="360.878659" xlink:href="#mae42fe131a" y="178.805836"/>
      </g>
     </g>
     <g id="text_7">
      <!-- 608 -->
      <g transform="translate(355.419141 210.187973)rotate(-45)scale(0.16 -0.16)">
       <use transform="scale(0.996264)" xlink:href="#CMR17-54"/>
       <use transform="translate(45.690477 0)scale(0.996264)" xlink:href="#CMR17-48"/>
       <use transform="translate(91.380954 0)scale(0.996264)" xlink:href="#CMR17-56"/>
      </g>
     </g>
    </g>
    <g id="xtick_8">
     <g id="line2d_8">
      <g>
       <use style="stroke:#000000;stroke-width:0.8;" x="407.756632" xlink:href="#mae42fe131a" y="178.805836"/>
      </g>
     </g>
     <g id="text_8">
      <!-- 1216 -->
      <g transform="translate(399.537988 215.706225)rotate(-45)scale(0.16 -0.16)">
       <use transform="scale(0.996264)" xlink:href="#CMR17-49"/>
       <use transform="translate(45.690477 0)scale(0.996264)" xlink:href="#CMR17-50"/>
       <use transform="translate(91.380954 0)scale(0.996264)" xlink:href="#CMR17-49"/>
       <use transform="translate(137.071431 0)scale(0.996264)" xlink:href="#CMR17-54"/>
      </g>
     </g>
    </g>
    <g id="xtick_9">
     <g id="line2d_9">
      <g>
       <use style="stroke:#000000;stroke-width:0.8;" x="454.634606" xlink:href="#mae42fe131a" y="178.805836"/>
      </g>
     </g>
     <g id="text_9">
      <!-- 2432 -->
      <g transform="translate(446.415962 215.706225)rotate(-45)scale(0.16 -0.16)">
       <use transform="scale(0.996264)" xlink:href="#CMR17-50"/>
       <use transform="translate(45.690477 0)scale(0.996264)" xlink:href="#CMR17-52"/>
       <use transform="translate(91.380954 0)scale(0.996264)" xlink:href="#CMR17-51"/>
       <use transform="translate(137.071431 0)scale(0.996264)" xlink:href="#CMR17-50"/>
      </g>
     </g>
    </g>
    <g id="xtick_10">
     <g id="line2d_10">
      <g>
       <use style="stroke:#000000;stroke-width:0.8;" x="484.817279" xlink:href="#mae42fe131a" y="178.805836"/>
      </g>
     </g>
     <g id="text_10">
      <!-- 3800 -->
      <g transform="translate(476.598635 215.706225)rotate(-45)scale(0.16 -0.16)">
       <use transform="scale(0.996264)" xlink:href="#CMR17-51"/>
       <use transform="translate(45.690477 0)scale(0.996264)" xlink:href="#CMR17-56"/>
       <use transform="translate(91.380954 0)scale(0.996264)" xlink:href="#CMR17-48"/>
       <use transform="translate(137.071431 0)scale(0.996264)" xlink:href="#CMR17-48"/>
      </g>
     </g>
    </g>
    <g id="text_11">
     <!-- \textbf{Number of Images ($P_1$ to $P_{10}$)} -->
     <defs>
      <path d="M 29 67.796875 
C 28 68.890625 27.90625 69 25.90625 69 
L 3.796875 69 
L 3.796875 64.6875 
L 14.40625 64.6875 
L 14.40625 7.3125 
C 14.40625 5.09375 14.296875 5 11.703125 4.59375 
C 9.90625 4.390625 7.90625 4.296875 6.09375 4.296875 
L 3.796875 4.296875 
L 3.796875 0 
C 6.09375 0.1875 13.90625 0.1875 16.703125 0.1875 
C 19.5 0.1875 27.40625 0.1875 29.703125 0 
L 29.703125 4.296875 
L 27.40625 4.296875 
C 24.703125 4.296875 24.5 4.296875 22.09375 4.59375 
C 19.203125 5 19.09375 5.09375 19.09375 7.3125 
L 19.09375 61.265625 
L 68.59375 1.296875 
C 69.703125 0.09375 69.796875 0 71.09375 0 
C 73.5 0 73.5 0.59375 73.5 2.890625 
L 73.5 61.671875 
C 73.5 63.890625 73.59375 63.984375 76.203125 64.390625 
C 78 64.59375 80 64.6875 81.796875 64.6875 
L 84.09375 64.6875 
L 84.09375 69 
C 81.796875 68.796875 74 68.796875 71.203125 68.796875 
C 68.40625 68.796875 60.5 68.796875 58.203125 69 
L 58.203125 64.6875 
L 60.5 64.6875 
C 63.203125 64.6875 63.40625 64.6875 65.796875 64.390625 
C 68.703125 63.984375 68.796875 63.890625 68.796875 61.671875 
L 68.796875 19.59375 
z
" id="CMBX12-78"/>
      <path d="M 35.296875 44.1875 
L 35.296875 39.890625 
C 41.5 39.890625 42.203125 39.890625 42.203125 35.953125 
L 42.203125 16.140625 
C 42.203125 8.453125 37.703125 2.296875 29.90625 2.296875 
C 22.40625 2.296875 22 4.8125 22 10.375 
L 22 45 
L 4.203125 44.1875 
L 4.203125 39.890625 
C 10.40625 39.890625 11.09375 39.890625 11.09375 35.953125 
L 11.09375 12 
C 11.09375 1.890625 17.796875 -1 28.5 -1 
C 30.90625 -1 38.296875 -1 42.59375 7.140625 
L 42.703125 7.140625 
L 42.703125 -1 
L 60 -0.40625 
L 60 3.90625 
C 53.796875 3.90625 53.09375 3.90625 53.09375 7.84375 
L 53.09375 45 
z
" id="CMBX12-117"/>
      <path d="M 84.40625 30.59375 
C 84.40625 39.796875 80.5 45 69.296875 45 
C 59.203125 45 54.5 38.1875 52.90625 35 
C 51.296875 43.484375 44.5 45 38.09375 45 
C 28.5 45 23.296875 38.796875 21.203125 34 
L 21.09375 34 
L 21.09375 45 
L 4.203125 44.1875 
L 4.203125 39.890625 
C 10.40625 39.890625 11.09375 39.890625 11.09375 36 
L 11.09375 4.296875 
L 4.203125 4.296875 
L 4.203125 0 
C 6.5 0.1875 13.703125 0.1875 16.5 0.1875 
C 19.296875 0.1875 26.59375 0.1875 28.90625 0 
L 28.90625 4.296875 
L 22 4.296875 
L 22 25.59375 
C 22 36.5 30.09375 41.6875 36.40625 41.6875 
C 40.09375 41.6875 42.296875 39.5 42.296875 31.6875 
L 42.296875 4.296875 
L 35.40625 4.296875 
L 35.40625 0 
C 37.703125 0.1875 44.90625 0.1875 47.703125 0.1875 
C 50.5 0.1875 57.796875 0.1875 60.09375 0 
L 60.09375 4.296875 
L 53.203125 4.296875 
L 53.203125 25.59375 
C 53.203125 36.5 61.296875 41.6875 67.59375 41.6875 
C 71.296875 41.6875 73.5 39.5 73.5 31.6875 
L 73.5 4.296875 
L 66.59375 4.296875 
L 66.59375 0 
C 68.90625 0.1875 76.09375 0.1875 78.90625 0.1875 
C 81.703125 0.1875 89 0.1875 91.296875 0 
L 91.296875 4.296875 
L 84.40625 4.296875 
z
" id="CMBX12-109"/>
      <path d="M 20.796875 70 
L 3.5 69.1875 
L 3.5 64.890625 
C 9.703125 64.890625 10.40625 64.890625 10.40625 60.875 
L 10.40625 -0.40625 
L 14.59375 -0.40625 
C 16.296875 1.5 18 3.40625 19.59375 5.421875 
C 24.703125 0.09375 30.203125 -1 34.203125 -1 
C 48 -1 58.59375 7.4375 58.59375 22.09375 
C 58.59375 35.9375 49.203125 45 35.5 45 
C 29.59375 45 24.90625 43.09375 20.796875 39.875 
z
M 21.296875 35.03125 
C 24.796875 39.875 30 41.6875 34.203125 41.6875 
C 46.59375 41.6875 46.59375 28.859375 46.59375 22.1875 
C 46.59375 17.65625 46.59375 11.890625 44.203125 8.15625 
C 41.09375 3.296875 36.40625 2.296875 33.203125 2.296875 
C 26.40625 2.296875 22.703125 7.140625 21.296875 9.359375 
z
" id="CMBX12-98"/>
      <path d="M 45.203125 22 
C 47.5 22 48.09375 22 48.09375 24.5 
C 48.09375 27.46875 47.40625 34.875 42.796875 39.515625 
C 38.59375 43.6875 33 45 27.203125 45 
C 11.59375 45 3.09375 34.875 3.09375 22.390625 
C 3.09375 8.171875 13.40625 -1 28.5 -1 
C 43.59375 -1 48.09375 9.703125 48.09375 11.421875 
C 48.09375 12.953125 46.59375 12.953125 46 12.953125 
C 44.40625 12.953125 44.296875 12.640625 43.703125 11.328125 
C 41.09375 4.71875 34.5 2.59375 29.703125 2.59375 
C 15.203125 2.59375 15.09375 16.296875 15.09375 22 
z
M 15.09375 24.890625 
C 15.296875 28.9375 15.40625 32.796875 17.5 36.359375 
C 19.40625 39.515625 22.90625 41.6875 27.203125 41.6875 
C 37.90625 41.6875 38.796875 29.828125 38.90625 24.890625 
z
" id="CMBX12-101"/>
      <path d="M 20.796875 22.5 
C 20.796875 25.796875 21.5 41.6875 33.203125 41.6875 
C 31.796875 40.59375 31.09375 38.890625 31.09375 37.09375 
C 31.09375 33 34.40625 31.296875 36.90625 31.296875 
C 39.40625 31.296875 42.703125 33 42.703125 37.09375 
C 42.703125 42.1875 37.5 45 32.703125 45 
C 24.796875 45 21.40625 38.09375 20 33.890625 
L 19.90625 33.890625 
L 19.90625 45 
L 3.5 44.1875 
L 3.5 39.890625 
C 9.703125 39.890625 10.40625 39.890625 10.40625 36 
L 10.40625 4.296875 
L 3.5 4.296875 
L 3.5 0 
C 5.796875 0.1875 13.296875 0.1875 16.09375 0.1875 
C 19 0.1875 27.09375 0.1875 29.5 0 
L 29.5 4.296875 
L 20.796875 4.296875 
z
" id="CMBX12-114"/>
      <path d="M 53 21.546875 
C 53 35.078125 43.796875 45 28.09375 45 
C 11.796875 45 3.09375 34.578125 3.09375 21.546875 
C 3.09375 8.40625 12.296875 -1 28 -1 
C 44.296875 -1 53 8.90625 53 21.546875 
z
M 28.09375 2.59375 
C 15.09375 2.59375 15.09375 14.328125 15.09375 22.546875 
C 15.09375 27.25 15.09375 32.265625 17 35.875 
C 19.203125 39.890625 23.703125 41.6875 28 41.6875 
C 33.703125 41.6875 37.296875 38.984375 39 36.171875 
C 41 32.5625 41 27.359375 41 22.546875 
C 41 14.21875 41 2.59375 28.09375 2.59375 
z
" id="CMBX12-111"/>
      <path d="M 21.703125 39.6875 
L 33.09375 39.6875 
L 33.09375 44 
L 21.203125 44 
L 21.203125 54.15625 
C 21.203125 64.40625 27.796875 66 31.09375 66 
C 32.203125 66 32.40625 65.890625 33 65.6875 
C 31.5 64.703125 30.59375 63.03125 30.59375 60.953125 
C 30.59375 57.015625 33.796875 55.234375 36.40625 55.234375 
C 38.59375 55.234375 42.203125 56.71875 42.203125 61.0625 
C 42.203125 65.109375 38.59375 69.296875 31.5 69.296875 
C 22.40625 69.296875 11.296875 65.5 11.296875 54.046875 
L 11.296875 44 
L 3.90625 44 
L 3.90625 39.6875 
L 11.296875 39.6875 
L 11.296875 4.296875 
L 4.40625 4.296875 
L 4.40625 0 
C 6.703125 0.1875 14.203125 0.1875 17 0.1875 
C 19.90625 0.1875 28 0.1875 30.40625 0 
L 30.40625 4.296875 
L 21.703125 4.296875 
z
" id="CMBX12-102"/>
      <path d="M 27.5 64.6875 
L 38.703125 64.6875 
L 38.703125 69 
C 35.09375 68.796875 25.09375 68.796875 20.90625 68.796875 
C 16.703125 68.796875 6.703125 68.796875 3.09375 69 
L 3.09375 64.6875 
L 14.296875 64.6875 
L 14.296875 4.296875 
L 3.09375 4.296875 
L 3.09375 0 
C 6.703125 0.1875 16.703125 0.1875 20.90625 0.1875 
C 25.09375 0.1875 35.09375 0.1875 38.703125 0 
L 38.703125 4.296875 
L 27.5 4.296875 
z
" id="CMBX12-73"/>
      <path d="M 46 29.59375 
C 46 38.796875 38.703125 45 24.59375 45 
C 19 45 7.203125 44.484375 7.203125 36.09375 
C 7.203125 31.890625 10.40625 30.09375 13.09375 30.09375 
C 16.09375 30.09375 19 32.1875 19 35.984375 
C 19 37.890625 18.296875 39.6875 16.59375 40.796875 
C 19.90625 41.6875 22.296875 41.6875 24.203125 41.6875 
C 31 41.6875 35.09375 37.890625 35.09375 29.6875 
L 35.09375 25.6875 
C 19.296875 25.6875 3.40625 21.28125 3.40625 10.125 
C 3.40625 1 15 -1 21.90625 -1 
C 29.59375 -1 34.5 3.203125 36.5 7.625 
C 36.5 3.90625 36.5 -0.40625 46.59375 -0.40625 
L 51.703125 -0.40625 
C 53.796875 -0.40625 54.59375 -0.40625 54.59375 1.796875 
C 54.59375 3.90625 53.703125 3.90625 52.296875 3.90625 
C 46 4 46 5.609375 46 7.921875 
z
M 35.09375 13.546875 
C 35.09375 4.09375 26.703125 2.296875 23.5 2.296875 
C 18.59375 2.296875 14.5 5.609375 14.5 10.234375 
C 14.5 19.375 25.296875 22.484375 35.09375 23 
z
" id="CMBX12-97"/>
      <path d="M 13 18.390625 
C 17.796875 15.796875 23.40625 15.796875 24.90625 15.796875 
C 38.703125 15.796875 44.203125 23.53125 44.203125 30.59375 
C 44.203125 35.734375 41.296875 39.359375 40.09375 40.375 
C 43 41.984375 45.40625 42.390625 47.09375 42.59375 
C 46.796875 42.09375 46.5 41.6875 46.5 40.375 
C 46.5 38.25 47.90625 36.34375 50.5 36.34375 
C 53.09375 36.34375 54.5 38.25 54.5 40.375 
C 54.5 42.796875 52.703125 46 48.5 46 
C 44.203125 46 40.09375 43.890625 38 42.09375 
C 33.90625 44.484375 30 45.390625 24.90625 45.390625 
C 11.09375 45.390625 5.59375 37.65625 5.59375 30.59375 
C 5.59375 27.46875 6.59375 23.328125 10.796875 19.90625 
C 9.09375 17.984375 7.296875 14.46875 7.296875 10.828125 
C 7.296875 6.5 9.59375 2.796875 11.703125 1.1875 
C 9.296875 0.59375 3.09375 -1.703125 3.09375 -7.40625 
C 3.09375 -13.3125 9.59375 -20 28 -20 
C 44.59375 -20 53 -14.609375 53 -7.109375 
C 53 1.6875 47.203125 4.59375 44.703125 5.796875 
C 39.90625 8.1875 33.5 8.1875 24.703125 8.1875 
C 22.203125 8.1875 17.796875 8.1875 17.296875 8.296875 
C 13 9 11.796875 12.859375 11.796875 14.78125 
C 11.796875 15.59375 11.90625 17.09375 13 18.390625 
z
M 24.90625 19 
C 16.203125 19 16.203125 25.953125 16.203125 30.59375 
C 16.203125 35.234375 16.203125 42.1875 24.90625 42.1875 
C 33.59375 42.1875 33.59375 35.234375 33.59375 30.59375 
C 33.59375 25.953125 33.59375 19 24.90625 19 
z
M 30.5 -1 
C 37.796875 -1 44.796875 -2.3125 44.796875 -7.5 
C 44.796875 -11 41.296875 -16.8125 28.09375 -16.8125 
C 14.90625 -16.8125 11.296875 -11.203125 11.296875 -7.40625 
C 11.296875 -1 17.59375 -1 19.09375 -1 
z
" id="CMBX12-103"/>
      <path d="M 37.703125 42.390625 
C 37.703125 44.296875 37.703125 45 36.203125 45 
C 35.59375 45 35.40625 45 33.90625 44.09375 
C 33.5 43.796875 32.40625 43.09375 31.90625 42.796875 
C 29.09375 44.390625 25.40625 45 21.796875 45 
C 18.796875 45 3.796875 45 3.796875 31.96875 
C 3.796875 21.4375 16.203125 19.234375 19.296875 18.734375 
C 22 18.234375 25.296875 17.625 25.703125 17.625 
C 29.703125 16.734375 33.703125 14.21875 33.703125 10.015625 
C 33.703125 2.296875 24.59375 2.296875 22.5 2.296875 
C 17.40625 2.296875 11.09375 3.890625 8.296875 13.625 
C 7.703125 15.625 7.59375 15.71875 5.90625 15.71875 
C 3.796875 15.71875 3.796875 15.421875 3.796875 13.125 
L 3.796875 1.59375 
C 3.796875 -0.3125 3.796875 -1 5.296875 -1 
C 6 -1 6.203125 -1 8.203125 0.59375 
L 10.796875 2.5 
C 15.296875 -1 20.703125 -1 22.5 -1 
C 28 -1 40.5 0.1875 40.5 13.515625 
C 40.5 18.328125 37.90625 21.640625 35.90625 23.4375 
C 31.796875 26.859375 28.40625 27.453125 23 28.453125 
C 16.59375 29.5625 10.59375 30.65625 10.59375 35.46875 
C 10.59375 41.984375 19.5 41.984375 21.59375 41.984375 
C 32.703125 41.984375 33.296875 34.96875 33.5 32.46875 
C 33.59375 31.171875 34.40625 31.171875 35.59375 31.171875 
C 37.703125 31.171875 37.703125 31.46875 37.703125 33.765625 
z
" id="CMBX12-115"/>
      <path d="M 37.40625 -23.90625 
C 37.40625 -23.515625 37.40625 -23.3125 35.5 -21.5 
C 24.296875 -10.3125 20 7.296875 20 24.890625 
C 20 44.59375 24.90625 60.796875 36.09375 72.09375 
C 37.296875 73.296875 37.40625 73.390625 37.40625 73.796875 
C 37.40625 75 36.203125 75 35.703125 75 
C 34.796875 75 34.59375 75 32 72.890625 
C 17.59375 61.390625 10.796875 43 10.796875 25 
C 10.796875 6.59375 17.703125 -11.3125 31.90625 -22.90625 
C 34.5 -25.109375 34.703125 -25.109375 35.703125 -25.109375 
C 36.203125 -25.109375 37.40625 -25.109375 37.40625 -23.90625 
z
" id="CMBX12-40"/>
      <path d="M 29.59375 31.59375 
L 46.40625 31.59375 
C 60.203125 31.59375 74 41.765625 74 53.125 
C 74 60.90625 67.40625 68 54.796875 68 
L 23.90625 68 
C 22 68 21.09375 68 21.09375 66.09375 
C 21.09375 65.09375 22 65.09375 23.5 65.09375 
C 29.59375 65.09375 29.59375 64.296875 29.59375 63.203125 
C 29.59375 63 29.59375 62.40625 29.203125 60.90625 
L 15.703125 7.359375 
C 14.796875 3.890625 14.59375 2.890625 7.59375 2.890625 
C 5.703125 2.890625 4.703125 2.890625 4.703125 1.09375 
C 4.703125 0 5.59375 0 6.203125 0 
C 8.09375 0 10.09375 0.1875 12 0.1875 
L 23.703125 0.1875 
C 25.59375 0.1875 27.703125 0 29.59375 0 
C 30.40625 0 31.5 0 31.5 1.890625 
C 31.5 2.890625 30.59375 2.890625 29.09375 2.890625 
C 23.09375 2.890625 23 3.59375 23 4.578125 
C 23 5.078125 23.09375 5.765625 23.203125 6.265625 
z
M 36.796875 61.203125 
C 37.703125 64.890625 38.09375 65.09375 42 65.09375 
L 51.90625 65.09375 
C 59.40625 65.09375 65.59375 62.703125 65.59375 55.21875 
C 65.59375 52.640625 64.296875 44.15625 59.703125 39.578125 
C 58 37.78125 53.203125 34 44.09375 34 
L 30 34 
z
" id="CMMI12-80"/>
      <path d="M 21.09375 39.6875 
L 35.5 39.6875 
L 35.5 44 
L 21.09375 44 
L 21.09375 63 
L 16.90625 63 
C 16.796875 53.140625 12 43.296875 2.09375 42.984375 
L 2.09375 39.6875 
L 10.203125 39.6875 
L 10.203125 11.890625 
C 10.203125 1.296875 18.40625 -1 25.59375 -1 
C 33 -1 37.40625 4.59375 37.40625 12 
L 37.40625 17.296875 
L 33.203125 17.296875 
L 33.203125 12.09375 
C 33.203125 5.5 30.203125 2.59375 27.09375 2.59375 
C 21.09375 2.59375 21.09375 9.296875 21.09375 11.59375 
z
" id="CMBX12-116"/>
      <path d="M 32.796875 24.890625 
C 32.796875 43.296875 25.90625 61.203125 11.703125 72.796875 
C 9.09375 75 8.90625 75 7.90625 75 
C 7.40625 75 6.203125 75 6.203125 73.796875 
C 6.203125 73.390625 6.203125 73.1875 8.09375 71.390625 
C 19.296875 60.203125 23.59375 42.59375 23.59375 25 
C 23.59375 5.296875 18.703125 -10.90625 7.5 -22.203125 
C 6.296875 -23.40625 6.203125 -23.515625 6.203125 -23.90625 
C 6.203125 -25.109375 7.40625 -25.109375 7.90625 -25.109375 
C 8.796875 -25.109375 9 -25.109375 11.59375 -23 
C 26 -11.5 32.796875 6.890625 32.796875 24.890625 
z
" id="CMBX12-41"/>
     </defs>
     <g transform="translate(168.652589 234.738634)scale(0.16 -0.16)">
      <use transform="translate(0 14.943915)scale(0.996264)" xlink:href="#CMBX12-78"/>
      <use transform="translate(87.634475 14.943915)scale(0.996264)" xlink:href="#CMBX12-117"/>
      <use transform="translate(149.900976 14.943915)scale(0.996264)" xlink:href="#CMBX12-109"/>
      <use transform="translate(240.187401 14.943915)scale(0.996264)" xlink:href="#CMBX12-98"/>
      <use transform="translate(305.567227 14.943915)scale(0.996264)" xlink:href="#CMBX12-101"/>
      <use transform="translate(356.706494 14.943915)scale(0.996264)" xlink:href="#CMBX12-114"/>
      <use transform="translate(439.843902 14.943915)scale(0.996264)" xlink:href="#CMBX12-111"/>
      <use transform="translate(495.883753 14.943915)scale(0.996264)" xlink:href="#CMBX12-102"/>
      <use transform="translate(567.490228 14.943915)scale(0.996264)" xlink:href="#CMBX12-73"/>
      <use transform="translate(609.231936 14.943915)scale(0.996264)" xlink:href="#CMBX12-109"/>
      <use transform="translate(702.631687 14.943915)scale(0.996264)" xlink:href="#CMBX12-97"/>
      <use transform="translate(757.114875 14.943915)scale(0.996264)" xlink:href="#CMBX12-103"/>
      <use transform="translate(813.154726 14.943915)scale(0.996264)" xlink:href="#CMBX12-101"/>
      <use transform="translate(864.293993 14.943915)scale(0.996264)" xlink:href="#CMBX12-115"/>
      <use transform="translate(945.86323 14.943915)scale(0.996264)" xlink:href="#CMBX12-40"/>
      <use transform="translate(989.449781 14.943915)scale(0.996264)" xlink:href="#CMMI12-80"/>
      <use transform="translate(1052.327013 0)scale(0.697382)" xlink:href="#CMR17-49"/>
      <use transform="translate(1122.168227 14.943915)scale(0.996264)" xlink:href="#CMBX12-116"/>
      <use transform="translate(1165.754778 14.943915)scale(0.996264)" xlink:href="#CMBX12-111"/>
      <use transform="translate(1259.154529 14.943915)scale(0.996264)" xlink:href="#CMMI12-80"/>
      <use transform="translate(1322.031761 0)scale(0.697382)" xlink:href="#CMR17-49"/>
      <use transform="translate(1354.014943 0)scale(0.697382)" xlink:href="#CMR17-48"/>
      <use transform="translate(1386.496257 14.943915)scale(0.996264)" xlink:href="#CMBX12-41"/>
     </g>
    </g>
   </g>
   <g id="matplotlib.axis_2">
    <g id="ytick_1">
     <g id="line2d_11">
      <path clip-path="url(#p8af98c0783)" d="M 72.088558 136.050148 
L 496.252017 136.050148 
" style="fill:none;stroke:#b0b0b0;stroke-linecap:square;stroke-width:0.8;"/>
     </g>
     <g id="line2d_12">
      <defs>
       <path d="M 0 0 
L -3.5 0 
" id="m0ad5b0cf92" style="stroke:#000000;stroke-width:0.8;"/>
      </defs>
      <g>
       <use style="stroke:#000000;stroke-width:0.8;" x="72.088558" xlink:href="#m0ad5b0cf92" y="136.050148"/>
      </g>
     </g>
     <g id="text_12">
      <!-- $0.6$ -->
      <defs>
       <path d="M 18.40625 4.796875 
C 18.40625 7.6875 16 9.6875 13.59375 9.6875 
C 10.703125 9.6875 8.703125 7.296875 8.703125 4.890625 
C 8.703125 2 11.09375 0 13.5 0 
C 16.40625 0 18.40625 2.390625 18.40625 4.796875 
z
" id="CMMI12-58"/>
      </defs>
      <g transform="translate(48.794698 152.444934)rotate(-45)scale(0.16 -0.16)">
       <use transform="scale(0.996264)" xlink:href="#CMR17-48"/>
       <use transform="translate(45.690477 0)scale(0.996264)" xlink:href="#CMMI12-58"/>
       <use transform="translate(72.787654 0)scale(0.996264)" xlink:href="#CMR17-54"/>
      </g>
     </g>
    </g>
    <g id="ytick_2">
     <g id="line2d_13">
      <path clip-path="url(#p8af98c0783)" d="M 72.088558 79.199933 
L 496.252017 79.199933 
" style="fill:none;stroke:#b0b0b0;stroke-linecap:square;stroke-width:0.8;"/>
     </g>
     <g id="line2d_14">
      <g>
       <use style="stroke:#000000;stroke-width:0.8;" x="72.088558" xlink:href="#m0ad5b0cf92" y="79.199933"/>
      </g>
     </g>
     <g id="text_13">
      <!-- $0.7$ -->
      <g transform="translate(48.794698 95.59472)rotate(-45)scale(0.16 -0.16)">
       <use transform="scale(0.996264)" xlink:href="#CMR17-48"/>
       <use transform="translate(45.690477 0)scale(0.996264)" xlink:href="#CMMI12-58"/>
       <use transform="translate(72.787654 0)scale(0.996264)" xlink:href="#CMR17-55"/>
      </g>
     </g>
    </g>
    <g id="ytick_3">
     <g id="line2d_15">
      <path clip-path="url(#p8af98c0783)" d="M 72.088558 22.349719 
L 496.252017 22.349719 
" style="fill:none;stroke:#b0b0b0;stroke-linecap:square;stroke-width:0.8;"/>
     </g>
     <g id="line2d_16">
      <g>
       <use style="stroke:#000000;stroke-width:0.8;" x="72.088558" xlink:href="#m0ad5b0cf92" y="22.349719"/>
      </g>
     </g>
     <g id="text_14">
      <!-- $0.8$ -->
      <g transform="translate(48.794698 38.744505)rotate(-45)scale(0.16 -0.16)">
       <use transform="scale(0.996264)" xlink:href="#CMR17-48"/>
       <use transform="translate(45.690477 0)scale(0.996264)" xlink:href="#CMMI12-58"/>
       <use transform="translate(72.787654 0)scale(0.996264)" xlink:href="#CMR17-56"/>
      </g>
     </g>
    </g>
    <g id="text_15">
     <!-- \textbf{AP} -->
     <defs>
      <path d="M 45.796875 67.703125 
C 45.09375 69.5 44.90625 70 42.5 70 
C 40 70 39.796875 69.5 39.09375 67.703125 
L 14.296875 6.703125 
C 13.59375 5.09375 13.59375 4.890625 10.796875 4.59375 
C 8.296875 4.296875 7.90625 4.296875 5.703125 4.296875 
L 3.90625 4.296875 
L 3.90625 0 
C 6.5 0.1875 12.5 0.1875 15.40625 0.1875 
C 18.09375 0.1875 25.40625 0.1875 27.703125 0 
L 27.703125 4.296875 
C 25.5 4.296875 21.703125 4.296875 18.90625 5.40625 
C 19.203125 6.3125 19.203125 6.5 19.40625 6.90625 
L 24.703125 20 
L 51.5 20 
L 57.796875 4.296875 
L 48.40625 4.296875 
L 48.40625 0 
C 51.59375 0.1875 61.296875 0.1875 65.09375 0.1875 
C 68.296875 0.1875 78.5 0.1875 81 0 
L 81 4.296875 
L 71.5 4.296875 
z
M 38.09375 53.03125 
L 49.703125 24.296875 
L 26.40625 24.296875 
z
" id="CMBX12-65"/>
      <path d="M 27.59375 31 
L 44.59375 31 
C 61.296875 31 70.59375 39.484375 70.59375 49.75 
C 70.59375 60.5 61.09375 69 44.59375 69 
L 3.796875 69 
L 3.796875 64.6875 
L 14.40625 64.6875 
L 14.40625 4.296875 
L 3.796875 4.296875 
L 3.796875 0 
C 6.703125 0.1875 17.40625 0.1875 21 0.1875 
C 24.59375 0.1875 35.296875 0.1875 38.203125 0 
L 38.203125 4.296875 
L 27.59375 4.296875 
z
M 41 64.6875 
C 56.5 64.6875 56.5 56.515625 56.5 49.75 
C 56.5 43.171875 56.5 34.796875 41 34.796875 
L 27.09375 34.796875 
L 27.09375 64.6875 
z
" id="CMBX12-80"/>
     </defs>
     <g transform="translate(33.86784 112.388571)rotate(-90)scale(0.16 -0.16)">
      <use transform="scale(0.996264)" xlink:href="#CMBX12-65"/>
      <use transform="translate(84.636395 0)scale(0.996264)" xlink:href="#CMBX12-80"/>
     </g>
    </g>
   </g>
   <g id="line2d_17">
    <path clip-path="url(#p8af98c0783)" d="M 83.079814 164.985598 
L 126.48879 145.346082 
L 173.366764 112.115419 
L 220.244738 95.123392 
L 267.122711 65.927709 
L 314.000685 56.863816 
L 360.878659 43.18201 
L 407.756632 32.786983 
L 454.634606 34.407656 
L 484.817279 41.012831 
" style="fill:none;stroke:#ff0000;stroke-linecap:square;stroke-opacity:0.9;stroke-width:1.5;"/>
   </g>
   <g id="line2d_18">
    <path clip-path="url(#p8af98c0783)" d="M 83.079814 131.117046 
L 126.48879 114.961009 
L 173.366764 87.898444 
L 220.244738 71.238988 
L 267.122711 56.330829 
L 314.000685 51.966713 
L 360.878659 41.977766 
L 407.756632 34.476778 
L 454.634606 29.293599 
L 484.817279 32.816775 
" style="fill:none;stroke:#0000ff;stroke-linecap:square;stroke-opacity:0.9;stroke-width:1.5;"/>
   </g>
   <g id="line2d_19">
    <path clip-path="url(#p8af98c0783)" d="M 83.079814 91.875895 
L 126.48879 84.893811 
L 173.366764 77.99025 
L 220.244738 71.205054 
L 267.122711 68.641203 
L 314.000685 54.747981 
L 360.878659 46.460187 
L 407.756632 36.987322 
L 454.634606 32.920446 
L 484.817279 37.368062 
" style="fill:none;stroke:#ffa500;stroke-linecap:square;stroke-opacity:0.9;stroke-width:1.5;"/>
   </g>
   <g id="patch_3">
    <path d="M 72.088558 178.805836 
L 72.088558 20.179111 
" style="fill:none;stroke:#000000;stroke-linecap:square;stroke-linejoin:miter;stroke-width:0.8;"/>
   </g>
   <g id="patch_4">
    <path d="M 496.252017 178.805836 
L 496.252017 20.179111 
" style="fill:none;stroke:#000000;stroke-linecap:square;stroke-linejoin:miter;stroke-width:0.8;"/>
   </g>
   <g id="patch_5">
    <path d="M 72.088558 178.805836 
L 496.252017 178.805836 
" style="fill:none;stroke:#000000;stroke-linecap:square;stroke-linejoin:miter;stroke-width:0.8;"/>
   </g>
   <g id="patch_6">
    <path d="M 72.088558 20.179111 
L 496.252017 20.179111 
" style="fill:none;stroke:#000000;stroke-linecap:square;stroke-linejoin:miter;stroke-width:0.8;"/>
   </g>
  </g>
 </g>
 <defs>
  <clipPath id="p8af98c0783">
   <rect height="158.626725" width="424.163458" x="72.088558" y="20.179111"/>
  </clipPath>
 </defs>
</svg>
