<?xml version="1.0" encoding="utf-8" standalone="no"?>
<!DOCTYPE svg PUBLIC "-//W3C//DTD SVG 1.1//EN"
  "http://www.w3.org/Graphics/SVG/1.1/DTD/svg11.dtd">
<!-- Created with matplotlib (https://matplotlib.org/) -->
<svg height="255.11811pt" version="1.1" viewBox="0 0 518.740157 255.11811" width="518.740157pt" xmlns="http://www.w3.org/2000/svg" xmlns:xlink="http://www.w3.org/1999/xlink">
 <defs>
  <style type="text/css">
*{stroke-linecap:butt;stroke-linejoin:round;}
  </style>
 </defs>
 <g id="figure_1">
  <g id="patch_1">
   <path d="M 0 255.11811 
L 518.740157 255.11811 
L 518.740157 0 
L 0 0 
z
" style="fill:#ffffff;"/>
  </g>
  <g id="axes_1">
   <g id="patch_2">
    <path d="M 72.088558 180.576996 
L 496.252017 180.576996 
L 496.252017 20.179111 
L 72.088558 20.179111 
z
" style="fill:#ffffff;"/>
   </g>
   <g id="matplotlib.axis_1">
    <g id="xtick_1">
     <g id="line2d_1">
      <defs>
       <path d="M 0 0 
L 0 3.5 
" id="m01db6ab69f" style="stroke:#000000;stroke-width:0.8;"/>
      </defs>
      <g>
       <use style="stroke:#000000;stroke-width:0.8;" x="83.079814" xlink:href="#m01db6ab69f" y="180.576996"/>
      </g>
     </g>
     <g id="text_1">
      <!-- 10 -->
      <defs>
       <path d="M 26.59375 63.796875 
C 26.59375 65.890625 26.5 66 25.09375 66 
C 21.203125 61.359375 15.296875 59.890625 9.703125 59.6875 
C 9.40625 59.6875 8.90625 59.6875 8.796875 59.5 
C 8.703125 59.296875 8.703125 59.09375 8.703125 57 
C 11.796875 57 17 57.59375 21 59.984375 
L 21 7.296875 
C 21 3.796875 20.796875 2.59375 12.203125 2.59375 
L 9.203125 2.59375 
L 9.203125 0 
C 14 0.09375 19 0.1875 23.796875 0.1875 
C 28.59375 0.1875 33.59375 0.09375 38.40625 0 
L 38.40625 2.59375 
L 35.40625 2.59375 
C 26.796875 2.59375 26.59375 3.6875 26.59375 7.296875 
z
" id="CMR17-49"/>
       <path d="M 42 31.84375 
C 42 37.96875 41.90625 48.421875 37.703125 56.453125 
C 34 63.484375 28.09375 66 22.90625 66 
C 18.09375 66 12 63.78125 8.203125 56.5625 
C 4.203125 49.015625 3.796875 39.671875 3.796875 31.84375 
C 3.796875 26.109375 3.90625 17.375 7 9.734375 
C 11.296875 -0.609375 19 -2 22.90625 -2 
C 27.5 -2 34.5 -0.109375 38.59375 9.4375 
C 41.59375 16.375 42 24.5 42 31.84375 
z
M 22.90625 -0.40625 
C 16.5 -0.40625 12.703125 5.125 11.296875 12.75 
C 10.203125 18.6875 10.203125 27.328125 10.203125 32.953125 
C 10.203125 40.6875 10.203125 47.109375 11.5 53.234375 
C 13.40625 61.78125 19 64.390625 22.90625 64.390625 
C 27 64.390625 32.296875 61.671875 34.203125 53.4375 
C 35.5 47.71875 35.59375 40.984375 35.59375 32.953125 
C 35.59375 26.421875 35.59375 18.375 34.40625 12.453125 
C 32.296875 1.5 26.40625 -0.40625 22.90625 -0.40625 
z
" id="CMR17-48"/>
      </defs>
      <g transform="translate(80.379422 206.440881)rotate(-45)scale(0.16 -0.16)">
       <use transform="scale(0.996264)" xlink:href="#CMR17-49"/>
       <use transform="translate(45.690477 0)scale(0.996264)" xlink:href="#CMR17-48"/>
      </g>
     </g>
    </g>
    <g id="xtick_2">
     <g id="line2d_2">
      <g>
       <use style="stroke:#000000;stroke-width:0.8;" x="126.48879" xlink:href="#m01db6ab69f" y="180.576996"/>
      </g>
     </g>
     <g id="text_2">
      <!-- 19 -->
      <defs>
       <path d="M 35.203125 29.234375 
C 35.203125 7 26.09375 0.390625 18.59375 0.390625 
C 16.296875 0.390625 10.703125 0.671875 8.40625 4.390625 
C 11 4 12.90625 5.390625 12.90625 7.890625 
C 12.90625 10.59375 10.703125 11.5 9.296875 11.5 
C 8.40625 11.5 5.703125 11.09375 5.703125 7.6875 
C 5.703125 1.0625 11.59375 -2 18.796875 -2 
C 30.296875 -2 42 10.390625 42 32.65625 
C 42 60.265625 30.796875 66 23.203125 66 
C 13.296875 66 3.796875 57.25 3.796875 43.75 
C 3.796875 31.25 11.90625 22 22.09375 22 
C 30.5 22 34.203125 29.84375 35.203125 33.15625 
z
M 22.296875 23.59375 
C 19.59375 23.59375 15.796875 24.09375 12.703125 30.140625 
C 10.59375 34.078125 10.59375 38.703125 10.59375 43.640625 
C 10.59375 49.59375 10.59375 53.71875 13.40625 58.15625 
C 14.796875 60.265625 17.40625 63.6875 23.203125 63.6875 
C 35 63.6875 35 45.453125 35 41.421875 
C 35 34.265625 31.796875 23.59375 22.296875 23.59375 
z
" id="CMR17-57"/>
      </defs>
      <g transform="translate(123.788398 206.440881)rotate(-45)scale(0.16 -0.16)">
       <use transform="scale(0.996264)" xlink:href="#CMR17-49"/>
       <use transform="translate(45.690477 0)scale(0.996264)" xlink:href="#CMR17-57"/>
      </g>
     </g>
    </g>
    <g id="xtick_3">
     <g id="line2d_3">
      <g>
       <use style="stroke:#000000;stroke-width:0.8;" x="173.366764" xlink:href="#m01db6ab69f" y="180.576996"/>
      </g>
     </g>
     <g id="text_3">
      <!-- 38 -->
      <defs>
       <path d="M 22.09375 34 
C 31 34 34.90625 26.140625 34.90625 17.09375 
C 34.90625 5.03125 28.5 0.390625 22.703125 0.390625 
C 17.40625 0.390625 8.796875 3.015625 6.09375 10.796875 
C 6.59375 10.59375 7.09375 10.59375 7.59375 10.59375 
C 10 10.59375 11.796875 12.1875 11.796875 14.796875 
C 11.796875 17.6875 9.59375 19 7.59375 19 
C 5.90625 19 3.296875 18.1875 3.296875 14.484375 
C 3.296875 5.234375 12.296875 -2 22.90625 -2 
C 34 -2 42.5 6.75 42.5 16.984375 
C 42.5 26.84375 34.5 34 25 35.09375 
C 32.59375 36.671875 39.90625 43.375 39.90625 52.390625 
C 39.90625 60.25 32 66 23 66 
C 13.90625 66 5.90625 60.34375 5.90625 52.296875 
C 5.90625 48.796875 8.5 48.1875 9.796875 48.1875 
C 11.90625 48.1875 13.703125 49.484375 13.703125 52.09375 
C 13.703125 54.6875 11.90625 56 9.796875 56 
C 9.40625 56 8.90625 56 8.5 55.796875 
C 11.40625 62.484375 19.296875 63.6875 22.796875 63.6875 
C 26.296875 63.6875 32.90625 61.96875 32.90625 52.296875 
C 32.90625 49.484375 32.5 44.546875 29.09375 40.21875 
C 26.09375 36.390625 22.703125 36.1875 19.40625 35.890625 
C 18.90625 35.890625 16.59375 35.6875 16.203125 35.6875 
C 15.5 35.59375 15.09375 35.5 15.09375 34.796875 
C 15.09375 34.09375 15.203125 34 17.203125 34 
z
" id="CMR17-51"/>
       <path d="M 27.203125 35.765625 
C 33.5 38.96875 39.90625 43.796875 39.90625 51.53125 
C 39.90625 60.6875 31.09375 66 23 66 
C 13.90625 66 5.90625 59.375 5.90625 50.234375 
C 5.90625 47.71875 6.5 43.390625 10.40625 39.578125 
C 11.40625 38.578125 15.59375 35.5625 18.296875 33.65625 
C 13.796875 31.34375 3.296875 25.8125 3.296875 14.765625 
C 3.296875 4.40625 13.09375 -2 22.796875 -2 
C 33.5 -2 42.5 5.71875 42.5 15.96875 
C 42.5 25.109375 36.40625 29.328125 32.40625 32.046875 
z
M 14.09375 44.609375 
C 13.296875 45.109375 9.296875 48.21875 9.296875 52.9375 
C 9.296875 59.078125 15.59375 63.6875 22.796875 63.6875 
C 30.703125 63.6875 36.5 58.0625 36.5 51.53125 
C 36.5 42.1875 26.09375 36.859375 25.59375 36.859375 
C 25.5 36.859375 25.40625 36.859375 24.59375 37.46875 
z
M 32.5 24 
C 34 22.90625 38.796875 19.578125 38.796875 13.453125 
C 38.796875 6.015625 31.40625 0.390625 23 0.390625 
C 13.90625 0.390625 7 6.921875 7 14.859375 
C 7 22.796875 13.09375 29.4375 20 32.546875 
z
" id="CMR17-56"/>
      </defs>
      <g transform="translate(170.666372 206.440881)rotate(-45)scale(0.16 -0.16)">
       <use transform="scale(0.996264)" xlink:href="#CMR17-51"/>
       <use transform="translate(45.690477 0)scale(0.996264)" xlink:href="#CMR17-56"/>
      </g>
     </g>
    </g>
    <g id="xtick_4">
     <g id="line2d_4">
      <g>
       <use style="stroke:#000000;stroke-width:0.8;" x="220.244738" xlink:href="#m01db6ab69f" y="180.576996"/>
      </g>
     </g>
     <g id="text_4">
      <!-- 76 -->
      <defs>
       <path d="M 45.09375 61.796875 
L 45.09375 64 
L 21.59375 64 
C 9.90625 64 9.703125 65.09375 9.296875 67 
L 7.5 67 
L 4.59375 48.5 
L 6.40625 48.5 
C 6.703125 50.40625 7.40625 55.5 8.59375 57.390625 
C 9.203125 58.1875 16.59375 58.1875 18.296875 58.1875 
L 40.296875 58.1875 
L 29.203125 41.71875 
C 21.796875 30.640625 16.703125 15.671875 16.703125 2.59375 
C 16.703125 1.390625 16.703125 -2 20.296875 -2 
C 23.90625 -2 23.90625 1.390625 23.90625 2.6875 
L 23.90625 7.28125 
C 23.90625 23.65625 26.703125 34.4375 31.296875 41.3125 
z
" id="CMR17-55"/>
       <path d="M 10.59375 34.34375 
C 10.59375 58 21.796875 63.6875 28.296875 63.6875 
C 30.40625 63.6875 35.5 63.265625 37.5 59.09375 
C 35.90625 59.09375 32.90625 59.09375 32.90625 55.59375 
C 32.90625 52.890625 35.09375 52 36.5 52 
C 37.40625 52 40.09375 52.390625 40.09375 55.796875 
C 40.09375 62.296875 35.09375 66 28.203125 66 
C 16.296875 66 3.796875 53.296875 3.796875 31.421875 
C 3.796875 4.015625 15.09375 -2 23.09375 -2 
C 32.796875 -2 42 6.734375 42 20.234375 
C 42 32.828125 33.90625 42 23.703125 42 
C 17.59375 42 13.09375 37.96875 10.59375 30.921875 
z
M 23.09375 0.390625 
C 10.796875 0.390625 10.796875 18.9375 10.796875 22.65625 
C 10.796875 29.90625 14.203125 40.390625 23.5 40.390625 
C 25.203125 40.390625 30.09375 40.390625 33.40625 33.4375 
C 35.203125 29.515625 35.203125 25.375 35.203125 20.34375 
C 35.203125 14.90625 35.203125 10.875 33.09375 6.84375 
C 30.90625 2.703125 27.703125 0.390625 23.09375 0.390625 
z
" id="CMR17-54"/>
      </defs>
      <g transform="translate(217.544346 206.440881)rotate(-45)scale(0.16 -0.16)">
       <use transform="scale(0.996264)" xlink:href="#CMR17-55"/>
       <use transform="translate(45.690477 0)scale(0.996264)" xlink:href="#CMR17-54"/>
      </g>
     </g>
    </g>
    <g id="xtick_5">
     <g id="line2d_5">
      <g>
       <use style="stroke:#000000;stroke-width:0.8;" x="267.122711" xlink:href="#m01db6ab69f" y="180.576996"/>
      </g>
     </g>
     <g id="text_5">
      <!-- 152 -->
      <defs>
       <path d="M 11.40625 58.59375 
C 12.40625 58.1875 16.5 56.890625 20.703125 56.890625 
C 30 56.890625 35.09375 61.890625 38 64.6875 
C 38 65.484375 38 66 37.40625 66 
C 37.296875 66 37.09375 66 36.296875 65.59375 
C 32.796875 64.09375 28.703125 63 23.703125 63 
C 20.703125 63 16.203125 63.359375 11.296875 65.484375 
C 10.203125 66 10 66 9.90625 66 
C 9.40625 66 9.296875 65.890625 9.296875 63.90625 
L 9.296875 34.859375 
C 9.296875 33.015625 9.296875 32.5 10.296875 32.5 
C 10.796875 32.5 11 32.703125 11.5 33.421875 
C 14.703125 38.046875 19.09375 40 24.09375 40 
C 27.59375 40 35.09375 37.734375 35.09375 20.203125 
C 35.09375 16.984375 35.09375 11.1875 32.09375 6.59375 
C 29.59375 2.484375 25.703125 0.390625 21.40625 0.390625 
C 14.796875 0.390625 8.09375 4.984375 6.296875 12.6875 
C 6.703125 12.59375 7.5 12.390625 7.90625 12.390625 
C 9.203125 12.390625 11.703125 13.09375 11.703125 16.1875 
C 11.703125 18.890625 9.796875 20 7.90625 20 
C 5.59375 20 4.09375 18.59375 4.09375 15.796875 
C 4.09375 7.09375 11 -2 21.59375 -2 
C 31.90625 -2 41.703125 6.890625 41.703125 19.796875 
C 41.703125 32.09375 33.90625 41.59375 24.203125 41.59375 
C 19.09375 41.59375 14.796875 39.6875 11.40625 36 
z
" id="CMR17-53"/>
       <path d="M 41.703125 15.46875 
L 39.90625 15.46875 
C 38.90625 8.390625 38.09375 7.1875 37.703125 6.59375 
C 37.203125 5.796875 30 5.796875 28.59375 5.796875 
L 9.40625 5.796875 
C 13 9.6875 20 16.765625 28.5 24.9375 
C 34.59375 30.71875 41.703125 37.5 41.703125 47.390625 
C 41.703125 59.1875 32.296875 66 21.796875 66 
C 10.796875 66 4.09375 56.296875 4.09375 47.296875 
C 4.09375 43.390625 7 42.890625 8.203125 42.890625 
C 9.203125 42.890625 12.203125 43.484375 12.203125 46.984375 
C 12.203125 50.09375 9.59375 51 8.203125 51 
C 7.59375 51 7 50.890625 6.59375 50.6875 
C 8.5 59.1875 14.296875 63.390625 20.40625 63.390625 
C 29.09375 63.390625 34.796875 56.5 34.796875 47.390625 
C 34.796875 38.703125 29.703125 31.21875 24 24.734375 
L 4.09375 2.296875 
L 4.09375 0 
L 39.296875 0 
z
" id="CMR17-50"/>
      </defs>
      <g transform="translate(261.663193 211.959133)rotate(-45)scale(0.16 -0.16)">
       <use transform="scale(0.996264)" xlink:href="#CMR17-49"/>
       <use transform="translate(45.690477 0)scale(0.996264)" xlink:href="#CMR17-53"/>
       <use transform="translate(91.380954 0)scale(0.996264)" xlink:href="#CMR17-50"/>
      </g>
     </g>
    </g>
    <g id="xtick_6">
     <g id="line2d_6">
      <g>
       <use style="stroke:#000000;stroke-width:0.8;" x="314.000685" xlink:href="#m01db6ab69f" y="180.576996"/>
      </g>
     </g>
     <g id="text_6">
      <!-- 304 -->
      <defs>
       <path d="M 33.59375 64.796875 
C 33.59375 66.890625 33.5 67 31.703125 67 
L 2 19.59375 
L 2 17 
L 27.796875 17 
L 27.796875 7.1875 
C 27.796875 3.59375 27.59375 2.59375 20.59375 2.59375 
L 18.703125 2.59375 
L 18.703125 0 
C 21.90625 0.1875 27.296875 0.1875 30.703125 0.1875 
C 34.09375 0.1875 39.5 0.1875 42.703125 0 
L 42.703125 2.59375 
L 40.796875 2.59375 
C 33.796875 2.59375 33.59375 3.59375 33.59375 7.1875 
L 33.59375 17 
L 43.796875 17 
L 43.796875 19.59375 
L 33.59375 19.59375 
z
M 28.09375 58.171875 
L 28.09375 19.59375 
L 4 19.59375 
z
" id="CMR17-52"/>
      </defs>
      <g transform="translate(308.541167 211.959133)rotate(-45)scale(0.16 -0.16)">
       <use transform="scale(0.996264)" xlink:href="#CMR17-51"/>
       <use transform="translate(45.690477 0)scale(0.996264)" xlink:href="#CMR17-48"/>
       <use transform="translate(91.380954 0)scale(0.996264)" xlink:href="#CMR17-52"/>
      </g>
     </g>
    </g>
    <g id="xtick_7">
     <g id="line2d_7">
      <g>
       <use style="stroke:#000000;stroke-width:0.8;" x="360.878659" xlink:href="#m01db6ab69f" y="180.576996"/>
      </g>
     </g>
     <g id="text_7">
      <!-- 608 -->
      <g transform="translate(355.419141 211.959133)rotate(-45)scale(0.16 -0.16)">
       <use transform="scale(0.996264)" xlink:href="#CMR17-54"/>
       <use transform="translate(45.690477 0)scale(0.996264)" xlink:href="#CMR17-48"/>
       <use transform="translate(91.380954 0)scale(0.996264)" xlink:href="#CMR17-56"/>
      </g>
     </g>
    </g>
    <g id="xtick_8">
     <g id="line2d_8">
      <g>
       <use style="stroke:#000000;stroke-width:0.8;" x="407.756632" xlink:href="#m01db6ab69f" y="180.576996"/>
      </g>
     </g>
     <g id="text_8">
      <!-- 1216 -->
      <g transform="translate(399.537988 217.477385)rotate(-45)scale(0.16 -0.16)">
       <use transform="scale(0.996264)" xlink:href="#CMR17-49"/>
       <use transform="translate(45.690477 0)scale(0.996264)" xlink:href="#CMR17-50"/>
       <use transform="translate(91.380954 0)scale(0.996264)" xlink:href="#CMR17-49"/>
       <use transform="translate(137.071431 0)scale(0.996264)" xlink:href="#CMR17-54"/>
      </g>
     </g>
    </g>
    <g id="xtick_9">
     <g id="line2d_9">
      <g>
       <use style="stroke:#000000;stroke-width:0.8;" x="454.634606" xlink:href="#m01db6ab69f" y="180.576996"/>
      </g>
     </g>
     <g id="text_9">
      <!-- 2432 -->
      <g transform="translate(446.415962 217.477385)rotate(-45)scale(0.16 -0.16)">
       <use transform="scale(0.996264)" xlink:href="#CMR17-50"/>
       <use transform="translate(45.690477 0)scale(0.996264)" xlink:href="#CMR17-52"/>
       <use transform="translate(91.380954 0)scale(0.996264)" xlink:href="#CMR17-51"/>
       <use transform="translate(137.071431 0)scale(0.996264)" xlink:href="#CMR17-50"/>
      </g>
     </g>
    </g>
    <g id="xtick_10">
     <g id="line2d_10">
      <g>
       <use style="stroke:#000000;stroke-width:0.8;" x="484.817279" xlink:href="#m01db6ab69f" y="180.576996"/>
      </g>
     </g>
     <g id="text_10">
      <!-- 3800 -->
      <g transform="translate(476.598635 217.477385)rotate(-45)scale(0.16 -0.16)">
       <use transform="scale(0.996264)" xlink:href="#CMR17-51"/>
       <use transform="translate(45.690477 0)scale(0.996264)" xlink:href="#CMR17-56"/>
       <use transform="translate(91.380954 0)scale(0.996264)" xlink:href="#CMR17-48"/>
       <use transform="translate(137.071431 0)scale(0.996264)" xlink:href="#CMR17-48"/>
      </g>
     </g>
    </g>
    <g id="text_11">
     <!-- \textbf{Number of Annotated Training Images} -->
     <defs>
      <path d="M 29 67.796875 
C 28 68.890625 27.90625 69 25.90625 69 
L 3.796875 69 
L 3.796875 64.6875 
L 14.40625 64.6875 
L 14.40625 7.3125 
C 14.40625 5.09375 14.296875 5 11.703125 4.59375 
C 9.90625 4.390625 7.90625 4.296875 6.09375 4.296875 
L 3.796875 4.296875 
L 3.796875 0 
C 6.09375 0.1875 13.90625 0.1875 16.703125 0.1875 
C 19.5 0.1875 27.40625 0.1875 29.703125 0 
L 29.703125 4.296875 
L 27.40625 4.296875 
C 24.703125 4.296875 24.5 4.296875 22.09375 4.59375 
C 19.203125 5 19.09375 5.09375 19.09375 7.3125 
L 19.09375 61.265625 
L 68.59375 1.296875 
C 69.703125 0.09375 69.796875 0 71.09375 0 
C 73.5 0 73.5 0.59375 73.5 2.890625 
L 73.5 61.671875 
C 73.5 63.890625 73.59375 63.984375 76.203125 64.390625 
C 78 64.59375 80 64.6875 81.796875 64.6875 
L 84.09375 64.6875 
L 84.09375 69 
C 81.796875 68.796875 74 68.796875 71.203125 68.796875 
C 68.40625 68.796875 60.5 68.796875 58.203125 69 
L 58.203125 64.6875 
L 60.5 64.6875 
C 63.203125 64.6875 63.40625 64.6875 65.796875 64.390625 
C 68.703125 63.984375 68.796875 63.890625 68.796875 61.671875 
L 68.796875 19.59375 
z
" id="CMBX12-78"/>
      <path d="M 35.296875 44.1875 
L 35.296875 39.890625 
C 41.5 39.890625 42.203125 39.890625 42.203125 35.953125 
L 42.203125 16.140625 
C 42.203125 8.453125 37.703125 2.296875 29.90625 2.296875 
C 22.40625 2.296875 22 4.8125 22 10.375 
L 22 45 
L 4.203125 44.1875 
L 4.203125 39.890625 
C 10.40625 39.890625 11.09375 39.890625 11.09375 35.953125 
L 11.09375 12 
C 11.09375 1.890625 17.796875 -1 28.5 -1 
C 30.90625 -1 38.296875 -1 42.59375 7.140625 
L 42.703125 7.140625 
L 42.703125 -1 
L 60 -0.40625 
L 60 3.90625 
C 53.796875 3.90625 53.09375 3.90625 53.09375 7.84375 
L 53.09375 45 
z
" id="CMBX12-117"/>
      <path d="M 84.40625 30.59375 
C 84.40625 39.796875 80.5 45 69.296875 45 
C 59.203125 45 54.5 38.1875 52.90625 35 
C 51.296875 43.484375 44.5 45 38.09375 45 
C 28.5 45 23.296875 38.796875 21.203125 34 
L 21.09375 34 
L 21.09375 45 
L 4.203125 44.1875 
L 4.203125 39.890625 
C 10.40625 39.890625 11.09375 39.890625 11.09375 36 
L 11.09375 4.296875 
L 4.203125 4.296875 
L 4.203125 0 
C 6.5 0.1875 13.703125 0.1875 16.5 0.1875 
C 19.296875 0.1875 26.59375 0.1875 28.90625 0 
L 28.90625 4.296875 
L 22 4.296875 
L 22 25.59375 
C 22 36.5 30.09375 41.6875 36.40625 41.6875 
C 40.09375 41.6875 42.296875 39.5 42.296875 31.6875 
L 42.296875 4.296875 
L 35.40625 4.296875 
L 35.40625 0 
C 37.703125 0.1875 44.90625 0.1875 47.703125 0.1875 
C 50.5 0.1875 57.796875 0.1875 60.09375 0 
L 60.09375 4.296875 
L 53.203125 4.296875 
L 53.203125 25.59375 
C 53.203125 36.5 61.296875 41.6875 67.59375 41.6875 
C 71.296875 41.6875 73.5 39.5 73.5 31.6875 
L 73.5 4.296875 
L 66.59375 4.296875 
L 66.59375 0 
C 68.90625 0.1875 76.09375 0.1875 78.90625 0.1875 
C 81.703125 0.1875 89 0.1875 91.296875 0 
L 91.296875 4.296875 
L 84.40625 4.296875 
z
" id="CMBX12-109"/>
      <path d="M 20.796875 70 
L 3.5 69.1875 
L 3.5 64.890625 
C 9.703125 64.890625 10.40625 64.890625 10.40625 60.875 
L 10.40625 -0.40625 
L 14.59375 -0.40625 
C 16.296875 1.5 18 3.40625 19.59375 5.421875 
C 24.703125 0.09375 30.203125 -1 34.203125 -1 
C 48 -1 58.59375 7.4375 58.59375 22.09375 
C 58.59375 35.9375 49.203125 45 35.5 45 
C 29.59375 45 24.90625 43.09375 20.796875 39.875 
z
M 21.296875 35.03125 
C 24.796875 39.875 30 41.6875 34.203125 41.6875 
C 46.59375 41.6875 46.59375 28.859375 46.59375 22.1875 
C 46.59375 17.65625 46.59375 11.890625 44.203125 8.15625 
C 41.09375 3.296875 36.40625 2.296875 33.203125 2.296875 
C 26.40625 2.296875 22.703125 7.140625 21.296875 9.359375 
z
" id="CMBX12-98"/>
      <path d="M 45.203125 22 
C 47.5 22 48.09375 22 48.09375 24.5 
C 48.09375 27.46875 47.40625 34.875 42.796875 39.515625 
C 38.59375 43.6875 33 45 27.203125 45 
C 11.59375 45 3.09375 34.875 3.09375 22.390625 
C 3.09375 8.171875 13.40625 -1 28.5 -1 
C 43.59375 -1 48.09375 9.703125 48.09375 11.421875 
C 48.09375 12.953125 46.59375 12.953125 46 12.953125 
C 44.40625 12.953125 44.296875 12.640625 43.703125 11.328125 
C 41.09375 4.71875 34.5 2.59375 29.703125 2.59375 
C 15.203125 2.59375 15.09375 16.296875 15.09375 22 
z
M 15.09375 24.890625 
C 15.296875 28.9375 15.40625 32.796875 17.5 36.359375 
C 19.40625 39.515625 22.90625 41.6875 27.203125 41.6875 
C 37.90625 41.6875 38.796875 29.828125 38.90625 24.890625 
z
" id="CMBX12-101"/>
      <path d="M 20.796875 22.5 
C 20.796875 25.796875 21.5 41.6875 33.203125 41.6875 
C 31.796875 40.59375 31.09375 38.890625 31.09375 37.09375 
C 31.09375 33 34.40625 31.296875 36.90625 31.296875 
C 39.40625 31.296875 42.703125 33 42.703125 37.09375 
C 42.703125 42.1875 37.5 45 32.703125 45 
C 24.796875 45 21.40625 38.09375 20 33.890625 
L 19.90625 33.890625 
L 19.90625 45 
L 3.5 44.1875 
L 3.5 39.890625 
C 9.703125 39.890625 10.40625 39.890625 10.40625 36 
L 10.40625 4.296875 
L 3.5 4.296875 
L 3.5 0 
C 5.796875 0.1875 13.296875 0.1875 16.09375 0.1875 
C 19 0.1875 27.09375 0.1875 29.5 0 
L 29.5 4.296875 
L 20.796875 4.296875 
z
" id="CMBX12-114"/>
      <path d="M 53 21.546875 
C 53 35.078125 43.796875 45 28.09375 45 
C 11.796875 45 3.09375 34.578125 3.09375 21.546875 
C 3.09375 8.40625 12.296875 -1 28 -1 
C 44.296875 -1 53 8.90625 53 21.546875 
z
M 28.09375 2.59375 
C 15.09375 2.59375 15.09375 14.328125 15.09375 22.546875 
C 15.09375 27.25 15.09375 32.265625 17 35.875 
C 19.203125 39.890625 23.703125 41.6875 28 41.6875 
C 33.703125 41.6875 37.296875 38.984375 39 36.171875 
C 41 32.5625 41 27.359375 41 22.546875 
C 41 14.21875 41 2.59375 28.09375 2.59375 
z
" id="CMBX12-111"/>
      <path d="M 21.703125 39.6875 
L 33.09375 39.6875 
L 33.09375 44 
L 21.203125 44 
L 21.203125 54.15625 
C 21.203125 64.40625 27.796875 66 31.09375 66 
C 32.203125 66 32.40625 65.890625 33 65.6875 
C 31.5 64.703125 30.59375 63.03125 30.59375 60.953125 
C 30.59375 57.015625 33.796875 55.234375 36.40625 55.234375 
C 38.59375 55.234375 42.203125 56.71875 42.203125 61.0625 
C 42.203125 65.109375 38.59375 69.296875 31.5 69.296875 
C 22.40625 69.296875 11.296875 65.5 11.296875 54.046875 
L 11.296875 44 
L 3.90625 44 
L 3.90625 39.6875 
L 11.296875 39.6875 
L 11.296875 4.296875 
L 4.40625 4.296875 
L 4.40625 0 
C 6.703125 0.1875 14.203125 0.1875 17 0.1875 
C 19.90625 0.1875 28 0.1875 30.40625 0 
L 30.40625 4.296875 
L 21.703125 4.296875 
z
" id="CMBX12-102"/>
      <path d="M 45.796875 67.703125 
C 45.09375 69.5 44.90625 70 42.5 70 
C 40 70 39.796875 69.5 39.09375 67.703125 
L 14.296875 6.703125 
C 13.59375 5.09375 13.59375 4.890625 10.796875 4.59375 
C 8.296875 4.296875 7.90625 4.296875 5.703125 4.296875 
L 3.90625 4.296875 
L 3.90625 0 
C 6.5 0.1875 12.5 0.1875 15.40625 0.1875 
C 18.09375 0.1875 25.40625 0.1875 27.703125 0 
L 27.703125 4.296875 
C 25.5 4.296875 21.703125 4.296875 18.90625 5.40625 
C 19.203125 6.3125 19.203125 6.5 19.40625 6.90625 
L 24.703125 20 
L 51.5 20 
L 57.796875 4.296875 
L 48.40625 4.296875 
L 48.40625 0 
C 51.59375 0.1875 61.296875 0.1875 65.09375 0.1875 
C 68.296875 0.1875 78.5 0.1875 81 0 
L 81 4.296875 
L 71.5 4.296875 
z
M 38.09375 53.03125 
L 49.703125 24.296875 
L 26.40625 24.296875 
z
" id="CMBX12-65"/>
      <path d="M 53.09375 30.59375 
C 53.09375 40.09375 49 45 38 45 
C 30.796875 45 24.59375 41.5 21.203125 34 
L 21.09375 34 
L 21.09375 45 
L 4.203125 44.1875 
L 4.203125 39.890625 
C 10.40625 39.890625 11.09375 39.890625 11.09375 36 
L 11.09375 4.296875 
L 4.203125 4.296875 
L 4.203125 0 
C 6.5 0.1875 13.703125 0.1875 16.5 0.1875 
C 19.296875 0.1875 26.59375 0.1875 28.90625 0 
L 28.90625 4.296875 
L 22 4.296875 
L 22 25.59375 
C 22 36.390625 30 41.6875 36.40625 41.6875 
C 40.09375 41.6875 42.203125 39.296875 42.203125 31.6875 
L 42.203125 4.296875 
L 35.296875 4.296875 
L 35.296875 0 
C 37.59375 0.1875 44.796875 0.1875 47.59375 0.1875 
C 50.40625 0.1875 57.703125 0.1875 60 0 
L 60 4.296875 
L 53.09375 4.296875 
z
" id="CMBX12-110"/>
      <path d="M 21.09375 39.6875 
L 35.5 39.6875 
L 35.5 44 
L 21.09375 44 
L 21.09375 63 
L 16.90625 63 
C 16.796875 53.140625 12 43.296875 2.09375 42.984375 
L 2.09375 39.6875 
L 10.203125 39.6875 
L 10.203125 11.890625 
C 10.203125 1.296875 18.40625 -1 25.59375 -1 
C 33 -1 37.40625 4.59375 37.40625 12 
L 37.40625 17.296875 
L 33.203125 17.296875 
L 33.203125 12.09375 
C 33.203125 5.5 30.203125 2.59375 27.09375 2.59375 
C 21.09375 2.59375 21.09375 9.296875 21.09375 11.59375 
z
" id="CMBX12-116"/>
      <path d="M 46 29.59375 
C 46 38.796875 38.703125 45 24.59375 45 
C 19 45 7.203125 44.484375 7.203125 36.09375 
C 7.203125 31.890625 10.40625 30.09375 13.09375 30.09375 
C 16.09375 30.09375 19 32.1875 19 35.984375 
C 19 37.890625 18.296875 39.6875 16.59375 40.796875 
C 19.90625 41.6875 22.296875 41.6875 24.203125 41.6875 
C 31 41.6875 35.09375 37.890625 35.09375 29.6875 
L 35.09375 25.6875 
C 19.296875 25.6875 3.40625 21.28125 3.40625 10.125 
C 3.40625 1 15 -1 21.90625 -1 
C 29.59375 -1 34.5 3.203125 36.5 7.625 
C 36.5 3.90625 36.5 -0.40625 46.59375 -0.40625 
L 51.703125 -0.40625 
C 53.796875 -0.40625 54.59375 -0.40625 54.59375 1.796875 
C 54.59375 3.90625 53.703125 3.90625 52.296875 3.90625 
C 46 4 46 5.609375 46 7.921875 
z
M 35.09375 13.546875 
C 35.09375 4.09375 26.703125 2.296875 23.5 2.296875 
C 18.59375 2.296875 14.5 5.609375 14.5 10.234375 
C 14.5 19.375 25.296875 22.484375 35.09375 23 
z
" id="CMBX12-97"/>
      <path d="M 34.703125 69.1875 
L 34.703125 64.890625 
C 40.90625 64.890625 41.59375 64.890625 41.59375 60.875 
L 41.59375 40.171875 
C 39.40625 42.09375 35 45 28.09375 45 
C 13.90625 45 3.796875 36.140625 3.796875 22 
C 3.796875 7.546875 13.703125 -1 27 -1 
C 32.5 -1 37.203125 0.890625 41.09375 4.21875 
L 41.09375 -1 
L 58.90625 -0.40625 
L 58.90625 3.90625 
C 52.703125 3.90625 52 3.90625 52 7.84375 
L 52 70 
z
M 41.09375 9.765625 
C 36.90625 3.609375 31.796875 2.296875 28.203125 2.296875 
C 15.796875 2.296875 15.796875 15.125 15.796875 21.796875 
C 15.796875 26.546875 15.796875 31.59375 18 35.4375 
C 21.09375 41.09375 27 41.6875 29.296875 41.6875 
C 33.40625 41.6875 37.796875 39.875 41.09375 35.4375 
z
" id="CMBX12-100"/>
      <path d="M 72 68.09375 
L 6.09375 68.09375 
L 4.09375 44.265625 
L 8.296875 44.265625 
C 9.203125 55.234375 10 63.796875 24.40625 63.796875 
L 32.5 63.796875 
L 32.5 4.296875 
L 17.40625 4.296875 
L 17.40625 0 
C 25.40625 0.1875 35.703125 0.1875 39.09375 0.1875 
C 45.203125 0.1875 52.796875 0.1875 60.796875 0 
L 60.796875 4.296875 
L 45.703125 4.296875 
L 45.703125 63.796875 
L 53.703125 63.796875 
C 68.09375 63.796875 68.90625 55.34375 69.796875 44.265625 
L 74 44.265625 
z
" id="CMBX12-84"/>
      <path d="M 22.296875 62.796875 
C 22.296875 66.890625 19 70 15.09375 70 
C 11 70 7.90625 66.59375 7.90625 62.796875 
C 7.90625 58.984375 11 55.59375 15.09375 55.59375 
C 19 55.59375 22.296875 58.6875 22.296875 62.796875 
z
M 4.703125 44.1875 
L 4.703125 39.890625 
C 10.59375 39.890625 11.296875 39.890625 11.296875 35.984375 
L 11.296875 4.296875 
L 4.40625 4.296875 
L 4.40625 0 
C 6.703125 0.1875 13.59375 0.1875 16.296875 0.1875 
C 19.09375 0.1875 25.5 0.1875 27.90625 0 
L 27.90625 4.296875 
L 21.703125 4.296875 
L 21.703125 45 
z
" id="CMBX12-105"/>
      <path d="M 13 18.390625 
C 17.796875 15.796875 23.40625 15.796875 24.90625 15.796875 
C 38.703125 15.796875 44.203125 23.53125 44.203125 30.59375 
C 44.203125 35.734375 41.296875 39.359375 40.09375 40.375 
C 43 41.984375 45.40625 42.390625 47.09375 42.59375 
C 46.796875 42.09375 46.5 41.6875 46.5 40.375 
C 46.5 38.25 47.90625 36.34375 50.5 36.34375 
C 53.09375 36.34375 54.5 38.25 54.5 40.375 
C 54.5 42.796875 52.703125 46 48.5 46 
C 44.203125 46 40.09375 43.890625 38 42.09375 
C 33.90625 44.484375 30 45.390625 24.90625 45.390625 
C 11.09375 45.390625 5.59375 37.65625 5.59375 30.59375 
C 5.59375 27.46875 6.59375 23.328125 10.796875 19.90625 
C 9.09375 17.984375 7.296875 14.46875 7.296875 10.828125 
C 7.296875 6.5 9.59375 2.796875 11.703125 1.1875 
C 9.296875 0.59375 3.09375 -1.703125 3.09375 -7.40625 
C 3.09375 -13.3125 9.59375 -20 28 -20 
C 44.59375 -20 53 -14.609375 53 -7.109375 
C 53 1.6875 47.203125 4.59375 44.703125 5.796875 
C 39.90625 8.1875 33.5 8.1875 24.703125 8.1875 
C 22.203125 8.1875 17.796875 8.1875 17.296875 8.296875 
C 13 9 11.796875 12.859375 11.796875 14.78125 
C 11.796875 15.59375 11.90625 17.09375 13 18.390625 
z
M 24.90625 19 
C 16.203125 19 16.203125 25.953125 16.203125 30.59375 
C 16.203125 35.234375 16.203125 42.1875 24.90625 42.1875 
C 33.59375 42.1875 33.59375 35.234375 33.59375 30.59375 
C 33.59375 25.953125 33.59375 19 24.90625 19 
z
M 30.5 -1 
C 37.796875 -1 44.796875 -2.3125 44.796875 -7.5 
C 44.796875 -11 41.296875 -16.8125 28.09375 -16.8125 
C 14.90625 -16.8125 11.296875 -11.203125 11.296875 -7.40625 
C 11.296875 -1 17.59375 -1 19.09375 -1 
z
" id="CMBX12-103"/>
      <path d="M 27.5 64.6875 
L 38.703125 64.6875 
L 38.703125 69 
C 35.09375 68.796875 25.09375 68.796875 20.90625 68.796875 
C 16.703125 68.796875 6.703125 68.796875 3.09375 69 
L 3.09375 64.6875 
L 14.296875 64.6875 
L 14.296875 4.296875 
L 3.09375 4.296875 
L 3.09375 0 
C 6.703125 0.1875 16.703125 0.1875 20.90625 0.1875 
C 25.09375 0.1875 35.09375 0.1875 38.703125 0 
L 38.703125 4.296875 
L 27.5 4.296875 
z
" id="CMBX12-73"/>
      <path d="M 37.703125 42.390625 
C 37.703125 44.296875 37.703125 45 36.203125 45 
C 35.59375 45 35.40625 45 33.90625 44.09375 
C 33.5 43.796875 32.40625 43.09375 31.90625 42.796875 
C 29.09375 44.390625 25.40625 45 21.796875 45 
C 18.796875 45 3.796875 45 3.796875 31.96875 
C 3.796875 21.4375 16.203125 19.234375 19.296875 18.734375 
C 22 18.234375 25.296875 17.625 25.703125 17.625 
C 29.703125 16.734375 33.703125 14.21875 33.703125 10.015625 
C 33.703125 2.296875 24.59375 2.296875 22.5 2.296875 
C 17.40625 2.296875 11.09375 3.890625 8.296875 13.625 
C 7.703125 15.625 7.59375 15.71875 5.90625 15.71875 
C 3.796875 15.71875 3.796875 15.421875 3.796875 13.125 
L 3.796875 1.59375 
C 3.796875 -0.3125 3.796875 -1 5.296875 -1 
C 6 -1 6.203125 -1 8.203125 0.59375 
L 10.796875 2.5 
C 15.296875 -1 20.703125 -1 22.5 -1 
C 28 -1 40.5 0.1875 40.5 13.515625 
C 40.5 18.328125 37.90625 21.640625 35.90625 23.4375 
C 31.796875 26.859375 28.40625 27.453125 23 28.453125 
C 16.59375 29.5625 10.59375 30.65625 10.59375 35.46875 
C 10.59375 41.984375 19.5 41.984375 21.59375 41.984375 
C 32.703125 41.984375 33.296875 34.96875 33.5 32.46875 
C 33.59375 31.171875 34.40625 31.171875 35.59375 31.171875 
C 37.703125 31.171875 37.703125 31.46875 37.703125 33.765625 
z
" id="CMBX12-115"/>
     </defs>
     <g transform="translate(130.954054 234.738634)scale(0.16 -0.16)">
      <use transform="scale(0.996264)" xlink:href="#CMBX12-78"/>
      <use transform="translate(87.634475 0)scale(0.996264)" xlink:href="#CMBX12-117"/>
      <use transform="translate(149.900976 0)scale(0.996264)" xlink:href="#CMBX12-109"/>
      <use transform="translate(240.187401 0)scale(0.996264)" xlink:href="#CMBX12-98"/>
      <use transform="translate(305.567227 0)scale(0.996264)" xlink:href="#CMBX12-101"/>
      <use transform="translate(356.706494 0)scale(0.996264)" xlink:href="#CMBX12-114"/>
      <use transform="translate(439.843902 0)scale(0.996264)" xlink:href="#CMBX12-111"/>
      <use transform="translate(495.883753 0)scale(0.996264)" xlink:href="#CMBX12-102"/>
      <use transform="translate(567.490228 0)scale(0.996264)" xlink:href="#CMBX12-65"/>
      <use transform="translate(652.126623 0)scale(0.996264)" xlink:href="#CMBX12-110"/>
      <use transform="translate(714.393124 0)scale(0.996264)" xlink:href="#CMBX12-110"/>
      <use transform="translate(776.659624 0)scale(0.996264)" xlink:href="#CMBX12-111"/>
      <use transform="translate(832.699475 0)scale(0.996264)" xlink:href="#CMBX12-116"/>
      <use transform="translate(876.286025 0)scale(0.996264)" xlink:href="#CMBX12-97"/>
      <use transform="translate(930.769213 0)scale(0.996264)" xlink:href="#CMBX12-116"/>
      <use transform="translate(974.355764 0)scale(0.996264)" xlink:href="#CMBX12-101"/>
      <use transform="translate(1025.495031 0)scale(0.996264)" xlink:href="#CMBX12-100"/>
      <use transform="translate(1125.121432 0)scale(0.996264)" xlink:href="#CMBX12-84"/>
      <use transform="translate(1193.729827 0)scale(0.996264)" xlink:href="#CMBX12-114"/>
      <use transform="translate(1239.507335 0)scale(0.996264)" xlink:href="#CMBX12-97"/>
      <use transform="translate(1293.990523 0)scale(0.996264)" xlink:href="#CMBX12-105"/>
      <use transform="translate(1325.123773 0)scale(0.996264)" xlink:href="#CMBX12-110"/>
      <use transform="translate(1387.390274 0)scale(0.996264)" xlink:href="#CMBX12-105"/>
      <use transform="translate(1418.523524 0)scale(0.996264)" xlink:href="#CMBX12-110"/>
      <use transform="translate(1480.790024 0)scale(0.996264)" xlink:href="#CMBX12-103"/>
      <use transform="translate(1574.189775 0)scale(0.996264)" xlink:href="#CMBX12-73"/>
      <use transform="translate(1615.931483 0)scale(0.996264)" xlink:href="#CMBX12-109"/>
      <use transform="translate(1709.331234 0)scale(0.996264)" xlink:href="#CMBX12-97"/>
      <use transform="translate(1763.814422 0)scale(0.996264)" xlink:href="#CMBX12-103"/>
      <use transform="translate(1819.854273 0)scale(0.996264)" xlink:href="#CMBX12-101"/>
      <use transform="translate(1870.99354 0)scale(0.996264)" xlink:href="#CMBX12-115"/>
     </g>
    </g>
   </g>
   <g id="matplotlib.axis_2">
    <g id="ytick_1">
     <g id="line2d_11">
      <path clip-path="url(#p941ad99cdf)" d="M 72.088558 137.343915 
L 496.252017 137.343915 
" style="fill:none;stroke:#b0b0b0;stroke-linecap:square;stroke-width:0.8;"/>
     </g>
     <g id="line2d_12">
      <defs>
       <path d="M 0 0 
L -3.5 0 
" id="ma32db316bc" style="stroke:#000000;stroke-width:0.8;"/>
      </defs>
      <g>
       <use style="stroke:#000000;stroke-width:0.8;" x="72.088558" xlink:href="#ma32db316bc" y="137.343915"/>
      </g>
     </g>
     <g id="text_12">
      <!-- $0.6$ -->
      <defs>
       <path d="M 18.40625 4.796875 
C 18.40625 7.6875 16 9.6875 13.59375 9.6875 
C 10.703125 9.6875 8.703125 7.296875 8.703125 4.890625 
C 8.703125 2 11.09375 0 13.5 0 
C 16.40625 0 18.40625 2.390625 18.40625 4.796875 
z
" id="CMMI12-58"/>
      </defs>
      <g transform="translate(48.794698 153.738702)rotate(-45)scale(0.16 -0.16)">
       <use transform="scale(0.996264)" xlink:href="#CMR17-48"/>
       <use transform="translate(45.690477 0)scale(0.996264)" xlink:href="#CMMI12-58"/>
       <use transform="translate(72.787654 0)scale(0.996264)" xlink:href="#CMR17-54"/>
      </g>
     </g>
    </g>
    <g id="ytick_2">
     <g id="line2d_13">
      <path clip-path="url(#p941ad99cdf)" d="M 72.088558 79.858935 
L 496.252017 79.858935 
" style="fill:none;stroke:#b0b0b0;stroke-linecap:square;stroke-width:0.8;"/>
     </g>
     <g id="line2d_14">
      <g>
       <use style="stroke:#000000;stroke-width:0.8;" x="72.088558" xlink:href="#ma32db316bc" y="79.858935"/>
      </g>
     </g>
     <g id="text_13">
      <!-- $0.7$ -->
      <g transform="translate(48.794698 96.253722)rotate(-45)scale(0.16 -0.16)">
       <use transform="scale(0.996264)" xlink:href="#CMR17-48"/>
       <use transform="translate(45.690477 0)scale(0.996264)" xlink:href="#CMMI12-58"/>
       <use transform="translate(72.787654 0)scale(0.996264)" xlink:href="#CMR17-55"/>
      </g>
     </g>
    </g>
    <g id="ytick_3">
     <g id="line2d_15">
      <path clip-path="url(#p941ad99cdf)" d="M 72.088558 22.373955 
L 496.252017 22.373955 
" style="fill:none;stroke:#b0b0b0;stroke-linecap:square;stroke-width:0.8;"/>
     </g>
     <g id="line2d_16">
      <g>
       <use style="stroke:#000000;stroke-width:0.8;" x="72.088558" xlink:href="#ma32db316bc" y="22.373955"/>
      </g>
     </g>
     <g id="text_14">
      <!-- $0.8$ -->
      <g transform="translate(48.794698 38.768741)rotate(-45)scale(0.16 -0.16)">
       <use transform="scale(0.996264)" xlink:href="#CMR17-48"/>
       <use transform="translate(45.690477 0)scale(0.996264)" xlink:href="#CMMI12-58"/>
       <use transform="translate(72.787654 0)scale(0.996264)" xlink:href="#CMR17-56"/>
      </g>
     </g>
    </g>
    <g id="text_15">
     <!-- \textbf{AP} -->
     <defs>
      <path d="M 27.59375 31 
L 44.59375 31 
C 61.296875 31 70.59375 39.484375 70.59375 49.75 
C 70.59375 60.5 61.09375 69 44.59375 69 
L 3.796875 69 
L 3.796875 64.6875 
L 14.40625 64.6875 
L 14.40625 4.296875 
L 3.796875 4.296875 
L 3.796875 0 
C 6.703125 0.1875 17.40625 0.1875 21 0.1875 
C 24.59375 0.1875 35.296875 0.1875 38.203125 0 
L 38.203125 4.296875 
L 27.59375 4.296875 
z
M 41 64.6875 
C 56.5 64.6875 56.5 56.515625 56.5 49.75 
C 56.5 43.171875 56.5 34.796875 41 34.796875 
L 27.09375 34.796875 
L 27.09375 64.6875 
z
" id="CMBX12-80"/>
     </defs>
     <g transform="translate(33.86784 113.274151)rotate(-90)scale(0.16 -0.16)">
      <use transform="scale(0.996264)" xlink:href="#CMBX12-65"/>
      <use transform="translate(84.636395 0)scale(0.996264)" xlink:href="#CMBX12-80"/>
     </g>
    </g>
   </g>
   <g id="PolyCollection_1">
    <defs>
     <path d="M 83.079814 -155.852689 
L 83.079814 -169.030669 
L 126.48879 -174.410192 
L 173.366764 -178.504114 
L 220.244738 -184.950599 
L 267.122711 -192.403816 
L 314.000685 -197.145884 
L 360.878659 -201.265726 
L 407.756632 -217.653183 
L 454.634606 -220.428697 
L 484.817279 -220.093417 
L 484.817279 -212.083349 
L 484.817279 -212.083349 
L 454.634606 -216.498929 
L 407.756632 -209.607242 
L 360.878659 -196.749622 
L 314.000685 -192.090709 
L 267.122711 -184.942901 
L 220.244738 -181.736046 
L 173.366764 -169.042617 
L 126.48879 -164.593252 
L 83.079814 -155.852689 
z
" id="m5d07a65479" style="stroke:#8f89b4;stroke-opacity:0.5;"/>
    </defs>
    <g clip-path="url(#p941ad99cdf)">
     <use style="fill:#8f89b4;fill-opacity:0.5;stroke:#8f89b4;stroke-opacity:0.5;" x="0" xlink:href="#m5d07a65479" y="255.11811"/>
    </g>
   </g>
   <g id="PolyCollection_2">
    <defs>
     <path d="M 83.079814 -111.430292 
L 83.079814 -134.094464 
L 126.48879 -149.661876 
L 173.366764 -169.489797 
L 220.244738 -185.088356 
L 267.122711 -200.085186 
L 314.000685 -204.517909 
L 360.878659 -216.158586 
L 407.756632 -222.881796 
L 454.634606 -227.648186 
L 484.817279 -223.946024 
L 484.817279 -220.374433 
L 484.817279 -220.374433 
L 454.634606 -223.797299 
L 407.756632 -218.081584 
L 360.878659 -209.635314 
L 314.000685 -201.075031 
L 267.122711 -196.682067 
L 220.244738 -181.529662 
L 173.366764 -163.437284 
L 126.48879 -128.535738 
L 83.079814 -111.430292 
z
" id="m4b81d48ce0" style="stroke:#526b34;stroke-opacity:0.5;"/>
    </defs>
    <g clip-path="url(#p941ad99cdf)">
     <use style="fill:#526b34;fill-opacity:0.5;stroke:#526b34;stroke-opacity:0.5;" x="0" xlink:href="#m4b81d48ce0" y="255.11811"/>
    </g>
   </g>
   <g id="PolyCollection_3">
    <defs>
     <path d="M 83.079814 -81.831928 
L 83.079814 -95.1994 
L 126.48879 -119.143351 
L 173.366764 -146.485894 
L 220.244738 -162.342398 
L 267.122711 -191.988748 
L 314.000685 -203.32433 
L 360.878659 -212.619987 
L 407.756632 -224.539896 
L 454.634606 -222.652429 
L 484.817279 -216.292236 
L 484.817279 -211.453082 
L 484.817279 -211.453082 
L 454.634606 -218.45074 
L 407.756632 -219.840811 
L 360.878659 -210.738531 
L 314.000685 -192.365046 
L 267.122711 -185.370436 
L 220.244738 -155.973444 
L 173.366764 -137.466444 
L 126.48879 -97.605581 
L 83.079814 -81.831928 
z
" id="mc827f0427d" style="stroke:#6d3b2b;stroke-opacity:0.25;"/>
    </defs>
    <g clip-path="url(#p941ad99cdf)">
     <use style="fill:#6d3b2b;fill-opacity:0.25;stroke:#6d3b2b;stroke-opacity:0.25;" x="0" xlink:href="#mc827f0427d" y="255.11811"/>
    </g>
   </g>
   <g id="line2d_17">
    <path clip-path="url(#p941ad99cdf)" d="M 83.079814 92.676432 
L 126.48879 85.616389 
L 173.366764 81.344744 
L 220.244738 71.774788 
L 267.122711 66.444752 
L 314.000685 60.499814 
L 360.878659 56.110436 
L 407.756632 41.487898 
L 454.634606 36.654297 
L 484.817279 39.029728 
" style="fill:none;stroke:#8f89b4;stroke-linecap:square;stroke-width:2;"/>
   </g>
   <g id="line2d_18">
    <path clip-path="url(#p941ad99cdf)" d="M 83.079814 132.355732 
L 126.48879 116.019304 
L 173.366764 88.65457 
L 220.244738 71.809101 
L 267.122711 56.734484 
L 314.000685 52.32164 
L 360.878659 42.221161 
L 407.756632 34.63642 
L 454.634606 29.395368 
L 484.817279 32.957882 
" style="fill:none;stroke:#526b34;stroke-linecap:square;stroke-width:2;"/>
   </g>
   <g id="line2d_19">
    <path clip-path="url(#p941ad99cdf)" d="M 83.079814 166.602446 
L 126.48879 146.743644 
L 173.366764 113.141941 
L 220.244738 95.960189 
L 267.122711 66.438518 
L 314.000685 57.273422 
L 360.878659 43.438851 
L 407.756632 32.927757 
L 454.634606 34.566526 
L 484.817279 41.245451 
" style="fill:none;stroke:#6d3b2b;stroke-linecap:square;stroke-width:2;"/>
   </g>
   <g id="patch_3">
    <path d="M 72.088558 180.576996 
L 72.088558 20.179111 
" style="fill:none;stroke:#000000;stroke-linecap:square;stroke-linejoin:miter;stroke-width:0.8;"/>
   </g>
   <g id="patch_4">
    <path d="M 496.252017 180.576996 
L 496.252017 20.179111 
" style="fill:none;stroke:#000000;stroke-linecap:square;stroke-linejoin:miter;stroke-width:0.8;"/>
   </g>
   <g id="patch_5">
    <path d="M 72.088558 180.576996 
L 496.252017 180.576996 
" style="fill:none;stroke:#000000;stroke-linecap:square;stroke-linejoin:miter;stroke-width:0.8;"/>
   </g>
   <g id="patch_6">
    <path d="M 72.088558 20.179111 
L 496.252017 20.179111 
" style="fill:none;stroke:#000000;stroke-linecap:square;stroke-linejoin:miter;stroke-width:0.8;"/>
   </g>
   <g id="legend_1">
    <g id="patch_7">
     <path d="M 289.857481 172.576996 
L 485.052017 172.576996 
Q 488.252017 172.576996 488.252017 169.376996 
L 488.252017 102.437819 
Q 488.252017 99.237819 485.052017 99.237819 
L 289.857481 99.237819 
Q 286.657481 99.237819 286.657481 102.437819 
L 286.657481 169.376996 
Q 286.657481 172.576996 289.857481 172.576996 
z
" style="fill:#ffffff;opacity:0.8;stroke:#cccccc;stroke-linejoin:miter;"/>
    </g>
    <g id="line2d_20">
     <path d="M 293.057481 111.992987 
L 325.057481 111.992987 
" style="fill:none;stroke:#8f89b4;stroke-linecap:square;stroke-width:3;"/>
    </g>
    <g id="line2d_21"/>
    <g id="text_16">
     <!-- \textsc{DenoiSeg} ($\alpha = 0.5$) -->
     <defs>
      <path d="M 8.09375 64.890625 
C 15.796875 64.890625 16 63.796875 16 60.21875 
L 16 7.765625 
C 16 4.1875 15.796875 3.09375 8.09375 3.09375 
L 5.703125 3.09375 
L 5.703125 0 
L 43.5 0 
C 61.09375 0 75.59375 14.734375 75.59375 33.453125 
C 75.59375 52.453125 61.296875 68 43.5 68 
L 5.703125 68 
L 5.703125 64.890625 
z
M 29.5 3.09375 
C 24.796875 3.09375 24.59375 3.78125 24.59375 7.078125 
L 24.59375 60.90625 
C 24.59375 64.203125 24.796875 64.890625 29.5 64.890625 
L 40.796875 64.890625 
C 46.40625 64.890625 54.203125 63.203125 60 55.53125 
C 64.5 49.671875 65.59375 41.015625 65.59375 33.453125 
C 65.59375 23.390625 63.796875 16.234375 59.09375 10.859375 
C 55 6.28125 48.59375 3.09375 40.796875 3.09375 
z
" id="CMCSC10-68"/>
      <path d="M 48.796875 50.6875 
L 4.296875 50.6875 
L 4.296875 48.1875 
C 11 48.1875 11.5 47.59375 11.5 43.515625 
L 11.5 7.125 
C 11.5 3.078125 11 2.5 4.296875 2.5 
L 4.296875 0 
L 50 0 
L 52.90625 19.171875 
L 50.40625 19.171875 
C 48.703125 7.234375 46.296875 2.5 33.5 2.5 
L 22.703125 2.5 
C 19.203125 2.5 18.703125 2.78125 18.703125 6.734375 
L 18.703125 25 
L 25.703125 25 
C 33.09375 25 34.296875 23.015625 34.296875 16.40625 
L 36.796875 16.40625 
L 36.796875 36.15625 
L 34.296875 36.15625 
C 34.296875 29.484375 33.09375 27.5 25.703125 27.5 
L 18.703125 27.5 
L 18.703125 43.90625 
C 18.703125 47.890625 19.203125 48.1875 22.703125 48.1875 
L 32.90625 48.1875 
C 44.5 48.1875 47.09375 44.703125 48.203125 33.859375 
L 50.703125 33.859375 
z
" id="CMCSC10-101"/>
      <path d="M 19.296875 49.6875 
C 18.40625 51 18.203125 51 16.296875 51 
L 4.296875 51 
L 4.296875 48.484375 
C 6.703125 48.484375 9.5 48.484375 11.5 47.796875 
L 11.5 10.03125 
C 11.5 7.75 11.5 2.5 4.296875 2.5 
L 4.296875 0 
C 6.40625 0.09375 10.90625 0.296875 12.90625 0.296875 
C 14.40625 0.296875 19 0.1875 21.5 0 
L 21.5 2.5 
C 14.296875 2.5 14.296875 7.75 14.296875 10.03125 
L 14.296875 45.515625 
L 15.296875 44.328125 
L 46.703125 1.09375 
C 47.5 0 47.796875 0 48.40625 0 
C 49.796875 0 49.796875 0.6875 49.796875 2.59375 
L 49.796875 40.953125 
C 49.796875 43.234375 49.796875 48.484375 57 48.484375 
L 57 51 
C 54.90625 50.890625 50.40625 50.6875 48.40625 50.6875 
C 46.90625 50.6875 42.296875 50.796875 39.796875 51 
L 39.796875 48.484375 
C 47 48.484375 47 43.234375 47 40.953125 
L 47 11.515625 
z
" id="CMCSC10-110"/>
      <path d="M 58.5 25.796875 
C 58.5 40.640625 46.59375 53 31.796875 53 
C 16.90625 53 5.09375 40.640625 5.09375 25.796875 
C 5.09375 10.75 17.203125 -1 31.796875 -1 
C 46.40625 -1 58.5 10.75 58.5 25.796875 
z
M 31.796875 1.59375 
C 24.703125 1.59375 13.703125 7.265625 13.703125 26.890625 
C 13.703125 45.609375 25.09375 50.484375 31.796875 50.484375 
C 38.59375 50.484375 49.90625 45.515625 49.90625 26.890625 
C 49.90625 7.265625 38.90625 1.59375 31.796875 1.59375 
z
" id="CMCSC10-111"/>
      <path d="M 18.703125 43.734375 
C 18.703125 48 19.203125 48.484375 26.296875 48.484375 
L 26.296875 51 
C 22.90625 50.890625 17.703125 50.6875 15.09375 50.6875 
C 12.5 50.6875 7.296875 50.890625 3.90625 51 
L 3.90625 48.484375 
C 11 48.484375 11.5 48 11.5 43.734375 
L 11.5 7.25 
C 11.5 2.984375 11 2.5 3.90625 2.5 
L 3.90625 0 
C 7.296875 0.09375 12.5 0.296875 15.09375 0.296875 
C 17.703125 0.296875 22.90625 0.09375 26.296875 0 
L 26.296875 2.5 
C 19.203125 2.5 18.703125 2.984375 18.703125 7.25 
z
" id="CMCSC10-105"/>
      <path d="M 24.40625 42.375 
C 15.703125 44.484375 13.59375 51.421875 13.59375 55.03125 
C 13.59375 61.859375 19.296875 68.1875 27.796875 68.1875 
C 41.59375 68.1875 46.90625 58.046875 48.296875 47.796875 
C 48.5 46.5 48.5 46 49.59375 46 
C 50.90625 46 50.90625 46.5 50.90625 48.40625 
L 50.90625 68.59375 
C 50.90625 70.296875 50.90625 71 49.796875 71 
C 49.09375 71 49.09375 70.890625 48.296875 69.6875 
L 44.59375 63.765625 
C 41.90625 66.484375 37.296875 71 27.703125 71 
C 16.09375 71 7.203125 62.171875 7.203125 51.515625 
C 7.203125 45.09375 10.59375 40.5625 11.90625 39.0625 
C 16.59375 34.140625 19.59375 33.4375 27.90625 31.421875 
C 29.5 31.03125 31.203125 30.71875 32.796875 30.328125 
C 38.703125 28.921875 40.703125 28.421875 43.796875 25 
C 44.40625 24.296875 47.40625 20.875 47.40625 15.453125 
C 47.40625 8.328125 42.09375 1.09375 33 1.09375 
C 28.796875 1.09375 22.09375 1.890625 16.59375 6.21875 
C 10.09375 11.34375 9.796875 18.671875 9.703125 22.09375 
C 9.59375 22.796875 9 22.984375 8.5 22.984375 
C 7.203125 22.984375 7.203125 22.28125 7.203125 20.484375 
L 7.203125 0.390625 
C 7.203125 -1.3125 7.203125 -2 8.296875 -2 
C 9 -2 9.203125 -1.703125 9.796875 -0.8125 
L 13.5 5.203125 
C 16.296875 2.296875 22.796875 -2 33.09375 -2 
C 45.59375 -2 53.796875 8.125 53.796875 18.765625 
C 53.796875 26.8125 49 36.34375 38 39.0625 
z
" id="CMCSC10-83"/>
      <path d="M 53.90625 50.59375 
C 53.90625 52.1875 53.90625 53 52.90625 53 
C 52.296875 53 52.203125 52.796875 51.40625 51.796875 
L 47.5 46.703125 
C 43.796875 50.796875 38.5 53 33 53 
C 18.09375 53 5.09375 41.21875 5.09375 25.96875 
C 5.09375 11.140625 17.59375 -1 33.203125 -1 
C 36.703125 -1 44.09375 -0.5 48 4.96875 
C 48.90625 3.578125 51.90625 0.5 53 0.5 
C 53.90625 0.5 53.90625 1.296875 53.90625 2.78125 
L 53.90625 14.015625 
C 53.90625 17.890625 54.296875 18.484375 59.5 18.484375 
L 59.5 21 
C 56.203125 20.796875 52.203125 20.6875 49.59375 20.6875 
C 46 20.6875 40.203125 20.6875 36.703125 21 
L 36.703125 18.484375 
L 38.703125 18.484375 
C 46.296875 18.484375 46.703125 17.390625 46.703125 13.421875 
L 46.703125 10.4375 
C 46.703125 8.15625 46.703125 5.765625 42.703125 3.484375 
C 40.5 2.1875 37.09375 1.5 34.203125 1.5 
C 28.09375 1.5 13.703125 4.765625 13.703125 25.96875 
C 13.703125 47.796875 28.796875 50.484375 33.703125 50.484375 
C 41 50.484375 49.40625 45.3125 51.296875 32.65625 
C 51.5 31.953125 51.59375 31.359375 52.59375 31.359375 
C 53.90625 31.359375 53.90625 31.859375 53.90625 33.75 
z
" id="CMCSC10-103"/>
      <path d="M 30.59375 -24.40625 
C 30.59375 -24.3125 30.59375 -24.109375 30.296875 -23.8125 
C 25.703125 -19.109375 13.40625 -6.296875 13.40625 24.9375 
C 13.40625 56.171875 25.5 68.875 30.40625 73.890625 
C 30.40625 73.984375 30.59375 74.1875 30.59375 74.484375 
C 30.59375 74.796875 30.296875 75 29.90625 75 
C 28.796875 75 20.296875 67.578125 15.40625 56.5625 
C 10.40625 45.453125 9 34.65625 9 25.046875 
C 9 17.828125 9.703125 5.625 15.703125 -7.296875 
C 20.5 -17.703125 28.703125 -25 29.90625 -25 
C 30.40625 -25 30.59375 -24.8125 30.59375 -24.40625 
z
" id="CMR17-40"/>
      <path d="M 46.296875 25.234375 
C 46.296875 34.90625 40.796875 44 30.203125 44 
C 17.09375 44 4 29.71875 4 15.5625 
C 4 6.875 9.40625 -1 19.59375 -1 
C 25.796875 -1 33.203125 1.390625 40.296875 7.375 
C 41.703125 1.796875 44.796875 -1 49.09375 -1 
C 54.5 -1 57.203125 4.578125 57.203125 5.875 
C 57.203125 6.78125 56.5 6.78125 56.203125 6.78125 
C 55.40625 6.78125 55.296875 6.484375 55 5.6875 
C 54.09375 3.1875 51.796875 1 49.40625 1 
C 46.296875 1 46.296875 7.375 46.296875 13.46875 
C 56.5 25.640625 58.90625 38.203125 58.90625 38.296875 
C 58.90625 39.203125 58.09375 39.203125 57.796875 39.203125 
C 56.90625 39.203125 56.796875 38.90625 56.40625 37.109375 
C 55.09375 32.71875 52.5 24.9375 46.296875 16.75 
z
M 40 9.765625 
C 31.203125 1.890625 23.296875 1 19.796875 1 
C 12.703125 1 10.703125 7.28125 10.703125 11.96875 
C 10.703125 16.25 12.90625 26.4375 16 31.921875 
C 20.09375 38.90625 25.703125 41.984375 30.203125 41.984375 
C 39.90625 41.984375 39.90625 29.328125 39.90625 20.9375 
C 39.90625 18.453125 39.796875 15.859375 39.796875 13.359375 
C 39.796875 11.375 39.90625 10.875 40 9.765625 
z
" id="CMMI12-11"/>
      <path d="M 64.296875 32 
C 65.796875 32 67.296875 32 67.296875 33.6875 
C 67.296875 35.5 65.59375 35.5 63.90625 35.5 
L 8 35.5 
C 6.296875 35.5 4.59375 35.5 4.59375 33.6875 
C 4.59375 32 6.09375 32 7.59375 32 
z
M 63.90625 14.484375 
C 65.59375 14.484375 67.296875 14.484375 67.296875 16.296875 
C 67.296875 18 65.796875 18 64.296875 18 
L 7.59375 18 
C 6.09375 18 4.59375 18 4.59375 16.296875 
C 4.59375 14.484375 6.296875 14.484375 8 14.484375 
z
" id="CMR17-61"/>
      <path d="M 26.296875 24.9375 
C 26.296875 32.140625 25.59375 44.359375 19.59375 57.265625 
C 14.796875 67.6875 6.59375 75 5.40625 75 
C 5.09375 75 4.703125 74.890625 4.703125 74.390625 
C 4.703125 74.1875 4.796875 74.09375 4.90625 73.890625 
C 9.703125 68.875 21.90625 56.171875 21.90625 25.046875 
C 21.90625 -6.1875 9.796875 -18.90625 4.90625 -23.90625 
C 4.796875 -24.109375 4.703125 -24.203125 4.703125 -24.40625 
C 4.703125 -24.90625 5.09375 -25 5.40625 -25 
C 6.5 -25 15 -17.609375 19.90625 -6.59375 
C 24.90625 4.515625 26.296875 15.328125 26.296875 24.9375 
z
" id="CMR17-41"/>
     </defs>
     <g transform="translate(337.857481 117.592987)scale(0.16 -0.16)">
      <use transform="scale(0.996264)" xlink:href="#CMCSC10-68"/>
      <use transform="translate(82.606197 0)scale(0.996264)" xlink:href="#CMCSC10-101"/>
      <use transform="translate(138.175354 0)scale(0.996264)" xlink:href="#CMCSC10-110"/>
      <use transform="translate(199.27939 0)scale(0.996264)" xlink:href="#CMCSC10-111"/>
      <use transform="translate(262.597276 0)scale(0.996264)" xlink:href="#CMCSC10-105"/>
      <use transform="translate(292.706489 0)scale(0.996264)" xlink:href="#CMCSC10-83"/>
      <use transform="translate(353.58867 0)scale(0.996264)" xlink:href="#CMCSC10-101"/>
      <use transform="translate(409.157827 0)scale(0.996264)" xlink:href="#CMCSC10-103"/>
      <use transform="translate(503.105116 0)scale(0.996264)" xlink:href="#CMR17-40"/>
      <use transform="translate(538.385884 0)scale(0.996264)" xlink:href="#CMMI12-11"/>
      <use transform="translate(628.740915 0)scale(0.996264)" xlink:href="#CMR17-61"/>
      <use transform="translate(728.129713 0)scale(0.996264)" xlink:href="#CMR17-48"/>
      <use transform="translate(773.82019 0)scale(0.996264)" xlink:href="#CMMI12-58"/>
      <use transform="translate(800.917367 0)scale(0.996264)" xlink:href="#CMR17-53"/>
      <use transform="translate(846.607844 0)scale(0.996264)" xlink:href="#CMR17-41"/>
     </g>
    </g>
    <g id="line2d_22">
     <path d="M 293.057481 135.178043 
L 325.057481 135.178043 
" style="fill:none;stroke:#526b34;stroke-linecap:square;stroke-width:3;"/>
    </g>
    <g id="line2d_23"/>
    <g id="text_17">
     <!-- Sequential Baseline -->
     <defs>
      <path d="M 43.796875 67.984375 
C 43.796875 69.796875 43.703125 69.890625 43.09375 69.890625 
C 42.5 69.890625 42.296875 69.484375 41.90625 68.59375 
L 38.90625 61.953125 
C 35.09375 67.5 29.296875 70 23 70 
C 12.796875 70 4.59375 61.84375 4.59375 51.578125 
C 4.59375 48.453125 5.296875 44.015625 8.703125 39.78125 
C 12.40625 35.15625 15.90625 34.34375 23.90625 32.234375 
C 26.90625 31.421875 31.90625 30.109375 32.90625 29.703125 
C 38.59375 27.296875 41.59375 21.25 41.59375 15.609375 
C 41.59375 8.34375 36.5 0.59375 27.796875 0.59375 
C 17.09375 0.59375 7.09375 6.640625 6.40625 20.75 
C 6.296875 22.359375 6.203125 22.453125 5.5 22.453125 
C 4.703125 22.453125 4.59375 22.359375 4.59375 20.34375 
L 4.59375 0 
C 4.59375 -1.8125 4.703125 -1.90625 5.296875 -1.90625 
C 6 -1.90625 6.203125 -1.40625 7.59375 1.703125 
C 7.703125 2 7.703125 2.203125 9.59375 6.03125 
C 14.59375 -0.609375 23 -2 27.796875 -2 
C 38.703125 -2 46.40625 7.140625 46.40625 17.828125 
C 46.40625 23.0625 44.5 27.09375 43.40625 28.90625 
C 39.203125 35.359375 34.703125 36.5625 29.90625 37.765625 
C 29.203125 38.078125 29 38.078125 23.40625 39.484375 
C 18 40.890625 15.703125 41.59375 13.203125 44.3125 
C 10.40625 47.4375 9.40625 50.671875 9.40625 53.890625 
C 9.40625 60.4375 14.59375 67.59375 23.09375 67.59375 
C 33.703125 67.59375 40.296875 60.03125 41.796875 47.4375 
C 42.09375 45.625 42.203125 45.53125 42.90625 45.53125 
C 43.796875 45.53125 43.796875 45.828125 43.796875 47.546875 
z
" id="CMR17-83"/>
      <path d="M 38.09375 23.484375 
C 38.5 23.890625 38.5 24.09375 38.5 25.09375 
C 38.5 35.171875 33.09375 44 21.703125 44 
C 11.09375 44 2.703125 33.984375 2.703125 21.78125 
C 2.703125 8.65625 12.203125 -1 22.796875 -1 
C 34 -1 38.40625 9.671875 38.40625 11.796875 
C 38.40625 12.5 37.796875 12.5 37.59375 12.5 
C 36.90625 12.5 36.796875 12.296875 36.40625 11.078125 
C 34.203125 4.21875 28.703125 0.796875 23.5 0.796875 
C 19.203125 0.796875 14.90625 3.21875 12.203125 7.65625 
C 9.09375 12.796875 9.09375 18.75 9.09375 23.484375 
z
M 9.203125 25 
C 9.90625 39.234375 17.59375 42.390625 21.59375 42.390625 
C 28.40625 42.390625 33 36.0625 33.09375 25 
z
" id="CMR17-101"/>
      <path d="M 41.09375 44 
L 39.5 44 
L 36.5 34.015625 
C 34.203125 39.359375 30 44 23.296875 44 
C 13.09375 44 3.296875 34.8125 3.296875 21.5 
C 3.296875 8.265625 12.5 -1 22.5 -1 
C 30.203125 -1 34.5 4.9375 35.796875 7.15625 
L 35.796875 -13.03125 
C 35.796875 -16.890625 35.40625 -17.40625 29 -17.40625 
L 29 -20 
C 31.40625 -19.8125 35.796875 -19.8125 38.40625 -19.8125 
C 41 -19.8125 45.5 -19.8125 47.90625 -20 
L 47.90625 -17.40625 
C 41.5 -17.40625 41.09375 -17 41.09375 -13.03125 
z
M 36 13.609375 
C 36 9.28125 32.40625 5.234375 32.09375 4.9375 
C 29 1.40625 25.40625 0.59375 23 0.59375 
C 15.5 0.59375 9.703125 10.1875 9.703125 21.390625 
C 9.703125 33.203125 16.296875 42.1875 24 42.1875 
C 32 42.1875 36 33 36 27.75 
z
" id="CMR17-113"/>
      <path d="M 29.40625 42.890625 
L 29.40625 40.296875 
C 35.296875 40.296875 36.203125 39.6875 36.203125 34.828125 
L 36.203125 16.453125 
C 36.203125 7.96875 31.703125 0.59375 24.296875 0.59375 
C 16.09375 0.59375 15.40625 5.546875 15.40625 10.796875 
L 15.40625 44 
L 3.296875 42.890625 
L 3.296875 40.296875 
C 7.296875 40.296875 10 40.296875 10.09375 36.25 
L 10.09375 16.859375 
C 10.09375 10.09375 10.09375 5.75 12.703125 2.921875 
C 14 1.609375 16.5 -1 23.703125 -1 
C 32.203125 -1 35.5 6.25 36.296875 8.375 
L 36.40625 8.375 
L 36.40625 -1 
L 48.296875 -0.203125 
L 48.296875 2.40625 
C 42.40625 2.40625 41.5 3.015625 41.5 7.859375 
L 41.5 44 
z
" id="CMR17-117"/>
      <path d="M 41.5 30.53125 
C 41.5 35.65625 40.5 44 28.703125 44 
C 20.796875 44 16.703125 37.875 15.203125 33.84375 
L 15.09375 33.84375 
L 15.09375 44 
L 3.296875 42.890625 
L 3.296875 40.28125 
C 9.203125 40.28125 10.09375 39.6875 10.09375 34.859375 
L 10.09375 6.921875 
C 10.09375 3.09375 9.703125 2.59375 3.296875 2.59375 
L 3.296875 0 
C 5.703125 0.1875 10.09375 0.1875 12.703125 0.1875 
C 15.296875 0.1875 19.796875 0.1875 22.203125 0 
L 22.203125 2.59375 
C 15.796875 2.59375 15.40625 3 15.40625 6.921875 
L 15.40625 26.21875 
C 15.40625 35.453125 21 42.390625 28 42.390625 
C 35.40625 42.390625 36.203125 35.765625 36.203125 30.9375 
L 36.203125 6.921875 
C 36.203125 3.09375 35.796875 2.59375 29.40625 2.59375 
L 29.40625 0 
C 31.796875 0.1875 36.203125 0.1875 38.796875 0.1875 
C 41.40625 0.1875 45.90625 0.1875 48.296875 0 
L 48.296875 2.59375 
C 41.90625 2.59375 41.5 3 41.5 6.921875 
z
" id="CMR17-110"/>
      <path d="M 15.09375 40.390625 
L 29.09375 40.390625 
L 29.09375 43 
L 15.09375 43 
L 15.09375 62 
L 13.296875 62 
C 13.09375 51.4375 9.59375 42.1875 1.09375 41.984375 
L 1.09375 40.390625 
L 9.796875 40.390625 
L 9.796875 12.15625 
C 9.796875 10.234375 9.796875 -1 21.40625 -1 
C 27.296875 -1 30.703125 4.8125 30.703125 12.25 
L 30.703125 17.984375 
L 28.90625 17.984375 
L 28.90625 12.34375 
C 28.90625 5.421875 26.203125 0.796875 22 0.796875 
C 19.09375 0.796875 15.09375 2.796875 15.09375 11.953125 
z
" id="CMR17-116"/>
      <path d="M 15.5 61.890625 
C 15.5 64.09375 13.703125 66 11.40625 66 
C 9.203125 66 7.296875 64.1875 7.296875 61.890625 
C 7.296875 59.6875 9.09375 57.796875 11.40625 57.796875 
C 13.59375 57.796875 15.5 59.59375 15.5 61.890625 
z
M 3.796875 42.890625 
L 3.796875 40.296875 
C 9.40625 40.296875 10.203125 39.6875 10.203125 34.859375 
L 10.203125 6.921875 
C 10.203125 3.09375 9.796875 2.59375 3.40625 2.59375 
L 3.40625 0 
C 5.796875 0.1875 10.09375 0.1875 12.59375 0.1875 
C 15 0.1875 19.09375 0.1875 21.40625 0 
L 21.40625 2.59375 
C 15.5 2.59375 15.296875 3.203125 15.296875 6.8125 
L 15.296875 44 
z
" id="CMR17-105"/>
      <path d="M 36 25.875 
C 36 32 36 35.546875 31.796875 39.59375 
C 28.09375 42.984375 23.796875 44 20.40625 44 
C 12.5 44 6.796875 37.625 6.796875 30.890625 
C 6.796875 27.1875 9.796875 27 10.40625 27 
C 11.703125 27 14 27.796875 14 30.59375 
C 14 33.09375 12.09375 34.1875 10.40625 34.1875 
C 10 34.1875 9.5 34.09375 9.203125 34 
C 11.296875 40.53125 16.703125 42.390625 20.203125 42.390625 
C 25.203125 42.390625 30.703125 37.828125 30.703125 29.296875 
L 30.703125 25.5 
C 24.796875 25.296875 17.703125 24.5 12.09375 21.453125 
C 5.796875 17.921875 4 12.84375 4 9 
C 4 1.203125 13 -1 18.296875 -1 
C 23.796875 -1 28.90625 2.109375 31.09375 7.890625 
C 31.296875 3.421875 34.09375 -0.609375 38.5 -0.609375 
C 40.59375 -0.609375 45.90625 0.796875 45.90625 8.796875 
L 45.90625 14.46875 
L 44.09375 14.46875 
L 44.09375 8.703125 
C 44.09375 2.515625 41.40625 1.703125 40.09375 1.703125 
C 36 1.703125 36 6.96875 36 11.4375 
z
M 30.703125 13.859375 
C 30.703125 5.046875 24.5 0.59375 19 0.59375 
C 14 0.59375 10.09375 4.34375 10.09375 9 
C 10.09375 12.046875 11.40625 17.40625 17.203125 20.65625 
C 22 23.390625 27.5 23.796875 30.703125 24 
z
" id="CMR17-97"/>
      <path d="M 15.296875 69 
L 3.40625 67.890625 
L 3.40625 65.296875 
C 9.296875 65.296875 10.203125 64.703125 10.203125 59.921875 
L 10.203125 6.859375 
C 10.203125 3.09375 9.796875 2.59375 3.40625 2.59375 
L 3.40625 0 
C 5.796875 0.1875 10.203125 0.1875 12.703125 0.1875 
C 15.296875 0.1875 19.703125 0.1875 22.09375 0 
L 22.09375 2.59375 
C 15.703125 2.59375 15.296875 2.984375 15.296875 6.859375 
z
" id="CMR17-108"/>
      <path d="M 5.203125 68 
L 5.203125 65.390625 
C 12.09375 65.390625 13.203125 65.390625 13.203125 60.890625 
L 13.203125 7.046875 
C 13.203125 2.59375 12.09375 2.59375 5.203125 2.59375 
L 5.203125 0 
L 39.59375 0 
C 52.40625 0 60.703125 9.03125 60.703125 18.046875 
C 60.703125 26.96875 52.5 34.59375 41.796875 35.296875 
C 51.40625 37.1875 58.09375 43.59375 58.09375 51.1875 
C 58.09375 59.5 49.90625 68 37 68 
z
M 19.5 36 
L 19.5 61.5 
C 19.5 64.890625 19.703125 65.390625 23.703125 65.390625 
L 36.5 65.390625 
C 46.40625 65.390625 50.796875 57.390625 50.796875 51.1875 
C 50.796875 43.59375 44.703125 36 33.90625 36 
z
M 23.703125 2.59375 
C 19.703125 2.59375 19.5 3.09375 19.5 6.453125 
L 19.5 34.390625 
L 38 34.390625 
C 48.296875 34.390625 53.296875 25.375 53.296875 18.140625 
C 53.296875 10.90625 47.59375 2.59375 36.703125 2.59375 
z
" id="CMR17-66"/>
      <path d="M 30.90625 42 
C 30.90625 43.796875 30.796875 43.890625 30.203125 43.890625 
C 29.796875 43.890625 29.703125 43.796875 28.5 42.296875 
C 28.203125 41.890625 27.296875 40.890625 27 40.5 
C 23.796875 43.890625 19.296875 44 17.59375 44 
C 6.5 44 2.5 38.1875 2.5 32.390625 
C 2.5 23.390625 12.703125 21.296875 15.59375 20.6875 
C 21.90625 19.390625 24.09375 19 26.203125 17.1875 
C 27.5 16 29.703125 13.796875 29.703125 10.1875 
C 29.703125 6 27.296875 0.59375 18.09375 0.59375 
C 9.40625 0.59375 6.296875 7.1875 4.5 16 
C 4.203125 17.390625 4.203125 17.5 3.40625 17.5 
C 2.59375 17.5 2.5 17.390625 2.5 15.390625 
L 2.5 1 
C 2.5 -0.8125 2.59375 -0.90625 3.203125 -0.90625 
C 3.703125 -0.90625 3.796875 -0.8125 4.296875 0 
C 4.90625 0.890625 6.40625 3.296875 7 4.296875 
C 9 1.59375 12.5 -1 18.09375 -1 
C 28 -1 33.296875 4.390625 33.296875 12.1875 
C 33.296875 17.296875 30.59375 20 29.296875 21.1875 
C 26.296875 24.296875 22.796875 25 18.59375 25.796875 
C 13.09375 27 6.09375 28.390625 6.09375 34.5 
C 6.09375 37.09375 7.5 42.59375 17.59375 42.59375 
C 28.296875 42.59375 28.90625 32.59375 29.09375 29.390625 
C 29.203125 28.890625 29.703125 28.796875 30 28.796875 
C 30.90625 28.796875 30.90625 29.09375 30.90625 30.796875 
z
" id="CMR17-115"/>
     </defs>
     <g transform="translate(337.857481 140.778043)scale(0.16 -0.16)">
      <use transform="scale(0.996264)" xlink:href="#CMR17-83"/>
      <use transform="translate(50.89537 0)scale(0.996264)" xlink:href="#CMR17-101"/>
      <use transform="translate(91.38103 0)scale(0.996264)" xlink:href="#CMR17-113"/>
      <use transform="translate(139.673946 0)scale(0.996264)" xlink:href="#CMR17-117"/>
      <use transform="translate(190.569316 0)scale(0.996264)" xlink:href="#CMR17-101"/>
      <use transform="translate(231.054976 0)scale(0.996264)" xlink:href="#CMR17-110"/>
      <use transform="translate(279.347892 0)scale(0.996264)" xlink:href="#CMR17-116"/>
      <use transform="translate(314.62866 0)scale(0.996264)" xlink:href="#CMR17-105"/>
      <use transform="translate(339.499718 0)scale(0.996264)" xlink:href="#CMR17-97"/>
      <use transform="translate(385.190196 0)scale(0.996264)" xlink:href="#CMR17-108"/>
      <use transform="translate(440.13722 0)scale(0.996264)" xlink:href="#CMR17-66"/>
      <use transform="translate(505.325975 0)scale(0.996264)" xlink:href="#CMR17-97"/>
      <use transform="translate(551.016452 0)scale(0.996264)" xlink:href="#CMR17-115"/>
      <use transform="translate(586.81779 0)scale(0.996264)" xlink:href="#CMR17-101"/>
      <use transform="translate(627.30345 0)scale(0.996264)" xlink:href="#CMR17-108"/>
      <use transform="translate(652.174509 0)scale(0.996264)" xlink:href="#CMR17-105"/>
      <use transform="translate(677.045567 0)scale(0.996264)" xlink:href="#CMR17-110"/>
      <use transform="translate(727.940937 0)scale(0.996264)" xlink:href="#CMR17-101"/>
     </g>
    </g>
    <g id="line2d_24">
     <path d="M 293.057481 157.477519 
L 325.057481 157.477519 
" style="fill:none;stroke:#6d3b2b;stroke-linecap:square;stroke-width:3;"/>
    </g>
    <g id="line2d_25"/>
    <g id="text_18">
     <!-- Baseline -->
     <g transform="translate(337.857481 163.077519)scale(0.16 -0.16)">
      <use transform="scale(0.996264)" xlink:href="#CMR17-66"/>
      <use transform="translate(65.188754 0)scale(0.996264)" xlink:href="#CMR17-97"/>
      <use transform="translate(110.879232 0)scale(0.996264)" xlink:href="#CMR17-115"/>
      <use transform="translate(146.680569 0)scale(0.996264)" xlink:href="#CMR17-101"/>
      <use transform="translate(187.16623 0)scale(0.996264)" xlink:href="#CMR17-108"/>
      <use transform="translate(212.037288 0)scale(0.996264)" xlink:href="#CMR17-105"/>
      <use transform="translate(236.908347 0)scale(0.996264)" xlink:href="#CMR17-110"/>
      <use transform="translate(287.803716 0)scale(0.996264)" xlink:href="#CMR17-101"/>
     </g>
    </g>
   </g>
  </g>
 </g>
 <defs>
  <clipPath id="p941ad99cdf">
   <rect height="160.397884" width="424.163458" x="72.088558" y="20.179111"/>
  </clipPath>
 </defs>
</svg>
