<?xml version="1.0" encoding="utf-8" standalone="no"?>
<!DOCTYPE svg PUBLIC "-//W3C//DTD SVG 1.1//EN"
  "http://www.w3.org/Graphics/SVG/1.1/DTD/svg11.dtd">
<!-- Created with matplotlib (https://matplotlib.org/) -->
<svg height="255.11811pt" version="1.1" viewBox="0 0 518.740157 255.11811" width="518.740157pt" xmlns="http://www.w3.org/2000/svg" xmlns:xlink="http://www.w3.org/1999/xlink">
 <defs>
  <style type="text/css">
*{stroke-linecap:butt;stroke-linejoin:round;}
  </style>
 </defs>
 <g id="figure_1">
  <g id="patch_1">
   <path d="M 0 255.11811 
L 518.740157 255.11811 
L 518.740157 0 
L 0 0 
z
" style="fill:#ffffff;"/>
  </g>
  <g id="axes_1">
   <g id="patch_2">
    <path d="M 72.088558 191.6135 
L 500.462279 191.6135 
L 500.462279 17.28 
L 72.088558 17.28 
z
" style="fill:#ffffff;"/>
   </g>
   <g id="matplotlib.axis_1">
    <g id="xtick_1">
     <g id="line2d_1">
      <defs>
       <path d="M 0 0 
L 0 3.5 
" id="m7cf3b50b35" style="stroke:#000000;stroke-width:0.8;"/>
      </defs>
      <g>
       <use style="stroke:#000000;stroke-width:0.8;" x="83.13827" xlink:href="#m7cf3b50b35" y="191.6135"/>
      </g>
     </g>
     <g id="text_1">
      <!-- 2 -->
      <defs>
       <path d="M 41.703125 15.453125 
L 39.90625 15.453125 
C 38.90625 8.375 38.09375 7.171875 37.703125 6.5625 
C 37.203125 5.765625 30 5.765625 28.59375 5.765625 
L 9.40625 5.765625 
C 13 9.671875 20 16.75 28.5 24.953125 
C 34.59375 30.734375 41.703125 37.53125 41.703125 47.421875 
C 41.703125 59.21875 32.296875 66 21.796875 66 
C 10.796875 66 4.09375 56.3125 4.09375 47.34375 
C 4.09375 43.4375 7 42.9375 8.203125 42.9375 
C 9.203125 42.9375 12.203125 43.546875 12.203125 47.03125 
C 12.203125 50.109375 9.59375 51 8.203125 51 
C 7.59375 51 7 50.90625 6.59375 50.703125 
C 8.5 59.21875 14.296875 63.40625 20.40625 63.40625 
C 29.09375 63.40625 34.796875 56.515625 34.796875 47.421875 
C 34.796875 38.734375 29.703125 31.25 24 24.75 
L 4.09375 2.28125 
L 4.09375 0 
L 39.296875 0 
z
" id="CMR17-50"/>
      </defs>
      <g transform="translate(83.197004 211.959133)rotate(-45)scale(0.16 -0.16)">
       <use transform="scale(0.996264)" xlink:href="#CMR17-50"/>
      </g>
     </g>
    </g>
    <g id="xtick_2">
     <g id="line2d_2">
      <g>
       <use style="stroke:#000000;stroke-width:0.8;" x="188.677797" xlink:href="#m7cf3b50b35" y="191.6135"/>
      </g>
     </g>
     <g id="text_2">
      <!-- 4 -->
      <defs>
       <path d="M 33.59375 64.40625 
C 33.59375 66.5 33.5 66.5 31.703125 66.5 
L 2 19.59375 
L 2 17 
L 27.796875 17 
L 27.796875 7.140625 
C 27.796875 3.5 27.59375 2.5 20.59375 2.5 
L 18.703125 2.5 
L 18.703125 0 
C 21.90625 0 27.296875 0 30.703125 0 
C 34.09375 0 39.5 0 42.703125 0 
L 42.703125 2.5 
L 40.796875 2.5 
C 33.796875 2.5 33.59375 3.5 33.59375 7.140625 
L 33.59375 17 
L 43.796875 17 
L 43.796875 19.59375 
L 33.59375 19.59375 
z
M 28.09375 57.859375 
L 28.09375 19.59375 
L 4 19.59375 
z
" id="CMR17-52"/>
      </defs>
      <g transform="translate(188.736531 211.959133)rotate(-45)scale(0.16 -0.16)">
       <use transform="scale(0.996264)" xlink:href="#CMR17-52"/>
      </g>
     </g>
    </g>
    <g id="xtick_3">
     <g id="line2d_3">
      <g>
       <use style="stroke:#000000;stroke-width:0.8;" x="273.885654" xlink:href="#m7cf3b50b35" y="191.6135"/>
      </g>
     </g>
     <g id="text_3">
      <!-- 7 -->
      <defs>
       <path d="M 45.09375 61.578125 
L 45.09375 63.765625 
L 21.59375 63.765625 
C 9.90625 63.765625 9.703125 65.078125 9.296875 67 
L 7.5 67 
L 4.59375 48.34375 
L 6.40625 48.34375 
C 6.703125 50.234375 7.40625 55.3125 8.59375 57.203125 
C 9.203125 58 16.59375 58 18.296875 58 
L 40.296875 58 
L 29.203125 41.578125 
C 21.796875 30.53125 16.703125 15.609375 16.703125 2.578125 
C 16.703125 1.390625 16.703125 -2 20.296875 -2 
C 23.90625 -2 23.90625 1.390625 23.90625 2.671875 
L 23.90625 7.265625 
C 23.90625 23.5625 26.703125 34.3125 31.296875 41.1875 
z
" id="CMR17-55"/>
      </defs>
      <g transform="translate(273.944388 211.959133)rotate(-45)scale(0.16 -0.16)">
       <use transform="scale(0.996264)" xlink:href="#CMR17-55"/>
      </g>
     </g>
    </g>
    <g id="xtick_4">
     <g id="line2d_4">
      <g>
       <use style="stroke:#000000;stroke-width:0.8;" x="379.425181" xlink:href="#m7cf3b50b35" y="191.6135"/>
      </g>
     </g>
     <g id="text_4">
      <!-- 14 -->
      <defs>
       <path d="M 26.59375 63.40625 
C 26.59375 65.5 26.5 65.5 25.09375 65.5 
C 21.203125 61.1875 15.296875 59.796875 9.703125 59.796875 
C 9.40625 59.796875 8.90625 59.796875 8.796875 59.5 
C 8.703125 59.296875 8.703125 59.09375 8.703125 57 
C 11.796875 57 17 57.59375 21 59.984375 
L 21 7.203125 
C 21 3.6875 20.796875 2.5 12.203125 2.5 
L 9.203125 2.5 
L 9.203125 0 
C 14 0 19 0 23.796875 0 
C 28.59375 0 33.59375 0 38.40625 0 
L 38.40625 2.5 
L 35.40625 2.5 
C 26.796875 2.5 26.59375 3.59375 26.59375 7.15625 
z
" id="CMR17-49"/>
      </defs>
      <g transform="translate(376.724789 217.477385)rotate(-45)scale(0.16 -0.16)">
       <use transform="scale(0.996264)" xlink:href="#CMR17-49"/>
       <use transform="translate(45.690477 0)scale(0.996264)" xlink:href="#CMR17-52"/>
      </g>
     </g>
    </g>
    <g id="xtick_5">
     <g id="line2d_5">
      <g>
       <use style="stroke:#000000;stroke-width:0.8;" x="490.30776" xlink:href="#m7cf3b50b35" y="191.6135"/>
      </g>
     </g>
     <g id="text_5">
      <!-- 29 -->
      <defs>
       <path d="M 35.203125 29.125 
C 35.203125 7.25 26.09375 0.484375 18.59375 0.484375 
C 16.296875 0.484375 10.703125 0.484375 8.40625 4.59375 
C 11 4.1875 12.90625 5.578125 12.90625 8.09375 
C 12.90625 10.8125 10.703125 11.703125 9.296875 11.703125 
C 8.40625 11.703125 5.703125 11.296875 5.703125 7.90625 
C 5.703125 1.109375 11.59375 -2 18.796875 -2 
C 30.296875 -2 42 10.53125 42 32.390625 
C 42 59.640625 30.796875 65.296875 23.203125 65.296875 
C 13.296875 65.296875 3.796875 56.6875 3.796875 43.40625 
C 3.796875 31.109375 11.90625 22 22.09375 22 
C 30.5 22 34.203125 29.734375 35.203125 33 
z
M 22.296875 23.59375 
C 19.59375 23.59375 15.796875 24.09375 12.703125 30.03125 
C 10.59375 33.890625 10.59375 38.453125 10.59375 43.296875 
C 10.59375 49.15625 10.59375 53.203125 13.40625 57.5625 
C 14.796875 59.640625 17.40625 63 23.203125 63 
C 35 63 35 45.078125 35 41.125 
C 35 34.09375 31.796875 23.59375 22.296875 23.59375 
z
" id="CMR17-57"/>
      </defs>
      <g transform="translate(487.607368 217.477385)rotate(-45)scale(0.16 -0.16)">
       <use transform="scale(0.996264)" xlink:href="#CMR17-50"/>
       <use transform="translate(45.690477 0)scale(0.996264)" xlink:href="#CMR17-57"/>
      </g>
     </g>
    </g>
    <g id="text_6">
     <!-- \textbf{Number of Annotated Training Images} -->
     <defs>
      <path d="M 29 66.90625 
C 28 68 27.90625 68 25.90625 68 
L 3.796875 68 
L 3.796875 63.828125 
L 14.40625 63.828125 
L 14.40625 6.953125 
C 14.40625 4.75 14.296875 4.65625 11.703125 4.25 
C 9.90625 4.0625 7.90625 4.0625 6.09375 4.0625 
L 3.796875 4.0625 
L 3.796875 -0.203125 
C 6.09375 0 13.90625 0 16.703125 0 
C 19.5 0 27.40625 0 29.703125 -0.203125 
L 29.703125 4.0625 
L 27.40625 4.0625 
C 24.703125 4.0625 24.5 4.0625 22.09375 4.359375 
C 19.203125 4.765625 19.09375 4.859375 19.09375 7.046875 
L 19.09375 60.4375 
L 68.59375 1.296875 
C 69.703125 0.09375 69.796875 0 71.09375 0 
C 73.5 0 73.5 0.59375 73.5 2.875 
L 73.5 60.9375 
C 73.5 63.125 73.59375 63.234375 76.203125 63.625 
C 78 63.828125 80 63.828125 81.796875 63.828125 
L 84.09375 63.828125 
L 84.09375 68.109375 
C 81.796875 68 74 68 71.203125 68 
C 68.40625 68 60.5 68 58.203125 68.109375 
L 58.203125 63.828125 
L 60.5 63.828125 
C 63.203125 63.828125 63.40625 63.828125 65.796875 63.53125 
C 68.703125 63.140625 68.796875 63.03125 68.796875 60.828125 
L 68.796875 19.203125 
z
" id="CMBX12-78"/>
      <path d="M 35.296875 44.671875 
L 35.296875 40 
C 41.5 40 42.203125 40 42.203125 36.125 
L 42.203125 16.5 
C 42.203125 8.890625 37.703125 2.78125 29.90625 2.78125 
C 22.40625 2.78125 22 5.265625 22 10.6875 
L 22 44.671875 
L 4.203125 44.671875 
L 4.203125 40 
C 10.40625 40 11.09375 40 11.09375 36.125 
L 11.09375 12.40625 
C 11.09375 2.390625 17.796875 -0.5 28.5 -0.5 
C 30.90625 -0.5 38.296875 -0.5 42.59375 7.75 
L 42.703125 7.75 
L 42.703125 0 
L 60 0 
L 60 4.5625 
C 53.796875 4.5625 53.09375 4.5625 53.09375 8.4375 
L 53.09375 44.671875 
z
" id="CMBX12-117"/>
      <path d="M 84.40625 30.0625 
C 84.40625 39.15625 80.5 44.28125 69.296875 44.28125 
C 59.203125 44.28125 54.5 37.609375 52.90625 34.46875 
C 51.296875 42.8125 44.5 44.28125 38.09375 44.28125 
C 28.5 44.28125 23.296875 38.203125 21.203125 33.484375 
L 21.09375 33.484375 
L 21.09375 44 
L 4.203125 44 
L 4.203125 39.328125 
C 10.40625 39.328125 11.09375 39.328125 11.09375 35.46875 
L 11.09375 4.0625 
L 4.203125 4.0625 
L 4.203125 -0.203125 
C 6.5 0 13.703125 0 16.5 0 
C 19.296875 0 26.59375 0 28.90625 -0.203125 
L 28.90625 4.0625 
L 22 4.0625 
L 22 25.109375 
C 22 35.875 30.09375 41 36.40625 41 
C 40.09375 41 42.296875 38.828125 42.296875 31.140625 
L 42.296875 4.0625 
L 35.40625 4.0625 
L 35.40625 -0.203125 
C 37.703125 0 44.90625 0 47.703125 0 
C 50.5 0 57.796875 0 60.09375 -0.203125 
L 60.09375 4.0625 
L 53.203125 4.0625 
L 53.203125 25.109375 
C 53.203125 35.875 61.296875 41 67.59375 41 
C 71.296875 41 73.5 38.828125 73.5 31.140625 
L 73.5 4.0625 
L 66.59375 4.0625 
L 66.59375 -0.203125 
C 68.90625 0 76.09375 0 78.90625 0 
C 81.703125 0 89 0 91.296875 -0.203125 
L 91.296875 4.0625 
L 84.40625 4.0625 
z
" id="CMBX12-109"/>
      <path d="M 20.796875 69 
L 3.5 69 
L 3.5 64.328125 
C 9.703125 64.328125 10.40625 64.328125 10.40625 60.421875 
L 10.40625 0 
L 14.59375 0 
C 16.296875 1.921875 18 3.859375 19.59375 5.875 
C 24.703125 0.59375 30.203125 -0.5 34.203125 -0.5 
C 48 -0.5 58.59375 7.875 58.59375 22.359375 
C 58.59375 36.015625 49.203125 45 35.5 45 
C 29.59375 45 24.90625 43.109375 20.796875 39.921875 
z
M 21.296875 35.125 
C 24.796875 39.921875 30 41.71875 34.203125 41.71875 
C 46.59375 41.71875 46.59375 29.046875 46.59375 22.453125 
C 46.59375 17.953125 46.59375 12.265625 44.203125 8.5625 
C 41.09375 3.765625 36.40625 2.78125 33.203125 2.78125 
C 26.40625 2.78125 22.703125 7.5625 21.296875 9.765625 
z
" id="CMBX12-98"/>
      <path d="M 45.203125 22 
C 47.5 22 48.09375 22 48.09375 24.484375 
C 48.09375 27.46875 47.40625 34.890625 42.796875 39.5625 
C 38.59375 43.71875 33 45 27.203125 45 
C 11.59375 45 3.09375 34.890625 3.09375 22.40625 
C 3.09375 8.515625 13.40625 -0.5 28.5 -0.5 
C 43.59375 -0.5 48.09375 10 48.09375 11.6875 
C 48.09375 13.171875 46.59375 13.171875 46 13.171875 
C 44.40625 13.171875 44.296875 12.875 43.703125 11.59375 
C 41.09375 5.15625 34.5 3.078125 29.703125 3.078125 
C 15.203125 3.078125 15.09375 16.453125 15.09375 22 
z
M 15.09375 24.890625 
C 15.296875 28.9375 15.40625 32.8125 17.5 36.375 
C 19.40625 39.546875 22.90625 41.71875 27.203125 41.71875 
C 37.90625 41.71875 38.796875 29.828125 38.90625 24.890625 
z
" id="CMBX12-101"/>
      <path d="M 20.796875 22.046875 
C 20.796875 25.296875 21.5 41 33.203125 41 
C 31.796875 39.921875 31.09375 38.25 31.09375 36.5 
C 31.09375 32.484375 34.40625 30.8125 36.90625 30.8125 
C 39.40625 30.8125 42.703125 32.484375 42.703125 36.515625 
C 42.703125 41.53125 37.5 44.28125 32.703125 44.28125 
C 24.796875 44.28125 21.40625 37.515625 20 33.390625 
L 19.90625 33.390625 
L 19.90625 44 
L 3.5 44 
L 3.5 39.328125 
C 9.703125 39.328125 10.40625 39.328125 10.40625 35.46875 
L 10.40625 4.0625 
L 3.5 4.0625 
L 3.5 -0.203125 
C 5.796875 0 13.296875 0 16.09375 0 
C 19 0 27.09375 0 29.5 -0.203125 
L 29.5 4.0625 
L 20.796875 4.0625 
z
" id="CMBX12-114"/>
      <path d="M 53 21.796875 
C 53 35.1875 43.796875 45 28.09375 45 
C 11.796875 45 3.09375 34.6875 3.09375 21.796875 
C 3.09375 8.828125 12.296875 -0.5 28 -0.5 
C 44.296875 -0.5 53 9.3125 53 21.796875 
z
M 28.09375 3.078125 
C 15.09375 3.078125 15.09375 14.671875 15.09375 22.796875 
C 15.09375 27.453125 15.09375 32.40625 17 35.984375 
C 19.203125 39.9375 23.703125 41.71875 28 41.71875 
C 33.703125 41.71875 37.296875 39.046875 39 36.28125 
C 41 32.703125 41 27.546875 41 22.796875 
C 41 14.5625 41 3.078125 28.09375 3.078125 
z
" id="CMBX12-111"/>
      <path d="M 21.703125 39.734375 
L 33.09375 39.734375 
L 33.09375 44 
L 21.203125 44 
L 21.203125 54.15625 
C 21.203125 64.421875 27.796875 66 31.09375 66 
C 32.203125 66 32.40625 65.890625 33 65.703125 
C 31.5 64.703125 30.59375 63.03125 30.59375 60.96875 
C 30.59375 57.015625 33.796875 55.25 36.40625 55.25 
C 38.59375 55.25 42.203125 56.71875 42.203125 61.078125 
C 42.203125 65.125 38.59375 69.28125 31.5 69.28125 
C 22.40625 69.28125 11.296875 65.515625 11.296875 54.0625 
L 11.296875 44 
L 3.90625 44 
L 3.90625 39.734375 
L 11.296875 39.734375 
L 11.296875 4.0625 
L 4.40625 4.0625 
L 4.40625 -0.203125 
C 6.703125 0 14.203125 0 17 0 
C 19.90625 0 28 0 30.40625 -0.203125 
L 30.40625 4.0625 
L 21.703125 4.0625 
z
" id="CMBX12-102"/>
      <path d="M 45.796875 67.203125 
C 45.09375 69 44.90625 69.5 42.5 69.5 
C 40 69.5 39.796875 69 39.09375 67.203125 
L 14.296875 6.453125 
C 13.59375 4.859375 13.59375 4.671875 10.796875 4.359375 
C 8.296875 4.0625 7.90625 4.0625 5.703125 4.0625 
L 3.90625 4.0625 
L 3.90625 -0.203125 
C 6.5 0 12.5 0 15.40625 0 
C 18.09375 0 25.40625 0 27.703125 -0.203125 
L 27.703125 4.0625 
C 25.5 4.0625 21.703125 4.0625 18.90625 5.171875 
C 19.203125 6.09375 19.203125 6.28125 19.40625 6.6875 
L 24.703125 19.71875 
L 51.5 19.71875 
L 57.796875 4.0625 
L 48.40625 4.0625 
L 48.40625 0 
C 51.59375 0 61.296875 0 65.09375 0 
C 68.296875 0 78.5 0 81 -0.203125 
L 81 4.0625 
L 71.5 4.0625 
z
M 38.09375 52.609375 
L 49.703125 24 
L 26.40625 24 
z
" id="CMBX12-65"/>
      <path d="M 53.09375 30.0625 
C 53.09375 39.453125 49 44.28125 38 44.28125 
C 30.796875 44.28125 24.59375 40.859375 21.203125 33.484375 
L 21.09375 33.484375 
L 21.09375 44 
L 4.203125 44 
L 4.203125 39.328125 
C 10.40625 39.328125 11.09375 39.328125 11.09375 35.46875 
L 11.09375 4.0625 
L 4.203125 4.0625 
L 4.203125 -0.203125 
C 6.5 0 13.703125 0 16.5 0 
C 19.296875 0 26.59375 0 28.90625 -0.203125 
L 28.90625 4.0625 
L 22 4.0625 
L 22 25.109375 
C 22 35.765625 30 41 36.40625 41 
C 40.09375 41 42.203125 38.640625 42.203125 31.140625 
L 42.203125 4.0625 
L 35.296875 4.0625 
L 35.296875 -0.203125 
C 37.59375 0 44.796875 0 47.59375 0 
C 50.40625 0 57.703125 0 60 -0.203125 
L 60 4.0625 
L 53.09375 4.0625 
z
" id="CMBX12-110"/>
      <path d="M 21.09375 40 
L 35.5 40 
L 35.5 44.265625 
L 21.09375 44.265625 
L 21.09375 63 
L 16.90625 63 
C 16.796875 53.203125 12 43.375 2.09375 43.375 
L 2.09375 40 
L 10.203125 40 
L 10.203125 12.328125 
C 10.203125 1.78125 18.40625 -0.5 25.59375 -0.5 
C 33 -0.5 37.40625 5.078125 37.40625 12.421875 
L 37.40625 17.703125 
L 33.203125 17.703125 
L 33.203125 12.53125 
C 33.203125 5.953125 30.203125 3.078125 27.09375 3.078125 
C 21.09375 3.078125 21.09375 9.75 21.09375 12.03125 
z
" id="CMBX12-116"/>
      <path d="M 46 29.65625 
C 46 38.8125 38.703125 44.984375 24.59375 44.984375 
C 19 44.984375 7.203125 44.984375 7.203125 36.46875 
C 7.203125 32.203125 10.40625 30.390625 13.09375 30.390625 
C 16.09375 30.390625 19 32.484375 19 36.296875 
C 19 38.203125 18.296875 39.984375 16.59375 41.09375 
C 19.90625 42 22.296875 42 24.203125 42 
C 31 42 35.09375 38.203125 35.09375 29.984375 
L 35.09375 25.984375 
C 19.296875 25.984375 3.40625 21.59375 3.40625 10.5625 
C 3.40625 1.484375 15 -0.5 21.90625 -0.5 
C 29.59375 -0.5 34.5 3.640625 36.5 7.96875 
C 36.5 4.28125 36.5 0 46.59375 0 
L 51.703125 0 
C 53.796875 0 54.59375 0 54.59375 2.265625 
C 54.59375 4.265625 53.703125 4.265625 52.296875 4.265625 
C 46 4.265625 46 5.84375 46 8.15625 
z
M 35.09375 13.78125 
C 35.09375 4.546875 26.703125 2.78125 23.5 2.78125 
C 18.59375 2.78125 14.5 6.09375 14.5 10.71875 
C 14.5 19.890625 25.296875 23 35.09375 23 
z
" id="CMBX12-97"/>
      <path d="M 34.703125 69 
L 34.703125 64.328125 
C 40.90625 64.328125 41.59375 64.328125 41.59375 60.421875 
L 41.59375 40.234375 
C 39.40625 42.125 35 45 28.09375 45 
C 13.90625 45 3.796875 36.21875 3.796875 22.25 
C 3.796875 7.96875 13.703125 -0.5 27 -0.5 
C 32.5 -0.5 37.203125 1.46875 41.09375 4.859375 
L 41.09375 0 
L 58.90625 0 
L 58.90625 4.5625 
C 52.703125 4.5625 52 4.5625 52 8.4375 
L 52 69 
z
M 41.09375 10.328125 
C 36.90625 4.09375 31.796875 2.78125 28.203125 2.78125 
C 15.796875 2.78125 15.796875 15.453125 15.796875 22.046875 
C 15.796875 26.75 15.796875 31.75 18 35.53125 
C 21.09375 41.125 27 41.71875 29.296875 41.71875 
C 33.40625 41.71875 37.796875 39.9375 41.09375 35.5625 
z
" id="CMBX12-100"/>
      <path d="M 72 67.265625 
L 6.09375 67.265625 
L 4.09375 43.703125 
L 8.296875 43.703125 
C 9.203125 54.546875 10 63 24.40625 63 
L 32.5 63 
L 32.5 4.171875 
L 17.40625 4.171875 
L 17.40625 0 
C 25.40625 0 35.703125 0 39.09375 0 
C 45.203125 0 52.796875 0 60.796875 0 
L 60.796875 4.171875 
L 45.703125 4.171875 
L 45.703125 63 
L 53.703125 63 
C 68.09375 63 68.90625 54.640625 69.796875 43.703125 
L 74 43.703125 
z
" id="CMBX12-84"/>
      <path d="M 22.296875 61.84375 
C 22.296875 65.921875 19 69 15.09375 69 
C 11 69 7.90625 65.625 7.90625 61.84375 
C 7.90625 58.0625 11 54.6875 15.09375 54.6875 
C 19 54.6875 22.296875 57.765625 22.296875 61.84375 
z
M 4.703125 44 
L 4.703125 39.328125 
C 10.59375 39.328125 11.296875 39.328125 11.296875 35.46875 
L 11.296875 4.0625 
L 4.40625 4.0625 
L 4.40625 -0.203125 
C 6.703125 0 13.59375 0 16.296875 0 
C 19.09375 0 25.5 0 27.90625 -0.203125 
L 27.90625 4.0625 
L 21.703125 4.0625 
L 21.703125 44 
z
" id="CMBX12-105"/>
      <path d="M 13 18.578125 
C 17.796875 16 23.40625 16 24.90625 16 
C 38.703125 16 44.203125 23.65625 44.203125 30.625 
C 44.203125 35.703125 41.296875 39.296875 40.09375 40.28125 
C 43 41.8125 45.40625 42.1875 47.09375 42.390625 
C 46.796875 41.90625 46.5 41.53125 46.5 40.28125 
C 46.5 38.28125 47.90625 36.46875 50.5 36.46875 
C 53.09375 36.46875 54.5 38.359375 54.5 40.4375 
C 54.5 42.828125 52.703125 46 48.5 46 
C 44.203125 46 40.09375 43.796875 38 41.90625 
C 33.90625 44.28125 30 45.171875 24.90625 45.171875 
C 11.09375 45.171875 5.59375 37.546875 5.59375 30.578125 
C 5.59375 27.5 6.59375 23.453125 10.796875 20.078125 
C 9.09375 18.140625 7.296875 14.578125 7.296875 10.921875 
C 7.296875 6.5625 9.59375 2.8125 11.703125 1.1875 
C 9.296875 0.609375 3.09375 -1.640625 3.09375 -7.203125 
C 3.09375 -12.96875 9.59375 -19.5 28 -19.5 
C 44.59375 -19.5 53 -14.21875 53 -6.859375 
C 53 1.78125 47.203125 4.609375 44.703125 5.78125 
C 39.90625 8.140625 33.5 8.140625 24.703125 8.140625 
C 22.203125 8.140625 17.796875 8.140625 17.296875 8.234375 
C 13 8.984375 11.796875 12.953125 11.796875 14.953125 
C 11.796875 15.78125 11.90625 17.296875 13 18.578125 
z
M 24.90625 19.171875 
C 16.203125 19.171875 16.203125 26.015625 16.203125 30.578125 
C 16.203125 35.15625 16.203125 42 24.90625 42 
C 33.59375 42 33.59375 35.15625 33.59375 30.578125 
C 33.59375 26.015625 33.59375 19.171875 24.90625 19.171875 
z
M 30.5 -1 
C 37.796875 -1 44.796875 -2.265625 44.796875 -7.296875 
C 44.796875 -10.703125 41.296875 -16.328125 28.09375 -16.328125 
C 14.90625 -16.328125 11.296875 -10.890625 11.296875 -7.203125 
C 11.296875 -1 17.59375 -1 19.09375 -1 
z
" id="CMBX12-103"/>
      <path d="M 27.5 63.828125 
L 38.703125 63.828125 
L 38.703125 68 
C 35.09375 68 25.09375 68 20.90625 68 
C 16.703125 68 6.703125 68 3.09375 68 
L 3.09375 63.828125 
L 14.296875 63.828125 
L 14.296875 4.171875 
L 3.09375 4.171875 
L 3.09375 0 
C 6.703125 0 16.703125 0 20.90625 0 
C 25.09375 0 35.09375 0 38.703125 0 
L 38.703125 4.171875 
L 27.5 4.171875 
z
" id="CMBX12-73"/>
      <path d="M 37.703125 42.421875 
C 37.703125 44.3125 37.703125 45 36.203125 45 
C 35.59375 45 35.40625 45 33.90625 44.109375 
C 33.5 43.8125 32.40625 43.109375 31.90625 42.8125 
C 29.09375 44.40625 25.40625 45 21.796875 45 
C 18.796875 45 3.796875 45 3.796875 32.125 
C 3.796875 21.703125 16.203125 19.53125 19.296875 19.03125 
C 22 18.546875 25.296875 17.9375 25.703125 17.9375 
C 29.703125 17.046875 33.703125 14.5625 33.703125 10.40625 
C 33.703125 2.78125 24.59375 2.78125 22.5 2.78125 
C 17.40625 2.78125 11.09375 4.359375 8.296875 14 
C 7.703125 15.984375 7.59375 15.984375 5.90625 15.984375 
C 3.796875 15.984375 3.796875 15.6875 3.796875 13.40625 
L 3.796875 2.0625 
C 3.796875 0.1875 3.796875 -0.5 5.296875 -0.5 
C 6 -0.5 6.203125 -0.5 8.203125 1.09375 
L 10.796875 2.984375 
C 15.296875 -0.5 20.703125 -0.5 22.5 -0.5 
C 28 -0.5 40.5 0.6875 40.5 13.875 
C 40.5 18.625 37.90625 21.90625 35.90625 23.6875 
C 31.796875 27.046875 28.40625 27.65625 23 28.640625 
C 16.59375 29.734375 10.59375 30.828125 10.59375 35.578125 
C 10.59375 42.015625 19.5 42.015625 21.59375 42.015625 
C 32.703125 42.015625 33.296875 35.078125 33.5 32.609375 
C 33.59375 31.328125 34.40625 31.328125 35.59375 31.328125 
C 37.703125 31.328125 37.703125 31.625 37.703125 33.90625 
z
" id="CMBX12-115"/>
     </defs>
     <g transform="translate(133.059185 234.738634)scale(0.16 -0.16)">
      <use transform="scale(0.996264)" xlink:href="#CMBX12-78"/>
      <use transform="translate(87.634475 0)scale(0.996264)" xlink:href="#CMBX12-117"/>
      <use transform="translate(149.900976 0)scale(0.996264)" xlink:href="#CMBX12-109"/>
      <use transform="translate(240.187401 0)scale(0.996264)" xlink:href="#CMBX12-98"/>
      <use transform="translate(305.567227 0)scale(0.996264)" xlink:href="#CMBX12-101"/>
      <use transform="translate(356.706494 0)scale(0.996264)" xlink:href="#CMBX12-114"/>
      <use transform="translate(439.843902 0)scale(0.996264)" xlink:href="#CMBX12-111"/>
      <use transform="translate(495.883753 0)scale(0.996264)" xlink:href="#CMBX12-102"/>
      <use transform="translate(567.490228 0)scale(0.996264)" xlink:href="#CMBX12-65"/>
      <use transform="translate(652.126623 0)scale(0.996264)" xlink:href="#CMBX12-110"/>
      <use transform="translate(714.393124 0)scale(0.996264)" xlink:href="#CMBX12-110"/>
      <use transform="translate(776.659624 0)scale(0.996264)" xlink:href="#CMBX12-111"/>
      <use transform="translate(832.699475 0)scale(0.996264)" xlink:href="#CMBX12-116"/>
      <use transform="translate(876.286025 0)scale(0.996264)" xlink:href="#CMBX12-97"/>
      <use transform="translate(930.769213 0)scale(0.996264)" xlink:href="#CMBX12-116"/>
      <use transform="translate(974.355764 0)scale(0.996264)" xlink:href="#CMBX12-101"/>
      <use transform="translate(1025.495031 0)scale(0.996264)" xlink:href="#CMBX12-100"/>
      <use transform="translate(1125.121432 0)scale(0.996264)" xlink:href="#CMBX12-84"/>
      <use transform="translate(1193.729827 0)scale(0.996264)" xlink:href="#CMBX12-114"/>
      <use transform="translate(1239.507335 0)scale(0.996264)" xlink:href="#CMBX12-97"/>
      <use transform="translate(1293.990523 0)scale(0.996264)" xlink:href="#CMBX12-105"/>
      <use transform="translate(1325.123773 0)scale(0.996264)" xlink:href="#CMBX12-110"/>
      <use transform="translate(1387.390274 0)scale(0.996264)" xlink:href="#CMBX12-105"/>
      <use transform="translate(1418.523524 0)scale(0.996264)" xlink:href="#CMBX12-110"/>
      <use transform="translate(1480.790024 0)scale(0.996264)" xlink:href="#CMBX12-103"/>
      <use transform="translate(1574.189775 0)scale(0.996264)" xlink:href="#CMBX12-73"/>
      <use transform="translate(1615.931483 0)scale(0.996264)" xlink:href="#CMBX12-109"/>
      <use transform="translate(1709.331234 0)scale(0.996264)" xlink:href="#CMBX12-97"/>
      <use transform="translate(1763.814422 0)scale(0.996264)" xlink:href="#CMBX12-103"/>
      <use transform="translate(1819.854273 0)scale(0.996264)" xlink:href="#CMBX12-101"/>
      <use transform="translate(1870.99354 0)scale(0.996264)" xlink:href="#CMBX12-115"/>
     </g>
    </g>
   </g>
   <g id="matplotlib.axis_2">
    <g id="ytick_1">
     <g id="line2d_6">
      <path clip-path="url(#p1dbbfae57b)" d="M 72.088558 129.249791 
L 500.462279 129.249791 
" style="fill:none;stroke:#b0b0b0;stroke-linecap:square;stroke-width:0.8;"/>
     </g>
     <g id="line2d_7">
      <defs>
       <path d="M 0 0 
L -3.5 0 
" id="m2013338f16" style="stroke:#000000;stroke-width:0.8;"/>
      </defs>
      <g>
       <use style="stroke:#000000;stroke-width:0.8;" x="72.088558" xlink:href="#m2013338f16" y="129.249791"/>
      </g>
     </g>
     <g id="text_7">
      <!-- $0.6$ -->
      <defs>
       <path d="M 42 31.640625 
C 42 37.75 41.90625 48.125 37.703125 56.109375 
C 34 63.109375 28.09375 65.59375 22.90625 65.59375 
C 18.09375 65.59375 12 63.40625 8.203125 56.203125 
C 4.203125 48.71875 3.796875 39.4375 3.796875 31.640625 
C 3.796875 25.953125 3.90625 17.28125 7 9.671875 
C 11.296875 -0.609375 19 -2 22.90625 -2 
C 27.5 -2 34.5 -0.109375 38.59375 9.375 
C 41.59375 16.28125 42 24.359375 42 31.640625 
z
M 22.90625 -0.40625 
C 16.5 -0.40625 12.703125 5.078125 11.296875 12.6875 
C 10.203125 18.5625 10.203125 27.15625 10.203125 32.75 
C 10.203125 40.4375 10.203125 46.828125 11.5 52.921875 
C 13.40625 61.390625 19 64 22.90625 64 
C 27 64 32.296875 61.296875 34.203125 53.125 
C 35.5 47.4375 35.59375 40.734375 35.59375 32.75 
C 35.59375 26.25 35.59375 18.265625 34.40625 12.375 
C 32.296875 1.484375 26.40625 -0.40625 22.90625 -0.40625 
z
" id="CMR17-48"/>
       <path d="M 18.40625 4.796875 
C 18.40625 7.6875 16 9.671875 13.59375 9.671875 
C 10.703125 9.671875 8.703125 7.28125 8.703125 4.890625 
C 8.703125 2 11.09375 0 13.5 0 
C 16.40625 0 18.40625 2.390625 18.40625 4.796875 
z
" id="CMMI12-58"/>
       <path d="M 10.59375 34 
C 10.59375 57.65625 21.796875 63 28.296875 63 
C 30.40625 63 35.5 62.640625 37.5 59 
C 35.90625 59 32.90625 59 32.90625 55.515625 
C 32.90625 52.828125 35.09375 51.921875 36.5 51.921875 
C 37.40625 51.921875 40.09375 52.3125 40.09375 55.625 
C 40.09375 61.78125 35.09375 65.296875 28.203125 65.296875 
C 16.296875 65.296875 3.796875 52.96875 3.796875 31 
C 3.796875 3.953125 15.09375 -2 23.09375 -2 
C 32.796875 -2 42 6.671875 42 20.046875 
C 42 32.515625 33.90625 41.59375 23.703125 41.59375 
C 17.59375 41.59375 13.09375 37.609375 10.59375 30.625 
z
M 23.09375 0.390625 
C 10.796875 0.390625 10.796875 18.75 10.796875 22.4375 
C 10.796875 29.625 14.203125 40 23.5 40 
C 25.203125 40 30.09375 40 33.40625 33.125 
C 35.203125 29.21875 35.203125 25.140625 35.203125 20.140625 
C 35.203125 14.75 35.203125 10.78125 33.09375 6.78125 
C 30.90625 2.671875 27.703125 0.390625 23.09375 0.390625 
z
" id="CMR17-54"/>
      </defs>
      <g transform="translate(48.794698 145.644578)rotate(-45)scale(0.16 -0.16)">
       <use transform="scale(0.996264)" xlink:href="#CMR17-48"/>
       <use transform="translate(45.690477 0)scale(0.996264)" xlink:href="#CMMI12-58"/>
       <use transform="translate(72.787654 0)scale(0.996264)" xlink:href="#CMR17-54"/>
      </g>
     </g>
    </g>
    <g id="ytick_2">
     <g id="line2d_8">
      <path clip-path="url(#p1dbbfae57b)" d="M 72.088558 65.183973 
L 500.462279 65.183973 
" style="fill:none;stroke:#b0b0b0;stroke-linecap:square;stroke-width:0.8;"/>
     </g>
     <g id="line2d_9">
      <g>
       <use style="stroke:#000000;stroke-width:0.8;" x="72.088558" xlink:href="#m2013338f16" y="65.183973"/>
      </g>
     </g>
     <g id="text_8">
      <!-- $0.7$ -->
      <g transform="translate(48.794698 81.578759)rotate(-45)scale(0.16 -0.16)">
       <use transform="scale(0.996264)" xlink:href="#CMR17-48"/>
       <use transform="translate(45.690477 0)scale(0.996264)" xlink:href="#CMMI12-58"/>
       <use transform="translate(72.787654 0)scale(0.996264)" xlink:href="#CMR17-55"/>
      </g>
     </g>
    </g>
    <g id="text_9">
     <!-- \textbf{SEG} -->
     <defs>
      <path d="M 25.40625 43.46875 
C 15.5 45.625 15.203125 52.75 15.203125 54.140625 
C 15.203125 59.171875 18.5 65.03125 28.203125 65.03125 
C 37.90625 65.03125 46.59375 60.359375 48.703125 47.34375 
C 49 45.25 49 45.25 50.90625 45.25 
C 53 45.25 53 45.546875 53 47.8125 
L 53 66.4375 
C 53 68.3125 53 69.015625 51.5 69.015625 
C 50.796875 69.015625 50.5 68.921875 49.59375 67.921875 
L 45.296875 63.046875 
C 42.796875 65.140625 37.796875 69 28.09375 69 
C 13.796875 69 6.203125 60.09375 6.203125 49.3125 
C 6.203125 42.6875 9.796875 38.03125 11.203125 36.640625 
C 16.40625 31.5 19.203125 30.90625 29.59375 28.625 
C 39.59375 26.453125 40.796875 26.25 43 24.1875 
C 44.296875 22.890625 47.203125 20.125 47.203125 15.078125 
C 47.203125 10.8125 45.09375 3 33.90625 3 
C 25.09375 3 11.203125 5.96875 10.40625 20.421875 
C 10.296875 22.203125 10.296875 22.5 8.296875 22.5 
C 6.203125 22.5 6.203125 22.203125 6.203125 19.921875 
L 6.203125 1.296875 
C 6.203125 -0.59375 6.203125 -1.28125 7.703125 -1.28125 
C 8.40625 -1.28125 8.5 -1.1875 9.5 -0.296875 
C 10.59375 0.796875 11.5 2.09375 14 4.578125 
C 19.796875 0.015625 28 -1.265625 34 -1.265625 
C 49.59375 -1.265625 56.203125 9.21875 56.203125 19.71875 
C 56.203125 29 50 37.90625 39.09375 40.375 
z
" id="CMBX12-83"/>
      <path d="M 70.59375 26.90625 
L 66.40625 26.90625 
C 64.296875 12.046875 60.59375 4.265625 43.203125 4.265625 
L 27.59375 4.265625 
L 27.59375 33 
L 33.5 33 
C 43.09375 33 44.09375 28.953125 44.09375 21.484375 
L 48.296875 21.484375 
L 48.296875 49 
L 44.09375 49 
C 44.09375 41.484375 43.09375 37.265625 33.5 37.265625 
L 27.59375 37.265625 
L 27.59375 63.71875 
L 43.203125 63.71875 
C 58.5 63.71875 61.796875 57.171875 63.296875 44.1875 
L 67.5 44.1875 
L 64.59375 68 
L 3.796875 68 
L 3.796875 63.71875 
L 14.40625 63.71875 
L 14.40625 4.265625 
L 3.796875 4.265625 
L 3.796875 0 
L 66.296875 0 
z
" id="CMBX12-69"/>
      <path d="M 74.90625 22.828125 
L 82.703125 22.828125 
L 82.703125 27.09375 
C 80.296875 27 69.59375 27 66.40625 27 
C 60.296875 27 53.703125 27 47.59375 27 
L 47.59375 22.828125 
L 61.703125 22.828125 
L 61.703125 12.671875 
C 61.703125 10.578125 61.703125 7.78125 57.703125 5.28125 
C 55.703125 4 52.59375 3 48.40625 3 
C 42.703125 3 32.796875 4.390625 26.59375 11.609375 
C 22.703125 16.046875 20.296875 22.09375 20.296875 33.953125 
C 20.296875 44.15625 22 51.078125 26.5 56.3125 
C 32.90625 63.734375 42.90625 64.734375 47.703125 64.734375 
C 55.203125 64.734375 67.296875 60.578125 70.296875 43.25 
C 70.5 42.359375 71.40625 42.359375 72.59375 42.359375 
C 74.90625 42.359375 74.90625 42.5625 74.90625 44.9375 
L 74.90625 66.453125 
C 74.90625 68.734375 74.90625 69.03125 72.703125 69.03125 
L 65.203125 61.875 
C 59.59375 66.625 52.90625 69 45.5 69 
C 21.59375 69 6.203125 54.640625 6.203125 33.859375 
C 6.203125 13.46875 21.09375 -1.265625 45.59375 -1.265625 
C 52.296875 -1.265625 60.203125 0.21875 64.296875 5.484375 
C 67.703125 2.359375 73.40625 0 73.703125 0 
C 74.90625 0 74.90625 1 74.90625 2.578125 
z
" id="CMBX12-71"/>
     </defs>
     <g transform="translate(33.86784 122.361055)rotate(-90)scale(0.16 -0.16)">
      <use transform="scale(0.996264)" xlink:href="#CMBX12-83"/>
      <use transform="translate(62.266501 0)scale(0.996264)" xlink:href="#CMBX12-69"/>
      <use transform="translate(135.833246 0)scale(0.996264)" xlink:href="#CMBX12-71"/>
     </g>
    </g>
   </g>
   <g id="PolyCollection_1">
    <defs>
     <path d="M 83.13827 -71.42886 
L 83.13827 -124.141937 
L 188.677797 -179.52674 
L 273.885654 -214.348663 
L 379.425181 -223.586096 
L 490.30776 -229.91386 
L 490.30776 -225.464281 
L 490.30776 -225.464281 
L 379.425181 -211.077911 
L 273.885654 -188.32831 
L 188.677797 -107.77915 
L 83.13827 -71.42886 
z
" id="m917eb006f3" style="stroke:#526b34;stroke-opacity:0.5;"/>
    </defs>
    <g clip-path="url(#p1dbbfae57b)">
     <use style="fill:#526b34;fill-opacity:0.5;stroke:#526b34;stroke-opacity:0.5;" x="0" xlink:href="#m917eb006f3" y="255.11811"/>
    </g>
   </g>
   <g id="PolyCollection_2">
    <defs>
     <path d="M 83.13827 -143.198449 
L 83.13827 -177.617371 
L 188.677797 -201.721215 
L 273.885654 -204.586408 
L 379.425181 -226.866179 
L 490.30776 -221.106352 
L 490.30776 -211.496813 
L 490.30776 -211.496813 
L 379.425181 -219.42965 
L 273.885654 -184.950794 
L 188.677797 -191.704193 
L 83.13827 -143.198449 
z
" id="m42839cd671" style="stroke:#8f89b4;stroke-opacity:0.5;"/>
    </defs>
    <g clip-path="url(#p1dbbfae57b)">
     <use style="fill:#8f89b4;fill-opacity:0.5;stroke:#8f89b4;stroke-opacity:0.5;" x="0" xlink:href="#m42839cd671" y="255.11811"/>
    </g>
   </g>
   <g id="PolyCollection_3">
    <defs>
     <path d="M 83.13827 -80.055776 
L 83.13827 -104.20861 
L 188.677797 -127.360502 
L 273.885654 -209.281697 
L 379.425181 -226.405162 
L 490.30776 -229.366683 
L 490.30776 -226.267216 
L 490.30776 -226.267216 
L 379.425181 -221.73263 
L 273.885654 -196.270962 
L 188.677797 -71.780456 
L 83.13827 -80.055776 
z
" id="m75ef3b30a4" style="stroke:#6d3b2b;stroke-opacity:0.25;"/>
    </defs>
    <g clip-path="url(#p1dbbfae57b)">
     <use style="fill:#6d3b2b;fill-opacity:0.25;stroke:#6d3b2b;stroke-opacity:0.25;" x="0" xlink:href="#m75ef3b30a4" y="255.11811"/>
    </g>
   </g>
   <g id="line2d_10">
    <path clip-path="url(#p1dbbfae57b)" d="M 83.13827 157.332711 
L 188.677797 111.465165 
L 273.885654 53.779624 
L 379.425181 37.786106 
L 490.30776 27.42904 
" style="fill:none;stroke:#526b34;stroke-linecap:square;stroke-width:2;"/>
   </g>
   <g id="line2d_11">
    <path clip-path="url(#p1dbbfae57b)" d="M 83.13827 94.7102 
L 188.677797 58.405406 
L 273.885654 60.349509 
L 379.425181 31.970196 
L 490.30776 38.816528 
" style="fill:none;stroke:#8f89b4;stroke-linecap:square;stroke-width:2;"/>
   </g>
   <g id="line2d_12">
    <path clip-path="url(#p1dbbfae57b)" d="M 83.13827 162.985917 
L 188.677797 155.547631 
L 273.885654 52.341781 
L 379.425181 31.049214 
L 490.30776 27.301161 
" style="fill:none;stroke:#6d3b2b;stroke-linecap:square;stroke-width:2;"/>
   </g>
   <g id="patch_3">
    <path d="M 72.088558 191.6135 
L 72.088558 17.28 
" style="fill:none;stroke:#000000;stroke-linecap:square;stroke-linejoin:miter;stroke-width:0.8;"/>
   </g>
   <g id="patch_4">
    <path d="M 500.462279 191.6135 
L 500.462279 17.28 
" style="fill:none;stroke:#000000;stroke-linecap:square;stroke-linejoin:miter;stroke-width:0.8;"/>
   </g>
   <g id="patch_5">
    <path d="M 72.088558 191.6135 
L 500.462279 191.6135 
" style="fill:none;stroke:#000000;stroke-linecap:square;stroke-linejoin:miter;stroke-width:0.8;"/>
   </g>
   <g id="patch_6">
    <path d="M 72.088558 17.28 
L 500.462279 17.28 
" style="fill:none;stroke:#000000;stroke-linecap:square;stroke-linejoin:miter;stroke-width:0.8;"/>
   </g>
  </g>
 </g>
 <defs>
  <clipPath id="p1dbbfae57b">
   <rect height="174.3335" width="428.373721" x="72.088558" y="17.28"/>
  </clipPath>
 </defs>
</svg>
