<?xml version="1.0" encoding="utf-8" standalone="no"?>
<!DOCTYPE svg PUBLIC "-//W3C//DTD SVG 1.1//EN"
  "http://www.w3.org/Graphics/SVG/1.1/DTD/svg11.dtd">
<!-- Created with matplotlib (https://matplotlib.org/) -->
<svg height="510.23622pt" version="1.1" viewBox="0 0 1037.480315 510.23622" width="1037.480315pt" xmlns="http://www.w3.org/2000/svg" xmlns:xlink="http://www.w3.org/1999/xlink">
 <defs>
  <style type="text/css">
*{stroke-linecap:butt;stroke-linejoin:round;}
  </style>
 </defs>
 <g id="figure_1">
  <g id="patch_1">
   <path d="M 0 510.23622 
L 1037.480315 510.23622 
L 1037.480315 0 
L 0 0 
z
" style="fill:#ffffff;"/>
  </g>
  <g id="axes_1">
   <g id="patch_2">
    <path d="M 86.054299 419.339782 
L 1015.880315 419.339782 
L 1015.880315 44.204405 
L 86.054299 44.204405 
z
" style="fill:#ffffff;"/>
   </g>
   <g id="PolyCollection_1">
    <defs>
     <path d="M 110.148679 -107.948046 
L 110.148679 -140.268493 
L 205.307267 -243.290055 
L 308.070385 -283.92329 
L 410.833502 -339.487751 
L 513.59662 -381.482592 
L 616.359738 -401.471136 
L 719.122856 -429.024709 
L 821.885974 -428.396238 
L 924.649092 -447.472992 
L 990.813762 -443.318418 
L 990.813762 -427.856973 
L 990.813762 -427.856973 
L 924.649092 -434.373343 
L 821.885974 -424.56223 
L 719.122856 -414.800087 
L 616.359738 -384.798179 
L 513.59662 -363.592155 
L 410.833502 -312.637165 
L 308.070385 -255.950048 
L 205.307267 -212.557762 
L 110.148679 -107.948046 
z
" id="md672cd562b" style="stroke:#808080;stroke-opacity:0.25;"/>
    </defs>
    <g clip-path="url(#pafbe38a1ac)">
     <use style="fill:#808080;fill-opacity:0.25;stroke:#808080;stroke-opacity:0.25;" x="0" xlink:href="#md672cd562b" y="510.23622"/>
    </g>
   </g>
   <g id="PolyCollection_2">
    <defs>
     <path d="M 110.148679 -175.043272 
L 110.148679 -181.664907 
L 205.307267 -259.769417 
L 308.070385 -307.809178 
L 410.833502 -334.709306 
L 513.59662 -374.500324 
L 616.359738 -405.741409 
L 719.122856 -412.607966 
L 821.885974 -435.558898 
L 924.649092 -442.664545 
L 990.813762 -448.980207 
L 990.813762 -441.362354 
L 990.813762 -441.362354 
L 924.649092 -434.363929 
L 821.885974 -423.155702 
L 719.122856 -401.489099 
L 616.359738 -389.114893 
L 513.59662 -356.956486 
L 410.833502 -320.44777 
L 308.070385 -282.944185 
L 205.307267 -218.247436 
L 110.148679 -175.043272 
z
" id="mc7f93c709f" style="stroke:#d3d3d3;stroke-opacity:0.2;"/>
    </defs>
    <g clip-path="url(#pafbe38a1ac)">
     <use style="fill:#d3d3d3;fill-opacity:0.2;stroke:#d3d3d3;stroke-opacity:0.2;" x="0" xlink:href="#mc7f93c709f" y="510.23622"/>
    </g>
   </g>
   <g id="PolyCollection_3">
    <defs>
     <path d="M 110.148679 -262.833974 
L 110.148679 -290.157584 
L 205.307267 -322.581695 
L 308.070385 -322.115896 
L 410.833502 -340.810164 
L 513.59662 -380.178721 
L 616.359738 -404.481951 
L 719.122856 -426.904809 
L 821.885974 -429.742355 
L 924.649092 -448.710854 
L 990.813762 -445.560009 
L 990.813762 -437.520492 
L 990.813762 -437.520492 
L 924.649092 -432.246748 
L 821.885974 -411.256648 
L 719.122856 -419.239809 
L 616.359738 -394.151787 
L 513.59662 -366.947205 
L 410.833502 -318.497124 
L 308.070385 -309.638044 
L 205.307267 -294.093103 
L 110.148679 -262.833974 
z
" id="m8588d38ddc" style="stroke:#ffa500;stroke-opacity:0.15;"/>
    </defs>
    <g clip-path="url(#pafbe38a1ac)">
     <use style="fill:#ffa500;fill-opacity:0.15;stroke:#ffa500;stroke-opacity:0.15;" x="0" xlink:href="#m8588d38ddc" y="510.23622"/>
    </g>
   </g>
   <g id="PolyCollection_4">
    <defs>
     <path d="M 110.148679 -256.408376 
L 110.148679 -277.860271 
L 205.307267 -318.122833 
L 308.070385 -321.248715 
L 410.833502 -327.520049 
L 513.59662 -377.407236 
L 616.359738 -401.735026 
L 719.122856 -418.4656 
L 821.885974 -432.013681 
L 924.649092 -430.6385 
L 990.813762 -435.471958 
L 990.813762 -427.043867 
L 990.813762 -427.043867 
L 924.649092 -421.95649 
L 821.885974 -427.447795 
L 719.122856 -411.691338 
L 616.359738 -392.504243 
L 513.59662 -355.664102 
L 410.833502 -317.437713 
L 308.070385 -298.06591 
L 205.307267 -289.655281 
L 110.148679 -256.408376 
z
" id="m30be87e87c" style="stroke:#4b0082;stroke-opacity:0.15;"/>
    </defs>
    <g clip-path="url(#pafbe38a1ac)">
     <use style="fill:#4b0082;fill-opacity:0.15;stroke:#4b0082;stroke-opacity:0.15;" x="0" xlink:href="#m30be87e87c" y="510.23622"/>
    </g>
   </g>
   <g id="matplotlib.axis_1">
    <g id="xtick_1">
     <g id="line2d_1">
      <defs>
       <path d="M 0 0 
L 0 3.5 
" id="m5f96106be3" style="stroke:#000000;stroke-width:0.8;"/>
      </defs>
      <g>
       <use style="stroke:#000000;stroke-width:0.8;" x="110.148679" xlink:href="#m5f96106be3" y="419.339782"/>
      </g>
     </g>
     <g id="text_1">
      <!-- 10 -->
      <defs>
       <path d="M 26.59375 63.796875 
C 26.59375 65.890625 26.5 66 25.09375 66 
C 21.203125 61.359375 15.296875 59.890625 9.703125 59.6875 
C 9.40625 59.6875 8.90625 59.6875 8.796875 59.5 
C 8.703125 59.296875 8.703125 59.09375 8.703125 57 
C 11.796875 57 17 57.59375 21 59.984375 
L 21 7.296875 
C 21 3.796875 20.796875 2.59375 12.203125 2.59375 
L 9.203125 2.59375 
L 9.203125 0 
C 14 0.09375 19 0.1875 23.796875 0.1875 
C 28.59375 0.1875 33.59375 0.09375 38.40625 0 
L 38.40625 2.59375 
L 35.40625 2.59375 
C 26.796875 2.59375 26.59375 3.6875 26.59375 7.296875 
z
" id="CMR17-49"/>
       <path d="M 42 31.84375 
C 42 37.96875 41.90625 48.421875 37.703125 56.453125 
C 34 63.484375 28.09375 66 22.90625 66 
C 18.09375 66 12 63.78125 8.203125 56.5625 
C 4.203125 49.015625 3.796875 39.671875 3.796875 31.84375 
C 3.796875 26.109375 3.90625 17.375 7 9.734375 
C 11.296875 -0.609375 19 -2 22.90625 -2 
C 27.5 -2 34.5 -0.109375 38.59375 9.4375 
C 41.59375 16.375 42 24.5 42 31.84375 
z
M 22.90625 -0.40625 
C 16.5 -0.40625 12.703125 5.125 11.296875 12.75 
C 10.203125 18.6875 10.203125 27.328125 10.203125 32.953125 
C 10.203125 40.6875 10.203125 47.109375 11.5 53.234375 
C 13.40625 61.78125 19 64.390625 22.90625 64.390625 
C 27 64.390625 32.296875 61.671875 34.203125 53.4375 
C 35.5 47.71875 35.59375 40.984375 35.59375 32.953125 
C 35.59375 26.421875 35.59375 18.375 34.40625 12.453125 
C 32.296875 1.5 26.40625 -0.40625 22.90625 -0.40625 
z
" id="CMR17-48"/>
      </defs>
      <g transform="translate(107.208944 449.047235)rotate(-45)scale(0.2 -0.2)">
       <use transform="scale(0.996264)" xlink:href="#CMR17-49"/>
       <use transform="translate(45.690477 0)scale(0.996264)" xlink:href="#CMR17-48"/>
      </g>
     </g>
    </g>
    <g id="xtick_2">
     <g id="line2d_2">
      <g>
       <use style="stroke:#000000;stroke-width:0.8;" x="205.307267" xlink:href="#m5f96106be3" y="419.339782"/>
      </g>
     </g>
     <g id="text_2">
      <!-- 19 -->
      <defs>
       <path d="M 35.203125 29.234375 
C 35.203125 7 26.09375 0.390625 18.59375 0.390625 
C 16.296875 0.390625 10.703125 0.671875 8.40625 4.390625 
C 11 4 12.90625 5.390625 12.90625 7.890625 
C 12.90625 10.59375 10.703125 11.5 9.296875 11.5 
C 8.40625 11.5 5.703125 11.09375 5.703125 7.6875 
C 5.703125 1.0625 11.59375 -2 18.796875 -2 
C 30.296875 -2 42 10.390625 42 32.65625 
C 42 60.265625 30.796875 66 23.203125 66 
C 13.296875 66 3.796875 57.25 3.796875 43.75 
C 3.796875 31.25 11.90625 22 22.09375 22 
C 30.5 22 34.203125 29.84375 35.203125 33.15625 
z
M 22.296875 23.59375 
C 19.59375 23.59375 15.796875 24.09375 12.703125 30.140625 
C 10.59375 34.078125 10.59375 38.703125 10.59375 43.640625 
C 10.59375 49.59375 10.59375 53.71875 13.40625 58.15625 
C 14.796875 60.265625 17.40625 63.6875 23.203125 63.6875 
C 35 63.6875 35 45.453125 35 41.421875 
C 35 34.265625 31.796875 23.59375 22.296875 23.59375 
z
" id="CMR17-57"/>
      </defs>
      <g transform="translate(202.367531 449.047235)rotate(-45)scale(0.2 -0.2)">
       <use transform="scale(0.996264)" xlink:href="#CMR17-49"/>
       <use transform="translate(45.690477 0)scale(0.996264)" xlink:href="#CMR17-57"/>
      </g>
     </g>
    </g>
    <g id="xtick_3">
     <g id="line2d_3">
      <g>
       <use style="stroke:#000000;stroke-width:0.8;" x="308.070385" xlink:href="#m5f96106be3" y="419.339782"/>
      </g>
     </g>
     <g id="text_3">
      <!-- 38 -->
      <defs>
       <path d="M 22.09375 34 
C 31 34 34.90625 26.140625 34.90625 17.09375 
C 34.90625 5.03125 28.5 0.390625 22.703125 0.390625 
C 17.40625 0.390625 8.796875 3.015625 6.09375 10.796875 
C 6.59375 10.59375 7.09375 10.59375 7.59375 10.59375 
C 10 10.59375 11.796875 12.1875 11.796875 14.796875 
C 11.796875 17.6875 9.59375 19 7.59375 19 
C 5.90625 19 3.296875 18.1875 3.296875 14.484375 
C 3.296875 5.234375 12.296875 -2 22.90625 -2 
C 34 -2 42.5 6.75 42.5 16.984375 
C 42.5 26.84375 34.5 34 25 35.09375 
C 32.59375 36.671875 39.90625 43.375 39.90625 52.390625 
C 39.90625 60.25 32 66 23 66 
C 13.90625 66 5.90625 60.34375 5.90625 52.296875 
C 5.90625 48.796875 8.5 48.1875 9.796875 48.1875 
C 11.90625 48.1875 13.703125 49.484375 13.703125 52.09375 
C 13.703125 54.6875 11.90625 56 9.796875 56 
C 9.40625 56 8.90625 56 8.5 55.796875 
C 11.40625 62.484375 19.296875 63.6875 22.796875 63.6875 
C 26.296875 63.6875 32.90625 61.96875 32.90625 52.296875 
C 32.90625 49.484375 32.5 44.546875 29.09375 40.21875 
C 26.09375 36.390625 22.703125 36.1875 19.40625 35.890625 
C 18.90625 35.890625 16.59375 35.6875 16.203125 35.6875 
C 15.5 35.59375 15.09375 35.5 15.09375 34.796875 
C 15.09375 34.09375 15.203125 34 17.203125 34 
z
" id="CMR17-51"/>
       <path d="M 27.203125 35.765625 
C 33.5 38.96875 39.90625 43.796875 39.90625 51.53125 
C 39.90625 60.6875 31.09375 66 23 66 
C 13.90625 66 5.90625 59.375 5.90625 50.234375 
C 5.90625 47.71875 6.5 43.390625 10.40625 39.578125 
C 11.40625 38.578125 15.59375 35.5625 18.296875 33.65625 
C 13.796875 31.34375 3.296875 25.8125 3.296875 14.765625 
C 3.296875 4.40625 13.09375 -2 22.796875 -2 
C 33.5 -2 42.5 5.71875 42.5 15.96875 
C 42.5 25.109375 36.40625 29.328125 32.40625 32.046875 
z
M 14.09375 44.609375 
C 13.296875 45.109375 9.296875 48.21875 9.296875 52.9375 
C 9.296875 59.078125 15.59375 63.6875 22.796875 63.6875 
C 30.703125 63.6875 36.5 58.0625 36.5 51.53125 
C 36.5 42.1875 26.09375 36.859375 25.59375 36.859375 
C 25.5 36.859375 25.40625 36.859375 24.59375 37.46875 
z
M 32.5 24 
C 34 22.90625 38.796875 19.578125 38.796875 13.453125 
C 38.796875 6.015625 31.40625 0.390625 23 0.390625 
C 13.90625 0.390625 7 6.921875 7 14.859375 
C 7 22.796875 13.09375 29.4375 20 32.546875 
z
" id="CMR17-56"/>
      </defs>
      <g transform="translate(305.130649 449.047235)rotate(-45)scale(0.2 -0.2)">
       <use transform="scale(0.996264)" xlink:href="#CMR17-51"/>
       <use transform="translate(45.690477 0)scale(0.996264)" xlink:href="#CMR17-56"/>
      </g>
     </g>
    </g>
    <g id="xtick_4">
     <g id="line2d_4">
      <g>
       <use style="stroke:#000000;stroke-width:0.8;" x="410.833502" xlink:href="#m5f96106be3" y="419.339782"/>
      </g>
     </g>
     <g id="text_4">
      <!-- 76 -->
      <defs>
       <path d="M 45.09375 61.796875 
L 45.09375 64 
L 21.59375 64 
C 9.90625 64 9.703125 65.09375 9.296875 67 
L 7.5 67 
L 4.59375 48.5 
L 6.40625 48.5 
C 6.703125 50.40625 7.40625 55.5 8.59375 57.390625 
C 9.203125 58.1875 16.59375 58.1875 18.296875 58.1875 
L 40.296875 58.1875 
L 29.203125 41.71875 
C 21.796875 30.640625 16.703125 15.671875 16.703125 2.59375 
C 16.703125 1.390625 16.703125 -2 20.296875 -2 
C 23.90625 -2 23.90625 1.390625 23.90625 2.6875 
L 23.90625 7.28125 
C 23.90625 23.65625 26.703125 34.4375 31.296875 41.3125 
z
" id="CMR17-55"/>
       <path d="M 10.59375 34.34375 
C 10.59375 58 21.796875 63.6875 28.296875 63.6875 
C 30.40625 63.6875 35.5 63.265625 37.5 59.09375 
C 35.90625 59.09375 32.90625 59.09375 32.90625 55.59375 
C 32.90625 52.890625 35.09375 52 36.5 52 
C 37.40625 52 40.09375 52.390625 40.09375 55.796875 
C 40.09375 62.296875 35.09375 66 28.203125 66 
C 16.296875 66 3.796875 53.296875 3.796875 31.421875 
C 3.796875 4.015625 15.09375 -2 23.09375 -2 
C 32.796875 -2 42 6.734375 42 20.234375 
C 42 32.828125 33.90625 42 23.703125 42 
C 17.59375 42 13.09375 37.96875 10.59375 30.921875 
z
M 23.09375 0.390625 
C 10.796875 0.390625 10.796875 18.9375 10.796875 22.65625 
C 10.796875 29.90625 14.203125 40.390625 23.5 40.390625 
C 25.203125 40.390625 30.09375 40.390625 33.40625 33.4375 
C 35.203125 29.515625 35.203125 25.375 35.203125 20.34375 
C 35.203125 14.90625 35.203125 10.875 33.09375 6.84375 
C 30.90625 2.703125 27.703125 0.390625 23.09375 0.390625 
z
" id="CMR17-54"/>
      </defs>
      <g transform="translate(407.893767 449.047235)rotate(-45)scale(0.2 -0.2)">
       <use transform="scale(0.996264)" xlink:href="#CMR17-55"/>
       <use transform="translate(45.690477 0)scale(0.996264)" xlink:href="#CMR17-54"/>
      </g>
     </g>
    </g>
    <g id="xtick_5">
     <g id="line2d_5">
      <g>
       <use style="stroke:#000000;stroke-width:0.8;" x="513.59662" xlink:href="#m5f96106be3" y="419.339782"/>
      </g>
     </g>
     <g id="text_5">
      <!-- 152 -->
      <defs>
       <path d="M 11.40625 58.59375 
C 12.40625 58.1875 16.5 56.890625 20.703125 56.890625 
C 30 56.890625 35.09375 61.890625 38 64.6875 
C 38 65.484375 38 66 37.40625 66 
C 37.296875 66 37.09375 66 36.296875 65.59375 
C 32.796875 64.09375 28.703125 63 23.703125 63 
C 20.703125 63 16.203125 63.359375 11.296875 65.484375 
C 10.203125 66 10 66 9.90625 66 
C 9.40625 66 9.296875 65.890625 9.296875 63.90625 
L 9.296875 34.859375 
C 9.296875 33.015625 9.296875 32.5 10.296875 32.5 
C 10.796875 32.5 11 32.703125 11.5 33.421875 
C 14.703125 38.046875 19.09375 40 24.09375 40 
C 27.59375 40 35.09375 37.734375 35.09375 20.203125 
C 35.09375 16.984375 35.09375 11.1875 32.09375 6.59375 
C 29.59375 2.484375 25.703125 0.390625 21.40625 0.390625 
C 14.796875 0.390625 8.09375 4.984375 6.296875 12.6875 
C 6.703125 12.59375 7.5 12.390625 7.90625 12.390625 
C 9.203125 12.390625 11.703125 13.09375 11.703125 16.1875 
C 11.703125 18.890625 9.796875 20 7.90625 20 
C 5.59375 20 4.09375 18.59375 4.09375 15.796875 
C 4.09375 7.09375 11 -2 21.59375 -2 
C 31.90625 -2 41.703125 6.890625 41.703125 19.796875 
C 41.703125 32.09375 33.90625 41.59375 24.203125 41.59375 
C 19.09375 41.59375 14.796875 39.6875 11.40625 36 
z
" id="CMR17-53"/>
       <path d="M 41.703125 15.46875 
L 39.90625 15.46875 
C 38.90625 8.390625 38.09375 7.1875 37.703125 6.59375 
C 37.203125 5.796875 30 5.796875 28.59375 5.796875 
L 9.40625 5.796875 
C 13 9.6875 20 16.765625 28.5 24.9375 
C 34.59375 30.71875 41.703125 37.5 41.703125 47.390625 
C 41.703125 59.1875 32.296875 66 21.796875 66 
C 10.796875 66 4.09375 56.296875 4.09375 47.296875 
C 4.09375 43.390625 7 42.890625 8.203125 42.890625 
C 9.203125 42.890625 12.203125 43.484375 12.203125 46.984375 
C 12.203125 50.09375 9.59375 51 8.203125 51 
C 7.59375 51 7 50.890625 6.59375 50.6875 
C 8.5 59.1875 14.296875 63.390625 20.40625 63.390625 
C 29.09375 63.390625 34.796875 56.5 34.796875 47.390625 
C 34.796875 38.703125 29.703125 31.21875 24 24.734375 
L 4.09375 2.296875 
L 4.09375 0 
L 39.296875 0 
z
" id="CMR17-50"/>
      </defs>
      <g transform="translate(507.42608 455.508844)rotate(-45)scale(0.2 -0.2)">
       <use transform="scale(0.996264)" xlink:href="#CMR17-49"/>
       <use transform="translate(45.690477 0)scale(0.996264)" xlink:href="#CMR17-53"/>
       <use transform="translate(91.380954 0)scale(0.996264)" xlink:href="#CMR17-50"/>
      </g>
     </g>
    </g>
    <g id="xtick_6">
     <g id="line2d_6">
      <g>
       <use style="stroke:#000000;stroke-width:0.8;" x="616.359738" xlink:href="#m5f96106be3" y="419.339782"/>
      </g>
     </g>
     <g id="text_6">
      <!-- 304 -->
      <defs>
       <path d="M 33.59375 64.796875 
C 33.59375 66.890625 33.5 67 31.703125 67 
L 2 19.59375 
L 2 17 
L 27.796875 17 
L 27.796875 7.1875 
C 27.796875 3.59375 27.59375 2.59375 20.59375 2.59375 
L 18.703125 2.59375 
L 18.703125 0 
C 21.90625 0.1875 27.296875 0.1875 30.703125 0.1875 
C 34.09375 0.1875 39.5 0.1875 42.703125 0 
L 42.703125 2.59375 
L 40.796875 2.59375 
C 33.796875 2.59375 33.59375 3.59375 33.59375 7.1875 
L 33.59375 17 
L 43.796875 17 
L 43.796875 19.59375 
L 33.59375 19.59375 
z
M 28.09375 58.171875 
L 28.09375 19.59375 
L 4 19.59375 
z
" id="CMR17-52"/>
      </defs>
      <g transform="translate(610.189198 455.508844)rotate(-45)scale(0.2 -0.2)">
       <use transform="scale(0.996264)" xlink:href="#CMR17-51"/>
       <use transform="translate(45.690477 0)scale(0.996264)" xlink:href="#CMR17-48"/>
       <use transform="translate(91.380954 0)scale(0.996264)" xlink:href="#CMR17-52"/>
      </g>
     </g>
    </g>
    <g id="xtick_7">
     <g id="line2d_7">
      <g>
       <use style="stroke:#000000;stroke-width:0.8;" x="719.122856" xlink:href="#m5f96106be3" y="419.339782"/>
      </g>
     </g>
     <g id="text_7">
      <!-- 608 -->
      <g transform="translate(712.952316 455.508844)rotate(-45)scale(0.2 -0.2)">
       <use transform="scale(0.996264)" xlink:href="#CMR17-54"/>
       <use transform="translate(45.690477 0)scale(0.996264)" xlink:href="#CMR17-48"/>
       <use transform="translate(91.380954 0)scale(0.996264)" xlink:href="#CMR17-56"/>
      </g>
     </g>
    </g>
    <g id="xtick_8">
     <g id="line2d_8">
      <g>
       <use style="stroke:#000000;stroke-width:0.8;" x="821.885974" xlink:href="#m5f96106be3" y="419.339782"/>
      </g>
     </g>
     <g id="text_8">
      <!-- 1216 -->
      <g transform="translate(812.484629 461.970453)rotate(-45)scale(0.2 -0.2)">
       <use transform="scale(0.996264)" xlink:href="#CMR17-49"/>
       <use transform="translate(45.690477 0)scale(0.996264)" xlink:href="#CMR17-50"/>
       <use transform="translate(91.380954 0)scale(0.996264)" xlink:href="#CMR17-49"/>
       <use transform="translate(137.071431 0)scale(0.996264)" xlink:href="#CMR17-54"/>
      </g>
     </g>
    </g>
    <g id="xtick_9">
     <g id="line2d_9">
      <g>
       <use style="stroke:#000000;stroke-width:0.8;" x="924.649092" xlink:href="#m5f96106be3" y="419.339782"/>
      </g>
     </g>
     <g id="text_9">
      <!-- 2432 -->
      <g transform="translate(915.247747 461.970453)rotate(-45)scale(0.2 -0.2)">
       <use transform="scale(0.996264)" xlink:href="#CMR17-50"/>
       <use transform="translate(45.690477 0)scale(0.996264)" xlink:href="#CMR17-52"/>
       <use transform="translate(91.380954 0)scale(0.996264)" xlink:href="#CMR17-51"/>
       <use transform="translate(137.071431 0)scale(0.996264)" xlink:href="#CMR17-50"/>
      </g>
     </g>
    </g>
    <g id="xtick_10">
     <g id="line2d_10">
      <g>
       <use style="stroke:#000000;stroke-width:0.8;" x="990.813762" xlink:href="#m5f96106be3" y="419.339782"/>
      </g>
     </g>
     <g id="text_10">
      <!-- 3800 -->
      <g transform="translate(981.412417 461.970453)rotate(-45)scale(0.2 -0.2)">
       <use transform="scale(0.996264)" xlink:href="#CMR17-51"/>
       <use transform="translate(45.690477 0)scale(0.996264)" xlink:href="#CMR17-56"/>
       <use transform="translate(91.380954 0)scale(0.996264)" xlink:href="#CMR17-48"/>
       <use transform="translate(137.071431 0)scale(0.996264)" xlink:href="#CMR17-48"/>
      </g>
     </g>
    </g>
    <g id="text_11">
     <!-- \textbf{Number of Images ($P_1$ to $P_{10}$)} -->
     <defs>
      <path d="M 29 67.796875 
C 28 68.890625 27.90625 69 25.90625 69 
L 3.796875 69 
L 3.796875 64.6875 
L 14.40625 64.6875 
L 14.40625 7.3125 
C 14.40625 5.09375 14.296875 5 11.703125 4.59375 
C 9.90625 4.390625 7.90625 4.296875 6.09375 4.296875 
L 3.796875 4.296875 
L 3.796875 0 
C 6.09375 0.1875 13.90625 0.1875 16.703125 0.1875 
C 19.5 0.1875 27.40625 0.1875 29.703125 0 
L 29.703125 4.296875 
L 27.40625 4.296875 
C 24.703125 4.296875 24.5 4.296875 22.09375 4.59375 
C 19.203125 5 19.09375 5.09375 19.09375 7.3125 
L 19.09375 61.265625 
L 68.59375 1.296875 
C 69.703125 0.09375 69.796875 0 71.09375 0 
C 73.5 0 73.5 0.59375 73.5 2.890625 
L 73.5 61.671875 
C 73.5 63.890625 73.59375 63.984375 76.203125 64.390625 
C 78 64.59375 80 64.6875 81.796875 64.6875 
L 84.09375 64.6875 
L 84.09375 69 
C 81.796875 68.796875 74 68.796875 71.203125 68.796875 
C 68.40625 68.796875 60.5 68.796875 58.203125 69 
L 58.203125 64.6875 
L 60.5 64.6875 
C 63.203125 64.6875 63.40625 64.6875 65.796875 64.390625 
C 68.703125 63.984375 68.796875 63.890625 68.796875 61.671875 
L 68.796875 19.59375 
z
" id="CMBX12-78"/>
      <path d="M 35.296875 44.1875 
L 35.296875 39.890625 
C 41.5 39.890625 42.203125 39.890625 42.203125 35.953125 
L 42.203125 16.140625 
C 42.203125 8.453125 37.703125 2.296875 29.90625 2.296875 
C 22.40625 2.296875 22 4.8125 22 10.375 
L 22 45 
L 4.203125 44.1875 
L 4.203125 39.890625 
C 10.40625 39.890625 11.09375 39.890625 11.09375 35.953125 
L 11.09375 12 
C 11.09375 1.890625 17.796875 -1 28.5 -1 
C 30.90625 -1 38.296875 -1 42.59375 7.140625 
L 42.703125 7.140625 
L 42.703125 -1 
L 60 -0.40625 
L 60 3.90625 
C 53.796875 3.90625 53.09375 3.90625 53.09375 7.84375 
L 53.09375 45 
z
" id="CMBX12-117"/>
      <path d="M 84.40625 30.59375 
C 84.40625 39.796875 80.5 45 69.296875 45 
C 59.203125 45 54.5 38.1875 52.90625 35 
C 51.296875 43.484375 44.5 45 38.09375 45 
C 28.5 45 23.296875 38.796875 21.203125 34 
L 21.09375 34 
L 21.09375 45 
L 4.203125 44.1875 
L 4.203125 39.890625 
C 10.40625 39.890625 11.09375 39.890625 11.09375 36 
L 11.09375 4.296875 
L 4.203125 4.296875 
L 4.203125 0 
C 6.5 0.1875 13.703125 0.1875 16.5 0.1875 
C 19.296875 0.1875 26.59375 0.1875 28.90625 0 
L 28.90625 4.296875 
L 22 4.296875 
L 22 25.59375 
C 22 36.5 30.09375 41.6875 36.40625 41.6875 
C 40.09375 41.6875 42.296875 39.5 42.296875 31.6875 
L 42.296875 4.296875 
L 35.40625 4.296875 
L 35.40625 0 
C 37.703125 0.1875 44.90625 0.1875 47.703125 0.1875 
C 50.5 0.1875 57.796875 0.1875 60.09375 0 
L 60.09375 4.296875 
L 53.203125 4.296875 
L 53.203125 25.59375 
C 53.203125 36.5 61.296875 41.6875 67.59375 41.6875 
C 71.296875 41.6875 73.5 39.5 73.5 31.6875 
L 73.5 4.296875 
L 66.59375 4.296875 
L 66.59375 0 
C 68.90625 0.1875 76.09375 0.1875 78.90625 0.1875 
C 81.703125 0.1875 89 0.1875 91.296875 0 
L 91.296875 4.296875 
L 84.40625 4.296875 
z
" id="CMBX12-109"/>
      <path d="M 20.796875 70 
L 3.5 69.1875 
L 3.5 64.890625 
C 9.703125 64.890625 10.40625 64.890625 10.40625 60.875 
L 10.40625 -0.40625 
L 14.59375 -0.40625 
C 16.296875 1.5 18 3.40625 19.59375 5.421875 
C 24.703125 0.09375 30.203125 -1 34.203125 -1 
C 48 -1 58.59375 7.4375 58.59375 22.09375 
C 58.59375 35.9375 49.203125 45 35.5 45 
C 29.59375 45 24.90625 43.09375 20.796875 39.875 
z
M 21.296875 35.03125 
C 24.796875 39.875 30 41.6875 34.203125 41.6875 
C 46.59375 41.6875 46.59375 28.859375 46.59375 22.1875 
C 46.59375 17.65625 46.59375 11.890625 44.203125 8.15625 
C 41.09375 3.296875 36.40625 2.296875 33.203125 2.296875 
C 26.40625 2.296875 22.703125 7.140625 21.296875 9.359375 
z
" id="CMBX12-98"/>
      <path d="M 45.203125 22 
C 47.5 22 48.09375 22 48.09375 24.5 
C 48.09375 27.46875 47.40625 34.875 42.796875 39.515625 
C 38.59375 43.6875 33 45 27.203125 45 
C 11.59375 45 3.09375 34.875 3.09375 22.390625 
C 3.09375 8.171875 13.40625 -1 28.5 -1 
C 43.59375 -1 48.09375 9.703125 48.09375 11.421875 
C 48.09375 12.953125 46.59375 12.953125 46 12.953125 
C 44.40625 12.953125 44.296875 12.640625 43.703125 11.328125 
C 41.09375 4.71875 34.5 2.59375 29.703125 2.59375 
C 15.203125 2.59375 15.09375 16.296875 15.09375 22 
z
M 15.09375 24.890625 
C 15.296875 28.9375 15.40625 32.796875 17.5 36.359375 
C 19.40625 39.515625 22.90625 41.6875 27.203125 41.6875 
C 37.90625 41.6875 38.796875 29.828125 38.90625 24.890625 
z
" id="CMBX12-101"/>
      <path d="M 20.796875 22.5 
C 20.796875 25.796875 21.5 41.6875 33.203125 41.6875 
C 31.796875 40.59375 31.09375 38.890625 31.09375 37.09375 
C 31.09375 33 34.40625 31.296875 36.90625 31.296875 
C 39.40625 31.296875 42.703125 33 42.703125 37.09375 
C 42.703125 42.1875 37.5 45 32.703125 45 
C 24.796875 45 21.40625 38.09375 20 33.890625 
L 19.90625 33.890625 
L 19.90625 45 
L 3.5 44.1875 
L 3.5 39.890625 
C 9.703125 39.890625 10.40625 39.890625 10.40625 36 
L 10.40625 4.296875 
L 3.5 4.296875 
L 3.5 0 
C 5.796875 0.1875 13.296875 0.1875 16.09375 0.1875 
C 19 0.1875 27.09375 0.1875 29.5 0 
L 29.5 4.296875 
L 20.796875 4.296875 
z
" id="CMBX12-114"/>
      <path d="M 53 21.546875 
C 53 35.078125 43.796875 45 28.09375 45 
C 11.796875 45 3.09375 34.578125 3.09375 21.546875 
C 3.09375 8.40625 12.296875 -1 28 -1 
C 44.296875 -1 53 8.90625 53 21.546875 
z
M 28.09375 2.59375 
C 15.09375 2.59375 15.09375 14.328125 15.09375 22.546875 
C 15.09375 27.25 15.09375 32.265625 17 35.875 
C 19.203125 39.890625 23.703125 41.6875 28 41.6875 
C 33.703125 41.6875 37.296875 38.984375 39 36.171875 
C 41 32.5625 41 27.359375 41 22.546875 
C 41 14.21875 41 2.59375 28.09375 2.59375 
z
" id="CMBX12-111"/>
      <path d="M 21.703125 39.6875 
L 33.09375 39.6875 
L 33.09375 44 
L 21.203125 44 
L 21.203125 54.15625 
C 21.203125 64.40625 27.796875 66 31.09375 66 
C 32.203125 66 32.40625 65.890625 33 65.6875 
C 31.5 64.703125 30.59375 63.03125 30.59375 60.953125 
C 30.59375 57.015625 33.796875 55.234375 36.40625 55.234375 
C 38.59375 55.234375 42.203125 56.71875 42.203125 61.0625 
C 42.203125 65.109375 38.59375 69.296875 31.5 69.296875 
C 22.40625 69.296875 11.296875 65.5 11.296875 54.046875 
L 11.296875 44 
L 3.90625 44 
L 3.90625 39.6875 
L 11.296875 39.6875 
L 11.296875 4.296875 
L 4.40625 4.296875 
L 4.40625 0 
C 6.703125 0.1875 14.203125 0.1875 17 0.1875 
C 19.90625 0.1875 28 0.1875 30.40625 0 
L 30.40625 4.296875 
L 21.703125 4.296875 
z
" id="CMBX12-102"/>
      <path d="M 27.5 64.6875 
L 38.703125 64.6875 
L 38.703125 69 
C 35.09375 68.796875 25.09375 68.796875 20.90625 68.796875 
C 16.703125 68.796875 6.703125 68.796875 3.09375 69 
L 3.09375 64.6875 
L 14.296875 64.6875 
L 14.296875 4.296875 
L 3.09375 4.296875 
L 3.09375 0 
C 6.703125 0.1875 16.703125 0.1875 20.90625 0.1875 
C 25.09375 0.1875 35.09375 0.1875 38.703125 0 
L 38.703125 4.296875 
L 27.5 4.296875 
z
" id="CMBX12-73"/>
      <path d="M 46 29.59375 
C 46 38.796875 38.703125 45 24.59375 45 
C 19 45 7.203125 44.484375 7.203125 36.09375 
C 7.203125 31.890625 10.40625 30.09375 13.09375 30.09375 
C 16.09375 30.09375 19 32.1875 19 35.984375 
C 19 37.890625 18.296875 39.6875 16.59375 40.796875 
C 19.90625 41.6875 22.296875 41.6875 24.203125 41.6875 
C 31 41.6875 35.09375 37.890625 35.09375 29.6875 
L 35.09375 25.6875 
C 19.296875 25.6875 3.40625 21.28125 3.40625 10.125 
C 3.40625 1 15 -1 21.90625 -1 
C 29.59375 -1 34.5 3.203125 36.5 7.625 
C 36.5 3.90625 36.5 -0.40625 46.59375 -0.40625 
L 51.703125 -0.40625 
C 53.796875 -0.40625 54.59375 -0.40625 54.59375 1.796875 
C 54.59375 3.90625 53.703125 3.90625 52.296875 3.90625 
C 46 4 46 5.609375 46 7.921875 
z
M 35.09375 13.546875 
C 35.09375 4.09375 26.703125 2.296875 23.5 2.296875 
C 18.59375 2.296875 14.5 5.609375 14.5 10.234375 
C 14.5 19.375 25.296875 22.484375 35.09375 23 
z
" id="CMBX12-97"/>
      <path d="M 13 18.390625 
C 17.796875 15.796875 23.40625 15.796875 24.90625 15.796875 
C 38.703125 15.796875 44.203125 23.53125 44.203125 30.59375 
C 44.203125 35.734375 41.296875 39.359375 40.09375 40.375 
C 43 41.984375 45.40625 42.390625 47.09375 42.59375 
C 46.796875 42.09375 46.5 41.6875 46.5 40.375 
C 46.5 38.25 47.90625 36.34375 50.5 36.34375 
C 53.09375 36.34375 54.5 38.25 54.5 40.375 
C 54.5 42.796875 52.703125 46 48.5 46 
C 44.203125 46 40.09375 43.890625 38 42.09375 
C 33.90625 44.484375 30 45.390625 24.90625 45.390625 
C 11.09375 45.390625 5.59375 37.65625 5.59375 30.59375 
C 5.59375 27.46875 6.59375 23.328125 10.796875 19.90625 
C 9.09375 17.984375 7.296875 14.46875 7.296875 10.828125 
C 7.296875 6.5 9.59375 2.796875 11.703125 1.1875 
C 9.296875 0.59375 3.09375 -1.703125 3.09375 -7.40625 
C 3.09375 -13.3125 9.59375 -20 28 -20 
C 44.59375 -20 53 -14.609375 53 -7.109375 
C 53 1.6875 47.203125 4.59375 44.703125 5.796875 
C 39.90625 8.1875 33.5 8.1875 24.703125 8.1875 
C 22.203125 8.1875 17.796875 8.1875 17.296875 8.296875 
C 13 9 11.796875 12.859375 11.796875 14.78125 
C 11.796875 15.59375 11.90625 17.09375 13 18.390625 
z
M 24.90625 19 
C 16.203125 19 16.203125 25.953125 16.203125 30.59375 
C 16.203125 35.234375 16.203125 42.1875 24.90625 42.1875 
C 33.59375 42.1875 33.59375 35.234375 33.59375 30.59375 
C 33.59375 25.953125 33.59375 19 24.90625 19 
z
M 30.5 -1 
C 37.796875 -1 44.796875 -2.3125 44.796875 -7.5 
C 44.796875 -11 41.296875 -16.8125 28.09375 -16.8125 
C 14.90625 -16.8125 11.296875 -11.203125 11.296875 -7.40625 
C 11.296875 -1 17.59375 -1 19.09375 -1 
z
" id="CMBX12-103"/>
      <path d="M 37.703125 42.390625 
C 37.703125 44.296875 37.703125 45 36.203125 45 
C 35.59375 45 35.40625 45 33.90625 44.09375 
C 33.5 43.796875 32.40625 43.09375 31.90625 42.796875 
C 29.09375 44.390625 25.40625 45 21.796875 45 
C 18.796875 45 3.796875 45 3.796875 31.96875 
C 3.796875 21.4375 16.203125 19.234375 19.296875 18.734375 
C 22 18.234375 25.296875 17.625 25.703125 17.625 
C 29.703125 16.734375 33.703125 14.21875 33.703125 10.015625 
C 33.703125 2.296875 24.59375 2.296875 22.5 2.296875 
C 17.40625 2.296875 11.09375 3.890625 8.296875 13.625 
C 7.703125 15.625 7.59375 15.71875 5.90625 15.71875 
C 3.796875 15.71875 3.796875 15.421875 3.796875 13.125 
L 3.796875 1.59375 
C 3.796875 -0.3125 3.796875 -1 5.296875 -1 
C 6 -1 6.203125 -1 8.203125 0.59375 
L 10.796875 2.5 
C 15.296875 -1 20.703125 -1 22.5 -1 
C 28 -1 40.5 0.1875 40.5 13.515625 
C 40.5 18.328125 37.90625 21.640625 35.90625 23.4375 
C 31.796875 26.859375 28.40625 27.453125 23 28.453125 
C 16.59375 29.5625 10.59375 30.65625 10.59375 35.46875 
C 10.59375 41.984375 19.5 41.984375 21.59375 41.984375 
C 32.703125 41.984375 33.296875 34.96875 33.5 32.46875 
C 33.59375 31.171875 34.40625 31.171875 35.59375 31.171875 
C 37.703125 31.171875 37.703125 31.46875 37.703125 33.765625 
z
" id="CMBX12-115"/>
      <path d="M 37.40625 -23.90625 
C 37.40625 -23.515625 37.40625 -23.3125 35.5 -21.5 
C 24.296875 -10.3125 20 7.296875 20 24.890625 
C 20 44.59375 24.90625 60.796875 36.09375 72.09375 
C 37.296875 73.296875 37.40625 73.390625 37.40625 73.796875 
C 37.40625 75 36.203125 75 35.703125 75 
C 34.796875 75 34.59375 75 32 72.890625 
C 17.59375 61.390625 10.796875 43 10.796875 25 
C 10.796875 6.59375 17.703125 -11.3125 31.90625 -22.90625 
C 34.5 -25.109375 34.703125 -25.109375 35.703125 -25.109375 
C 36.203125 -25.109375 37.40625 -25.109375 37.40625 -23.90625 
z
" id="CMBX12-40"/>
      <path d="M 29.59375 31.59375 
L 46.40625 31.59375 
C 60.203125 31.59375 74 41.765625 74 53.125 
C 74 60.90625 67.40625 68 54.796875 68 
L 23.90625 68 
C 22 68 21.09375 68 21.09375 66.09375 
C 21.09375 65.09375 22 65.09375 23.5 65.09375 
C 29.59375 65.09375 29.59375 64.296875 29.59375 63.203125 
C 29.59375 63 29.59375 62.40625 29.203125 60.90625 
L 15.703125 7.359375 
C 14.796875 3.890625 14.59375 2.890625 7.59375 2.890625 
C 5.703125 2.890625 4.703125 2.890625 4.703125 1.09375 
C 4.703125 0 5.59375 0 6.203125 0 
C 8.09375 0 10.09375 0.1875 12 0.1875 
L 23.703125 0.1875 
C 25.59375 0.1875 27.703125 0 29.59375 0 
C 30.40625 0 31.5 0 31.5 1.890625 
C 31.5 2.890625 30.59375 2.890625 29.09375 2.890625 
C 23.09375 2.890625 23 3.59375 23 4.578125 
C 23 5.078125 23.09375 5.765625 23.203125 6.265625 
z
M 36.796875 61.203125 
C 37.703125 64.890625 38.09375 65.09375 42 65.09375 
L 51.90625 65.09375 
C 59.40625 65.09375 65.59375 62.703125 65.59375 55.21875 
C 65.59375 52.640625 64.296875 44.15625 59.703125 39.578125 
C 58 37.78125 53.203125 34 44.09375 34 
L 30 34 
z
" id="CMMI12-80"/>
      <path d="M 21.09375 39.6875 
L 35.5 39.6875 
L 35.5 44 
L 21.09375 44 
L 21.09375 63 
L 16.90625 63 
C 16.796875 53.140625 12 43.296875 2.09375 42.984375 
L 2.09375 39.6875 
L 10.203125 39.6875 
L 10.203125 11.890625 
C 10.203125 1.296875 18.40625 -1 25.59375 -1 
C 33 -1 37.40625 4.59375 37.40625 12 
L 37.40625 17.296875 
L 33.203125 17.296875 
L 33.203125 12.09375 
C 33.203125 5.5 30.203125 2.59375 27.09375 2.59375 
C 21.09375 2.59375 21.09375 9.296875 21.09375 11.59375 
z
" id="CMBX12-116"/>
      <path d="M 32.796875 24.890625 
C 32.796875 43.296875 25.90625 61.203125 11.703125 72.796875 
C 9.09375 75 8.90625 75 7.90625 75 
C 7.40625 75 6.203125 75 6.203125 73.796875 
C 6.203125 73.390625 6.203125 73.1875 8.09375 71.390625 
C 19.296875 60.203125 23.59375 42.59375 23.59375 25 
C 23.59375 5.296875 18.703125 -10.90625 7.5 -22.203125 
C 6.296875 -23.40625 6.203125 -23.515625 6.203125 -23.90625 
C 6.203125 -25.109375 7.40625 -25.109375 7.90625 -25.109375 
C 8.796875 -25.109375 9 -25.109375 11.59375 -23 
C 26 -11.5 32.796875 6.890625 32.796875 24.890625 
z
" id="CMBX12-41"/>
     </defs>
     <g transform="translate(406.9128 484.760587)scale(0.2 -0.2)">
      <use transform="translate(0 14.943915)scale(0.996264)" xlink:href="#CMBX12-78"/>
      <use transform="translate(87.634475 14.943915)scale(0.996264)" xlink:href="#CMBX12-117"/>
      <use transform="translate(149.900976 14.943915)scale(0.996264)" xlink:href="#CMBX12-109"/>
      <use transform="translate(240.187401 14.943915)scale(0.996264)" xlink:href="#CMBX12-98"/>
      <use transform="translate(305.567227 14.943915)scale(0.996264)" xlink:href="#CMBX12-101"/>
      <use transform="translate(356.706494 14.943915)scale(0.996264)" xlink:href="#CMBX12-114"/>
      <use transform="translate(439.843902 14.943915)scale(0.996264)" xlink:href="#CMBX12-111"/>
      <use transform="translate(495.883753 14.943915)scale(0.996264)" xlink:href="#CMBX12-102"/>
      <use transform="translate(567.490228 14.943915)scale(0.996264)" xlink:href="#CMBX12-73"/>
      <use transform="translate(609.231936 14.943915)scale(0.996264)" xlink:href="#CMBX12-109"/>
      <use transform="translate(702.631687 14.943915)scale(0.996264)" xlink:href="#CMBX12-97"/>
      <use transform="translate(757.114875 14.943915)scale(0.996264)" xlink:href="#CMBX12-103"/>
      <use transform="translate(813.154726 14.943915)scale(0.996264)" xlink:href="#CMBX12-101"/>
      <use transform="translate(864.293993 14.943915)scale(0.996264)" xlink:href="#CMBX12-115"/>
      <use transform="translate(945.86323 14.943915)scale(0.996264)" xlink:href="#CMBX12-40"/>
      <use transform="translate(989.449781 14.943915)scale(0.996264)" xlink:href="#CMMI12-80"/>
      <use transform="translate(1052.327013 0)scale(0.697382)" xlink:href="#CMR17-49"/>
      <use transform="translate(1122.168227 14.943915)scale(0.996264)" xlink:href="#CMBX12-116"/>
      <use transform="translate(1165.754778 14.943915)scale(0.996264)" xlink:href="#CMBX12-111"/>
      <use transform="translate(1259.154529 14.943915)scale(0.996264)" xlink:href="#CMMI12-80"/>
      <use transform="translate(1322.031761 0)scale(0.697382)" xlink:href="#CMR17-49"/>
      <use transform="translate(1354.014943 0)scale(0.697382)" xlink:href="#CMR17-48"/>
      <use transform="translate(1386.496257 14.943915)scale(0.996264)" xlink:href="#CMBX12-41"/>
     </g>
    </g>
   </g>
   <g id="matplotlib.axis_2">
    <g id="ytick_1">
     <g id="line2d_11">
      <path clip-path="url(#pafbe38a1ac)" d="M 86.054299 404.843082 
L 1015.880315 404.843082 
" style="fill:none;stroke:#b0b0b0;stroke-linecap:square;stroke-width:0.8;"/>
     </g>
     <g id="line2d_12">
      <defs>
       <path d="M 0 0 
L -3.5 0 
" id="m2d7e1175f7" style="stroke:#000000;stroke-width:0.8;"/>
      </defs>
      <g>
       <use style="stroke:#000000;stroke-width:0.8;" x="86.054299" xlink:href="#m2d7e1175f7" y="404.843082"/>
      </g>
     </g>
     <g id="text_12">
      <!-- $0.55$ -->
      <defs>
       <path d="M 18.40625 4.796875 
C 18.40625 7.6875 16 9.6875 13.59375 9.6875 
C 10.703125 9.6875 8.703125 7.296875 8.703125 4.890625 
C 8.703125 2 11.09375 0 13.5 0 
C 16.40625 0 18.40625 2.390625 18.40625 4.796875 
z
" id="CMMI12-58"/>
      </defs>
      <g transform="translate(53.096865 430.925765)rotate(-45)scale(0.2 -0.2)">
       <use transform="scale(0.996264)" xlink:href="#CMR17-48"/>
       <use transform="translate(45.690477 0)scale(0.996264)" xlink:href="#CMMI12-58"/>
       <use transform="translate(72.787654 0)scale(0.996264)" xlink:href="#CMR17-53"/>
       <use transform="translate(118.478131 0)scale(0.996264)" xlink:href="#CMR17-53"/>
      </g>
     </g>
    </g>
    <g id="ytick_2">
     <g id="line2d_13">
      <path clip-path="url(#pafbe38a1ac)" d="M 86.054299 336.464278 
L 1015.880315 336.464278 
" style="fill:none;stroke:#b0b0b0;stroke-linecap:square;stroke-width:0.8;"/>
     </g>
     <g id="line2d_14">
      <g>
       <use style="stroke:#000000;stroke-width:0.8;" x="86.054299" xlink:href="#m2d7e1175f7" y="336.464278"/>
      </g>
     </g>
     <g id="text_13">
      <!-- $0.60$ -->
      <g transform="translate(53.096865 362.546961)rotate(-45)scale(0.2 -0.2)">
       <use transform="scale(0.996264)" xlink:href="#CMR17-48"/>
       <use transform="translate(45.690477 0)scale(0.996264)" xlink:href="#CMMI12-58"/>
       <use transform="translate(72.787654 0)scale(0.996264)" xlink:href="#CMR17-54"/>
       <use transform="translate(118.478131 0)scale(0.996264)" xlink:href="#CMR17-48"/>
      </g>
     </g>
    </g>
    <g id="ytick_3">
     <g id="line2d_15">
      <path clip-path="url(#pafbe38a1ac)" d="M 86.054299 268.085474 
L 1015.880315 268.085474 
" style="fill:none;stroke:#b0b0b0;stroke-linecap:square;stroke-width:0.8;"/>
     </g>
     <g id="line2d_16">
      <g>
       <use style="stroke:#000000;stroke-width:0.8;" x="86.054299" xlink:href="#m2d7e1175f7" y="268.085474"/>
      </g>
     </g>
     <g id="text_14">
      <!-- $0.65$ -->
      <g transform="translate(53.096865 294.168157)rotate(-45)scale(0.2 -0.2)">
       <use transform="scale(0.996264)" xlink:href="#CMR17-48"/>
       <use transform="translate(45.690477 0)scale(0.996264)" xlink:href="#CMMI12-58"/>
       <use transform="translate(72.787654 0)scale(0.996264)" xlink:href="#CMR17-54"/>
       <use transform="translate(118.478131 0)scale(0.996264)" xlink:href="#CMR17-53"/>
      </g>
     </g>
    </g>
    <g id="ytick_4">
     <g id="line2d_17">
      <path clip-path="url(#pafbe38a1ac)" d="M 86.054299 199.70667 
L 1015.880315 199.70667 
" style="fill:none;stroke:#b0b0b0;stroke-linecap:square;stroke-width:0.8;"/>
     </g>
     <g id="line2d_18">
      <g>
       <use style="stroke:#000000;stroke-width:0.8;" x="86.054299" xlink:href="#m2d7e1175f7" y="199.70667"/>
      </g>
     </g>
     <g id="text_15">
      <!-- $0.70$ -->
      <g transform="translate(53.096865 225.789353)rotate(-45)scale(0.2 -0.2)">
       <use transform="scale(0.996264)" xlink:href="#CMR17-48"/>
       <use transform="translate(45.690477 0)scale(0.996264)" xlink:href="#CMMI12-58"/>
       <use transform="translate(72.787654 0)scale(0.996264)" xlink:href="#CMR17-55"/>
       <use transform="translate(118.478131 0)scale(0.996264)" xlink:href="#CMR17-48"/>
      </g>
     </g>
    </g>
    <g id="ytick_5">
     <g id="line2d_19">
      <path clip-path="url(#pafbe38a1ac)" d="M 86.054299 131.327866 
L 1015.880315 131.327866 
" style="fill:none;stroke:#b0b0b0;stroke-linecap:square;stroke-width:0.8;"/>
     </g>
     <g id="line2d_20">
      <g>
       <use style="stroke:#000000;stroke-width:0.8;" x="86.054299" xlink:href="#m2d7e1175f7" y="131.327866"/>
      </g>
     </g>
     <g id="text_16">
      <!-- $0.75$ -->
      <g transform="translate(53.096865 157.410549)rotate(-45)scale(0.2 -0.2)">
       <use transform="scale(0.996264)" xlink:href="#CMR17-48"/>
       <use transform="translate(45.690477 0)scale(0.996264)" xlink:href="#CMMI12-58"/>
       <use transform="translate(72.787654 0)scale(0.996264)" xlink:href="#CMR17-55"/>
       <use transform="translate(118.478131 0)scale(0.996264)" xlink:href="#CMR17-53"/>
      </g>
     </g>
    </g>
    <g id="ytick_6">
     <g id="line2d_21">
      <path clip-path="url(#pafbe38a1ac)" d="M 86.054299 62.949062 
L 1015.880315 62.949062 
" style="fill:none;stroke:#b0b0b0;stroke-linecap:square;stroke-width:0.8;"/>
     </g>
     <g id="line2d_22">
      <g>
       <use style="stroke:#000000;stroke-width:0.8;" x="86.054299" xlink:href="#m2d7e1175f7" y="62.949062"/>
      </g>
     </g>
     <g id="text_17">
      <!-- $0.80$ -->
      <g transform="translate(53.096865 89.031745)rotate(-45)scale(0.2 -0.2)">
       <use transform="scale(0.996264)" xlink:href="#CMR17-48"/>
       <use transform="translate(45.690477 0)scale(0.996264)" xlink:href="#CMMI12-58"/>
       <use transform="translate(72.787654 0)scale(0.996264)" xlink:href="#CMR17-56"/>
       <use transform="translate(118.478131 0)scale(0.996264)" xlink:href="#CMR17-48"/>
      </g>
     </g>
    </g>
    <g id="text_18">
     <!-- \textbf{AP} -->
     <defs>
      <path d="M 45.796875 67.703125 
C 45.09375 69.5 44.90625 70 42.5 70 
C 40 70 39.796875 69.5 39.09375 67.703125 
L 14.296875 6.703125 
C 13.59375 5.09375 13.59375 4.890625 10.796875 4.59375 
C 8.296875 4.296875 7.90625 4.296875 5.703125 4.296875 
L 3.90625 4.296875 
L 3.90625 0 
C 6.5 0.1875 12.5 0.1875 15.40625 0.1875 
C 18.09375 0.1875 25.40625 0.1875 27.703125 0 
L 27.703125 4.296875 
C 25.5 4.296875 21.703125 4.296875 18.90625 5.40625 
C 19.203125 6.3125 19.203125 6.5 19.40625 6.90625 
L 24.703125 20 
L 51.5 20 
L 57.796875 4.296875 
L 48.40625 4.296875 
L 48.40625 0 
C 51.59375 0.1875 61.296875 0.1875 65.09375 0.1875 
C 68.296875 0.1875 78.5 0.1875 81 0 
L 81 4.296875 
L 71.5 4.296875 
z
M 38.09375 53.03125 
L 49.703125 24.296875 
L 26.40625 24.296875 
z
" id="CMBX12-65"/>
      <path d="M 27.59375 31 
L 44.59375 31 
C 61.296875 31 70.59375 39.484375 70.59375 49.75 
C 70.59375 60.5 61.09375 69 44.59375 69 
L 3.796875 69 
L 3.796875 64.6875 
L 14.40625 64.6875 
L 14.40625 4.296875 
L 3.796875 4.296875 
L 3.796875 0 
C 6.703125 0.1875 17.40625 0.1875 21 0.1875 
C 24.59375 0.1875 35.296875 0.1875 38.203125 0 
L 38.203125 4.296875 
L 27.59375 4.296875 
z
M 41 64.6875 
C 56.5 64.6875 56.5 56.515625 56.5 49.75 
C 56.5 43.171875 56.5 34.796875 41 34.796875 
L 27.09375 34.796875 
L 27.09375 64.6875 
z
" id="CMBX12-80"/>
     </defs>
     <g transform="translate(35.436997 247.892208)rotate(-90)scale(0.2 -0.2)">
      <use transform="scale(0.996264)" xlink:href="#CMBX12-65"/>
      <use transform="translate(84.636395 0)scale(0.996264)" xlink:href="#CMBX12-80"/>
     </g>
    </g>
   </g>
   <g id="line2d_23">
    <path clip-path="url(#pafbe38a1ac)" d="M 110.148679 386.127951 
L 205.307267 282.312312 
L 308.070385 240.299551 
L 410.833502 184.173763 
L 513.59662 137.698847 
L 616.359738 117.101563 
L 719.122856 88.323822 
L 821.885974 83.756986 
L 924.649092 69.313053 
L 990.813762 74.648525 
" style="fill:none;stroke:#808080;stroke-linecap:square;stroke-opacity:0.9;stroke-width:1.5;"/>
   </g>
   <g id="line2d_24">
    <path clip-path="url(#pafbe38a1ac)" d="M 110.148679 331.882131 
L 205.307267 271.227794 
L 308.070385 214.859539 
L 410.833502 182.657683 
L 513.59662 144.507815 
L 616.359738 112.80807 
L 719.122856 103.187688 
L 821.885974 80.878921 
L 924.649092 71.721983 
L 990.813762 65.06494 
" style="fill:none;stroke:#d3d3d3;stroke-linecap:square;stroke-opacity:0.9;stroke-width:1.5;"/>
   </g>
   <g id="line2d_25">
    <path clip-path="url(#pafbe38a1ac)" d="M 110.148679 233.740442 
L 205.307267 201.898822 
L 308.070385 194.35925 
L 410.833502 180.582576 
L 513.59662 136.673258 
L 616.359738 110.919351 
L 719.122856 87.163911 
L 821.885974 89.736719 
L 924.649092 69.757419 
L 990.813762 68.69597 
" style="fill:none;stroke:#ffa500;stroke-linecap:square;stroke-opacity:0.9;stroke-width:1.5;"/>
   </g>
   <g id="line2d_26">
    <path clip-path="url(#pafbe38a1ac)" d="M 110.148679 243.101897 
L 205.307267 206.347164 
L 308.070385 200.578908 
L 410.833502 187.75734 
L 513.59662 143.700551 
L 616.359738 113.116586 
L 719.122856 95.157752 
L 821.885974 80.505482 
L 924.649092 83.938725 
L 990.813762 78.978308 
" style="fill:none;stroke:#4b0082;stroke-linecap:square;stroke-opacity:0.9;stroke-width:1.5;"/>
   </g>
   <g id="patch_3">
    <path d="M 86.054299 419.339782 
L 86.054299 44.204405 
" style="fill:none;stroke:#000000;stroke-linecap:square;stroke-linejoin:miter;stroke-width:0.8;"/>
   </g>
   <g id="patch_4">
    <path d="M 1015.880315 419.339782 
L 1015.880315 44.204405 
" style="fill:none;stroke:#000000;stroke-linecap:square;stroke-linejoin:miter;stroke-width:0.8;"/>
   </g>
   <g id="patch_5">
    <path d="M 86.054299 419.339782 
L 1015.880315 419.339782 
" style="fill:none;stroke:#000000;stroke-linecap:square;stroke-linejoin:miter;stroke-width:0.8;"/>
   </g>
   <g id="patch_6">
    <path d="M 86.054299 44.204405 
L 1015.880315 44.204405 
" style="fill:none;stroke:#000000;stroke-linecap:square;stroke-linejoin:miter;stroke-width:0.8;"/>
   </g>
   <g id="text_19">
    <!-- DSB n10 -->
    <defs>
     <path d="M 5.203125 68 
L 5.203125 65.390625 
C 12.09375 65.390625 13.203125 65.390625 13.203125 60.90625 
L 13.203125 7.078125 
C 13.203125 2.59375 12.09375 2.59375 5.203125 2.59375 
L 5.203125 0 
L 37 0 
C 53.09375 0 66 14.734375 66 33.4375 
C 66 52.25 53.296875 68 37 68 
z
M 23.796875 2.59375 
C 19.796875 2.59375 19.59375 3.09375 19.59375 6.46875 
L 19.59375 61.5 
C 19.59375 64.890625 19.796875 65.390625 23.796875 65.390625 
L 35 65.390625 
C 43.296875 65.390625 58.59375 60.515625 58.59375 33.4375 
C 58.59375 19.40625 54.5 13.734375 52.59375 11.046875 
C 50.203125 7.96875 44.5 2.59375 35 2.59375 
z
" id="CMR17-68"/>
     <path d="M 43.796875 67.984375 
C 43.796875 69.796875 43.703125 69.890625 43.09375 69.890625 
C 42.5 69.890625 42.296875 69.484375 41.90625 68.59375 
L 38.90625 61.953125 
C 35.09375 67.5 29.296875 70 23 70 
C 12.796875 70 4.59375 61.84375 4.59375 51.578125 
C 4.59375 48.453125 5.296875 44.015625 8.703125 39.78125 
C 12.40625 35.15625 15.90625 34.34375 23.90625 32.234375 
C 26.90625 31.421875 31.90625 30.109375 32.90625 29.703125 
C 38.59375 27.296875 41.59375 21.25 41.59375 15.609375 
C 41.59375 8.34375 36.5 0.59375 27.796875 0.59375 
C 17.09375 0.59375 7.09375 6.640625 6.40625 20.75 
C 6.296875 22.359375 6.203125 22.453125 5.5 22.453125 
C 4.703125 22.453125 4.59375 22.359375 4.59375 20.34375 
L 4.59375 0 
C 4.59375 -1.8125 4.703125 -1.90625 5.296875 -1.90625 
C 6 -1.90625 6.203125 -1.40625 7.59375 1.703125 
C 7.703125 2 7.703125 2.203125 9.59375 6.03125 
C 14.59375 -0.609375 23 -2 27.796875 -2 
C 38.703125 -2 46.40625 7.140625 46.40625 17.828125 
C 46.40625 23.0625 44.5 27.09375 43.40625 28.90625 
C 39.203125 35.359375 34.703125 36.5625 29.90625 37.765625 
C 29.203125 38.078125 29 38.078125 23.40625 39.484375 
C 18 40.890625 15.703125 41.59375 13.203125 44.3125 
C 10.40625 47.4375 9.40625 50.671875 9.40625 53.890625 
C 9.40625 60.4375 14.59375 67.59375 23.09375 67.59375 
C 33.703125 67.59375 40.296875 60.03125 41.796875 47.4375 
C 42.09375 45.625 42.203125 45.53125 42.90625 45.53125 
C 43.796875 45.53125 43.796875 45.828125 43.796875 47.546875 
z
" id="CMR17-83"/>
     <path d="M 5.203125 68 
L 5.203125 65.390625 
C 12.09375 65.390625 13.203125 65.390625 13.203125 60.890625 
L 13.203125 7.046875 
C 13.203125 2.59375 12.09375 2.59375 5.203125 2.59375 
L 5.203125 0 
L 39.59375 0 
C 52.40625 0 60.703125 9.03125 60.703125 18.046875 
C 60.703125 26.96875 52.5 34.59375 41.796875 35.296875 
C 51.40625 37.1875 58.09375 43.59375 58.09375 51.1875 
C 58.09375 59.5 49.90625 68 37 68 
z
M 19.5 36 
L 19.5 61.5 
C 19.5 64.890625 19.703125 65.390625 23.703125 65.390625 
L 36.5 65.390625 
C 46.40625 65.390625 50.796875 57.390625 50.796875 51.1875 
C 50.796875 43.59375 44.703125 36 33.90625 36 
z
M 23.703125 2.59375 
C 19.703125 2.59375 19.5 3.09375 19.5 6.453125 
L 19.5 34.390625 
L 38 34.390625 
C 48.296875 34.390625 53.296875 25.375 53.296875 18.140625 
C 53.296875 10.90625 47.59375 2.59375 36.703125 2.59375 
z
" id="CMR17-66"/>
     <path d="M 41.5 30.53125 
C 41.5 35.65625 40.5 44 28.703125 44 
C 20.796875 44 16.703125 37.875 15.203125 33.84375 
L 15.09375 33.84375 
L 15.09375 44 
L 3.296875 42.890625 
L 3.296875 40.28125 
C 9.203125 40.28125 10.09375 39.6875 10.09375 34.859375 
L 10.09375 6.921875 
C 10.09375 3.09375 9.703125 2.59375 3.296875 2.59375 
L 3.296875 0 
C 5.703125 0.1875 10.09375 0.1875 12.703125 0.1875 
C 15.296875 0.1875 19.796875 0.1875 22.203125 0 
L 22.203125 2.59375 
C 15.796875 2.59375 15.40625 3 15.40625 6.921875 
L 15.40625 26.21875 
C 15.40625 35.453125 21 42.390625 28 42.390625 
C 35.40625 42.390625 36.203125 35.765625 36.203125 30.9375 
L 36.203125 6.921875 
C 36.203125 3.09375 35.796875 2.59375 29.40625 2.59375 
L 29.40625 0 
C 31.796875 0.1875 36.203125 0.1875 38.796875 0.1875 
C 41.40625 0.1875 45.90625 0.1875 48.296875 0 
L 48.296875 2.59375 
C 41.90625 2.59375 41.5 3 41.5 6.921875 
z
" id="CMR17-110"/>
    </defs>
    <g transform="translate(507.907711 38.204405)scale(0.24 -0.24)">
     <use transform="scale(0.996264)" xlink:href="#CMR17-68"/>
     <use transform="translate(70.393556 0)scale(0.996264)" xlink:href="#CMR17-83"/>
     <use transform="translate(121.288926 0)scale(0.996264)" xlink:href="#CMR17-66"/>
     <use transform="translate(216.553646 0)scale(0.996264)" xlink:href="#CMR17-110"/>
     <use transform="translate(267.449016 0)scale(0.996264)" xlink:href="#CMR17-49"/>
     <use transform="translate(313.139493 0)scale(0.996264)" xlink:href="#CMR17-48"/>
    </g>
   </g>
   <g id="legend_1">
    <g id="patch_7">
     <path d="M 696.796039 409.339782 
L 1001.880315 409.339782 
Q 1005.880315 409.339782 1005.880315 405.339782 
L 1005.880315 295.837248 
Q 1005.880315 291.837248 1001.880315 291.837248 
L 696.796039 291.837248 
Q 692.796039 291.837248 692.796039 295.837248 
L 692.796039 405.339782 
Q 692.796039 409.339782 696.796039 409.339782 
z
" style="fill:#ffffff;opacity:0.8;stroke:#cccccc;stroke-linejoin:miter;"/>
    </g>
    <g id="patch_8">
     <path d="M 700.796039 313.837248 
L 740.796039 313.837248 
L 740.796039 299.837248 
L 700.796039 299.837248 
z
" style="fill:#808080;opacity:0.25;stroke:#808080;stroke-linejoin:miter;"/>
    </g>
    <g id="text_20">
     <!-- Baseline -->
     <defs>
      <path d="M 36 25.875 
C 36 32 36 35.546875 31.796875 39.59375 
C 28.09375 42.984375 23.796875 44 20.40625 44 
C 12.5 44 6.796875 37.625 6.796875 30.890625 
C 6.796875 27.1875 9.796875 27 10.40625 27 
C 11.703125 27 14 27.796875 14 30.59375 
C 14 33.09375 12.09375 34.1875 10.40625 34.1875 
C 10 34.1875 9.5 34.09375 9.203125 34 
C 11.296875 40.53125 16.703125 42.390625 20.203125 42.390625 
C 25.203125 42.390625 30.703125 37.828125 30.703125 29.296875 
L 30.703125 25.5 
C 24.796875 25.296875 17.703125 24.5 12.09375 21.453125 
C 5.796875 17.921875 4 12.84375 4 9 
C 4 1.203125 13 -1 18.296875 -1 
C 23.796875 -1 28.90625 2.109375 31.09375 7.890625 
C 31.296875 3.421875 34.09375 -0.609375 38.5 -0.609375 
C 40.59375 -0.609375 45.90625 0.796875 45.90625 8.796875 
L 45.90625 14.46875 
L 44.09375 14.46875 
L 44.09375 8.703125 
C 44.09375 2.515625 41.40625 1.703125 40.09375 1.703125 
C 36 1.703125 36 6.96875 36 11.4375 
z
M 30.703125 13.859375 
C 30.703125 5.046875 24.5 0.59375 19 0.59375 
C 14 0.59375 10.09375 4.34375 10.09375 9 
C 10.09375 12.046875 11.40625 17.40625 17.203125 20.65625 
C 22 23.390625 27.5 23.796875 30.703125 24 
z
" id="CMR17-97"/>
      <path d="M 30.90625 42 
C 30.90625 43.796875 30.796875 43.890625 30.203125 43.890625 
C 29.796875 43.890625 29.703125 43.796875 28.5 42.296875 
C 28.203125 41.890625 27.296875 40.890625 27 40.5 
C 23.796875 43.890625 19.296875 44 17.59375 44 
C 6.5 44 2.5 38.1875 2.5 32.390625 
C 2.5 23.390625 12.703125 21.296875 15.59375 20.6875 
C 21.90625 19.390625 24.09375 19 26.203125 17.1875 
C 27.5 16 29.703125 13.796875 29.703125 10.1875 
C 29.703125 6 27.296875 0.59375 18.09375 0.59375 
C 9.40625 0.59375 6.296875 7.1875 4.5 16 
C 4.203125 17.390625 4.203125 17.5 3.40625 17.5 
C 2.59375 17.5 2.5 17.390625 2.5 15.390625 
L 2.5 1 
C 2.5 -0.8125 2.59375 -0.90625 3.203125 -0.90625 
C 3.703125 -0.90625 3.796875 -0.8125 4.296875 0 
C 4.90625 0.890625 6.40625 3.296875 7 4.296875 
C 9 1.59375 12.5 -1 18.09375 -1 
C 28 -1 33.296875 4.390625 33.296875 12.1875 
C 33.296875 17.296875 30.59375 20 29.296875 21.1875 
C 26.296875 24.296875 22.796875 25 18.59375 25.796875 
C 13.09375 27 6.09375 28.390625 6.09375 34.5 
C 6.09375 37.09375 7.5 42.59375 17.59375 42.59375 
C 28.296875 42.59375 28.90625 32.59375 29.09375 29.390625 
C 29.203125 28.890625 29.703125 28.796875 30 28.796875 
C 30.90625 28.796875 30.90625 29.09375 30.90625 30.796875 
z
" id="CMR17-115"/>
      <path d="M 38.09375 23.484375 
C 38.5 23.890625 38.5 24.09375 38.5 25.09375 
C 38.5 35.171875 33.09375 44 21.703125 44 
C 11.09375 44 2.703125 33.984375 2.703125 21.78125 
C 2.703125 8.65625 12.203125 -1 22.796875 -1 
C 34 -1 38.40625 9.671875 38.40625 11.796875 
C 38.40625 12.5 37.796875 12.5 37.59375 12.5 
C 36.90625 12.5 36.796875 12.296875 36.40625 11.078125 
C 34.203125 4.21875 28.703125 0.796875 23.5 0.796875 
C 19.203125 0.796875 14.90625 3.21875 12.203125 7.65625 
C 9.09375 12.796875 9.09375 18.75 9.09375 23.484375 
z
M 9.203125 25 
C 9.90625 39.234375 17.59375 42.390625 21.59375 42.390625 
C 28.40625 42.390625 33 36.0625 33.09375 25 
z
" id="CMR17-101"/>
      <path d="M 15.296875 69 
L 3.40625 67.890625 
L 3.40625 65.296875 
C 9.296875 65.296875 10.203125 64.703125 10.203125 59.921875 
L 10.203125 6.859375 
C 10.203125 3.09375 9.796875 2.59375 3.40625 2.59375 
L 3.40625 0 
C 5.796875 0.1875 10.203125 0.1875 12.703125 0.1875 
C 15.296875 0.1875 19.703125 0.1875 22.09375 0 
L 22.09375 2.59375 
C 15.703125 2.59375 15.296875 2.984375 15.296875 6.859375 
z
" id="CMR17-108"/>
      <path d="M 15.5 61.890625 
C 15.5 64.09375 13.703125 66 11.40625 66 
C 9.203125 66 7.296875 64.1875 7.296875 61.890625 
C 7.296875 59.6875 9.09375 57.796875 11.40625 57.796875 
C 13.59375 57.796875 15.5 59.59375 15.5 61.890625 
z
M 3.796875 42.890625 
L 3.796875 40.296875 
C 9.40625 40.296875 10.203125 39.6875 10.203125 34.859375 
L 10.203125 6.921875 
C 10.203125 3.09375 9.796875 2.59375 3.40625 2.59375 
L 3.40625 0 
C 5.796875 0.1875 10.09375 0.1875 12.59375 0.1875 
C 15 0.1875 19.09375 0.1875 21.40625 0 
L 21.40625 2.59375 
C 15.5 2.59375 15.296875 3.203125 15.296875 6.8125 
L 15.296875 44 
z
" id="CMR17-105"/>
     </defs>
     <g transform="translate(756.796039 313.837248)scale(0.2 -0.2)">
      <use transform="scale(0.996264)" xlink:href="#CMR17-66"/>
      <use transform="translate(65.188754 0)scale(0.996264)" xlink:href="#CMR17-97"/>
      <use transform="translate(110.879232 0)scale(0.996264)" xlink:href="#CMR17-115"/>
      <use transform="translate(146.680569 0)scale(0.996264)" xlink:href="#CMR17-101"/>
      <use transform="translate(187.16623 0)scale(0.996264)" xlink:href="#CMR17-108"/>
      <use transform="translate(212.037288 0)scale(0.996264)" xlink:href="#CMR17-105"/>
      <use transform="translate(236.908347 0)scale(0.996264)" xlink:href="#CMR17-110"/>
      <use transform="translate(287.803716 0)scale(0.996264)" xlink:href="#CMR17-101"/>
     </g>
    </g>
    <g id="patch_9">
     <path d="M 700.796039 341.712881 
L 740.796039 341.712881 
L 740.796039 327.712881 
L 700.796039 327.712881 
z
" style="fill:#d3d3d3;opacity:0.2;stroke:#d3d3d3;stroke-linejoin:miter;"/>
    </g>
    <g id="text_21">
     <!-- Baseline Sequential -->
     <defs>
      <path d="M 41.09375 44 
L 39.5 44 
L 36.5 34.015625 
C 34.203125 39.359375 30 44 23.296875 44 
C 13.09375 44 3.296875 34.8125 3.296875 21.5 
C 3.296875 8.265625 12.5 -1 22.5 -1 
C 30.203125 -1 34.5 4.9375 35.796875 7.15625 
L 35.796875 -13.03125 
C 35.796875 -16.890625 35.40625 -17.40625 29 -17.40625 
L 29 -20 
C 31.40625 -19.8125 35.796875 -19.8125 38.40625 -19.8125 
C 41 -19.8125 45.5 -19.8125 47.90625 -20 
L 47.90625 -17.40625 
C 41.5 -17.40625 41.09375 -17 41.09375 -13.03125 
z
M 36 13.609375 
C 36 9.28125 32.40625 5.234375 32.09375 4.9375 
C 29 1.40625 25.40625 0.59375 23 0.59375 
C 15.5 0.59375 9.703125 10.1875 9.703125 21.390625 
C 9.703125 33.203125 16.296875 42.1875 24 42.1875 
C 32 42.1875 36 33 36 27.75 
z
" id="CMR17-113"/>
      <path d="M 29.40625 42.890625 
L 29.40625 40.296875 
C 35.296875 40.296875 36.203125 39.6875 36.203125 34.828125 
L 36.203125 16.453125 
C 36.203125 7.96875 31.703125 0.59375 24.296875 0.59375 
C 16.09375 0.59375 15.40625 5.546875 15.40625 10.796875 
L 15.40625 44 
L 3.296875 42.890625 
L 3.296875 40.296875 
C 7.296875 40.296875 10 40.296875 10.09375 36.25 
L 10.09375 16.859375 
C 10.09375 10.09375 10.09375 5.75 12.703125 2.921875 
C 14 1.609375 16.5 -1 23.703125 -1 
C 32.203125 -1 35.5 6.25 36.296875 8.375 
L 36.40625 8.375 
L 36.40625 -1 
L 48.296875 -0.203125 
L 48.296875 2.40625 
C 42.40625 2.40625 41.5 3.015625 41.5 7.859375 
L 41.5 44 
z
" id="CMR17-117"/>
      <path d="M 15.09375 40.390625 
L 29.09375 40.390625 
L 29.09375 43 
L 15.09375 43 
L 15.09375 62 
L 13.296875 62 
C 13.09375 51.4375 9.59375 42.1875 1.09375 41.984375 
L 1.09375 40.390625 
L 9.796875 40.390625 
L 9.796875 12.15625 
C 9.796875 10.234375 9.796875 -1 21.40625 -1 
C 27.296875 -1 30.703125 4.8125 30.703125 12.25 
L 30.703125 17.984375 
L 28.90625 17.984375 
L 28.90625 12.34375 
C 28.90625 5.421875 26.203125 0.796875 22 0.796875 
C 19.09375 0.796875 15.09375 2.796875 15.09375 11.953125 
z
" id="CMR17-116"/>
     </defs>
     <g transform="translate(756.796039 341.712881)scale(0.2 -0.2)">
      <use transform="scale(0.996264)" xlink:href="#CMR17-66"/>
      <use transform="translate(65.188754 0)scale(0.996264)" xlink:href="#CMR17-97"/>
      <use transform="translate(110.879232 0)scale(0.996264)" xlink:href="#CMR17-115"/>
      <use transform="translate(146.680569 0)scale(0.996264)" xlink:href="#CMR17-101"/>
      <use transform="translate(187.16623 0)scale(0.996264)" xlink:href="#CMR17-108"/>
      <use transform="translate(212.037288 0)scale(0.996264)" xlink:href="#CMR17-105"/>
      <use transform="translate(236.908347 0)scale(0.996264)" xlink:href="#CMR17-110"/>
      <use transform="translate(287.803716 0)scale(0.996264)" xlink:href="#CMR17-101"/>
      <use transform="translate(358.365343 0)scale(0.996264)" xlink:href="#CMR17-83"/>
      <use transform="translate(409.260713 0)scale(0.996264)" xlink:href="#CMR17-101"/>
      <use transform="translate(449.746373 0)scale(0.996264)" xlink:href="#CMR17-113"/>
      <use transform="translate(498.039289 0)scale(0.996264)" xlink:href="#CMR17-117"/>
      <use transform="translate(548.934659 0)scale(0.996264)" xlink:href="#CMR17-101"/>
      <use transform="translate(589.42032 0)scale(0.996264)" xlink:href="#CMR17-110"/>
      <use transform="translate(637.713235 0)scale(0.996264)" xlink:href="#CMR17-116"/>
      <use transform="translate(672.994003 0)scale(0.996264)" xlink:href="#CMR17-105"/>
      <use transform="translate(697.865062 0)scale(0.996264)" xlink:href="#CMR17-97"/>
      <use transform="translate(743.555539 0)scale(0.996264)" xlink:href="#CMR17-108"/>
     </g>
    </g>
    <g id="patch_10">
     <path d="M 700.796039 369.588515 
L 740.796039 369.588515 
L 740.796039 355.588515 
L 700.796039 355.588515 
z
" style="fill:#ffa500;opacity:0.15;stroke:#ffa500;stroke-linejoin:miter;"/>
    </g>
    <g id="text_22">
     <!-- \textbf{Joint-Loss: Best $\alpha$} -->
     <defs>
      <path d="M 43.59375 64.6875 
L 51.59375 64.6875 
L 51.59375 69 
C 49.09375 68.796875 38.796875 68.796875 35.59375 68.796875 
C 30.40625 68.796875 22 68.796875 17.09375 69 
L 17.09375 64.6875 
L 30.90625 64.6875 
L 30.90625 15.1875 
C 30.90625 5.796875 26.296875 2.296875 21.09375 2.296875 
C 20.40625 2.296875 15.796875 2.296875 11.90625 4.890625 
C 15.5 5.796875 17.203125 8.6875 17.203125 11.6875 
C 17.203125 16.59375 13.296875 18.796875 10.203125 18.796875 
C 6.59375 18.796875 3.09375 16.296875 3.09375 11.6875 
C 3.09375 4.15625 10.796875 -1 21.59375 -1 
C 34.40625 -1 43.59375 4.890625 43.59375 15.1875 
z
" id="CMBX12-74"/>
      <path d="M 22.296875 62.796875 
C 22.296875 66.890625 19 70 15.09375 70 
C 11 70 7.90625 66.59375 7.90625 62.796875 
C 7.90625 58.984375 11 55.59375 15.09375 55.59375 
C 19 55.59375 22.296875 58.6875 22.296875 62.796875 
z
M 4.703125 44.1875 
L 4.703125 39.890625 
C 10.59375 39.890625 11.296875 39.890625 11.296875 35.984375 
L 11.296875 4.296875 
L 4.40625 4.296875 
L 4.40625 0 
C 6.703125 0.1875 13.59375 0.1875 16.296875 0.1875 
C 19.09375 0.1875 25.5 0.1875 27.90625 0 
L 27.90625 4.296875 
L 21.703125 4.296875 
L 21.703125 45 
z
" id="CMBX12-105"/>
      <path d="M 53.09375 30.59375 
C 53.09375 40.09375 49 45 38 45 
C 30.796875 45 24.59375 41.5 21.203125 34 
L 21.09375 34 
L 21.09375 45 
L 4.203125 44.1875 
L 4.203125 39.890625 
C 10.40625 39.890625 11.09375 39.890625 11.09375 36 
L 11.09375 4.296875 
L 4.203125 4.296875 
L 4.203125 0 
C 6.5 0.1875 13.703125 0.1875 16.5 0.1875 
C 19.296875 0.1875 26.59375 0.1875 28.90625 0 
L 28.90625 4.296875 
L 22 4.296875 
L 22 25.59375 
C 22 36.390625 30 41.6875 36.40625 41.6875 
C 40.09375 41.6875 42.203125 39.296875 42.203125 31.6875 
L 42.203125 4.296875 
L 35.296875 4.296875 
L 35.296875 0 
C 37.59375 0.1875 44.796875 0.1875 47.59375 0.1875 
C 50.40625 0.1875 57.703125 0.1875 60 0 
L 60 4.296875 
L 53.09375 4.296875 
z
" id="CMBX12-110"/>
      <path d="M 31.203125 17.796875 
L 31.203125 27 
L 1.203125 27 
L 1.203125 17.796875 
z
" id="CMBX12-45"/>
      <path d="M 62.796875 27.140625 
L 58.59375 27.140625 
C 57.90625 20.203125 56.296875 4.296875 38.296875 4.296875 
L 27.59375 4.296875 
L 27.59375 64.6875 
L 40.90625 64.6875 
L 40.90625 69 
C 36 68.796875 27.09375 68.796875 21.796875 68.796875 
C 18.09375 68.796875 6.703125 68.796875 3.796875 69 
L 3.796875 64.6875 
L 14.40625 64.6875 
L 14.40625 4.296875 
L 3.796875 4.296875 
L 3.796875 0 
L 59.90625 0 
z
" id="CMBX12-76"/>
      <path d="M 22.796875 36.796875 
C 22.796875 40.890625 19.5 44 15.59375 44 
C 11.703125 44 8.40625 40.890625 8.40625 36.796875 
C 8.40625 32.6875 11.703125 29.59375 15.59375 29.59375 
C 19.5 29.59375 22.796875 32.6875 22.796875 36.796875 
z
M 22.796875 7.1875 
C 22.796875 11.296875 19.5 14.390625 15.59375 14.390625 
C 11.703125 14.390625 8.40625 11.296875 8.40625 7.1875 
C 8.40625 3.09375 11.703125 0 15.59375 0 
C 19.5 0 22.796875 3.09375 22.796875 7.1875 
z
" id="CMBX12-58"/>
      <path d="M 3.90625 69 
L 3.90625 64.6875 
L 14.5 64.6875 
L 14.5 4.296875 
L 3.90625 4.296875 
L 3.90625 0 
L 49.09375 0 
C 65.59375 0 73.703125 8.890625 73.703125 18.5 
C 73.703125 28 65.40625 34.890625 53.296875 35.796875 
C 67.703125 38.515625 70.5 46.828125 70.5 51.609375 
C 70.5 60.9375 62.09375 69 46.09375 69 
z
M 26.796875 37.296875 
L 26.796875 64.6875 
L 44.90625 64.6875 
C 55.203125 64.6875 57.296875 56.78125 57.296875 51.703125 
C 57.296875 44.59375 53.40625 37.296875 41.703125 37.296875 
z
M 26.796875 4.296875 
L 26.796875 34 
L 46.703125 34 
C 58.40625 34 60.09375 23.1875 60.09375 18.6875 
C 60.09375 12.390625 56.703125 4.296875 45.203125 4.296875 
z
" id="CMBX12-66"/>
      <path d="M 46.296875 25.234375 
C 46.296875 34.90625 40.796875 44 30.203125 44 
C 17.09375 44 4 29.71875 4 15.5625 
C 4 6.875 9.40625 -1 19.59375 -1 
C 25.796875 -1 33.203125 1.390625 40.296875 7.375 
C 41.703125 1.796875 44.796875 -1 49.09375 -1 
C 54.5 -1 57.203125 4.578125 57.203125 5.875 
C 57.203125 6.78125 56.5 6.78125 56.203125 6.78125 
C 55.40625 6.78125 55.296875 6.484375 55 5.6875 
C 54.09375 3.1875 51.796875 1 49.40625 1 
C 46.296875 1 46.296875 7.375 46.296875 13.46875 
C 56.5 25.640625 58.90625 38.203125 58.90625 38.296875 
C 58.90625 39.203125 58.09375 39.203125 57.796875 39.203125 
C 56.90625 39.203125 56.796875 38.90625 56.40625 37.109375 
C 55.09375 32.71875 52.5 24.9375 46.296875 16.75 
z
M 40 9.765625 
C 31.203125 1.890625 23.296875 1 19.796875 1 
C 12.703125 1 10.703125 7.28125 10.703125 11.96875 
C 10.703125 16.25 12.90625 26.4375 16 31.921875 
C 20.09375 38.90625 25.703125 41.984375 30.203125 41.984375 
C 39.90625 41.984375 39.90625 29.328125 39.90625 20.9375 
C 39.90625 18.453125 39.796875 15.859375 39.796875 13.359375 
C 39.796875 11.375 39.90625 10.875 40 9.765625 
z
" id="CMMI12-11"/>
     </defs>
     <g transform="translate(756.796039 369.588515)scale(0.2 -0.2)">
      <use transform="scale(0.996264)" xlink:href="#CMBX12-74"/>
      <use transform="translate(57.88486 0)scale(0.996264)" xlink:href="#CMBX12-111"/>
      <use transform="translate(113.924711 0)scale(0.996264)" xlink:href="#CMBX12-105"/>
      <use transform="translate(145.057961 0)scale(0.996264)" xlink:href="#CMBX12-110"/>
      <use transform="translate(204.211137 0)scale(0.996264)" xlink:href="#CMBX12-116"/>
      <use transform="translate(247.797687 0)scale(0.996264)" xlink:href="#CMBX12-45"/>
      <use transform="translate(285.157588 0)scale(0.996264)" xlink:href="#CMBX12-76"/>
      <use transform="translate(352.497683 0)scale(0.996264)" xlink:href="#CMBX12-111"/>
      <use transform="translate(408.537534 0)scale(0.996264)" xlink:href="#CMBX12-115"/>
      <use transform="translate(452.746871 0)scale(0.996264)" xlink:href="#CMBX12-115"/>
      <use transform="translate(496.956208 0)scale(0.996264)" xlink:href="#CMBX12-58"/>
      <use transform="translate(577.902659 0)scale(0.996264)" xlink:href="#CMBX12-66"/>
      <use transform="translate(657.580794 0)scale(0.996264)" xlink:href="#CMBX12-101"/>
      <use transform="translate(708.720062 0)scale(0.996264)" xlink:href="#CMBX12-115"/>
      <use transform="translate(752.929399 0)scale(0.996264)" xlink:href="#CMBX12-116"/>
      <use transform="translate(833.875849 0)scale(0.996264)" xlink:href="#CMMI12-11"/>
     </g>
    </g>
    <g id="patch_11">
     <path d="M 700.796039 397.464149 
L 740.796039 397.464149 
L 740.796039 383.464149 
L 700.796039 383.464149 
z
" style="fill:#4b0082;opacity:0.15;stroke:#4b0082;stroke-linejoin:miter;"/>
    </g>
    <g id="text_23">
     <!-- \textbf{Joint-Loss: $\alpha$-Scheduling} -->
     <defs>
      <path d="M 25.40625 44.1875 
C 15.5 46.390625 15.203125 53.59375 15.203125 55 
C 15.203125 60.09375 18.5 65.984375 28.203125 65.984375 
C 37.90625 65.984375 46.59375 61.296875 48.703125 48.1875 
C 49 46.09375 49 46 50.90625 46 
C 53 46 53 46.296875 53 48.59375 
L 53 67.390625 
C 53 69.296875 53 70 51.5 70 
C 50.796875 70 50.5 69.890625 49.59375 68.890625 
L 45.296875 64 
C 42.796875 66.09375 37.796875 70 28.09375 70 
C 13.796875 70 6.203125 61 6.203125 50.09375 
C 6.203125 43.390625 9.796875 38.6875 11.203125 37.296875 
C 16.40625 32.09375 19.203125 31.5 29.59375 29.1875 
C 39.59375 27 40.796875 26.796875 43 24.6875 
C 44.296875 23.390625 47.203125 20.59375 47.203125 15.5 
C 47.203125 11.1875 45.09375 3.296875 33.90625 3.296875 
C 25.09375 3.296875 11.203125 6.296875 10.40625 20.890625 
C 10.296875 22.6875 10.296875 23 8.296875 23 
C 6.203125 23 6.203125 22.6875 6.203125 20.390625 
L 6.203125 1.59375 
C 6.203125 -0.3125 6.203125 -1 7.703125 -1 
C 8.40625 -1 8.5 -0.90625 9.5 0 
C 10.59375 1.09375 11.5 2.390625 14 4.890625 
C 19.796875 0.296875 28 -1 34 -1 
C 49.59375 -1 56.203125 9.59375 56.203125 20.1875 
C 56.203125 29.59375 50 38.59375 39.09375 41.09375 
z
" id="CMBX12-83"/>
      <path d="M 46.796875 11.3125 
C 46.796875 12.515625 45.703125 12.515625 44.703125 12.515625 
C 43.09375 12.515625 43 12.421875 42.5 11.21875 
C 41.796875 9.3125 39.09375 2.59375 29.90625 2.59375 
C 15.796875 2.59375 15.796875 17.828125 15.796875 22.34375 
C 15.796875 28.25 15.90625 41.390625 29 41.390625 
C 29.703125 41.390625 35.59375 41.1875 35.59375 40.6875 
C 35.59375 40.59375 35.5 40.484375 35.296875 40.390625 
C 35 40.09375 33.703125 38.578125 33.703125 36.078125 
C 33.703125 31.859375 37.09375 30.15625 39.59375 30.15625 
C 41.703125 30.15625 45.5 31.46875 45.5 36.171875 
C 45.5 44.390625 34 45 28.59375 45 
C 10.796875 45 3.796875 33.375 3.796875 21.84375 
C 3.796875 8.203125 13.296875 -1 28 -1 
C 43.703125 -1 46.796875 10.609375 46.796875 11.3125 
z
" id="CMBX12-99"/>
      <path d="M 53.09375 30.59375 
C 53.09375 40.09375 49 45 38 45 
C 27.90625 45 23 37.890625 21.59375 34.890625 
L 21.5 34.890625 
L 21.5 70 
L 4.203125 69.1875 
L 4.203125 64.890625 
C 10.40625 64.890625 11.09375 64.890625 11.09375 60.875 
L 11.09375 4.296875 
L 4.203125 4.296875 
L 4.203125 0 
C 6.5 0.1875 13.703125 0.1875 16.5 0.1875 
C 19.296875 0.1875 26.59375 0.1875 28.90625 0 
L 28.90625 4.296875 
L 22 4.296875 
L 22 25.59375 
C 22 36.390625 30 41.6875 36.40625 41.6875 
C 40.09375 41.6875 42.203125 39.296875 42.203125 31.6875 
L 42.203125 4.296875 
L 35.296875 4.296875 
L 35.296875 0 
C 37.59375 0.1875 44.796875 0.1875 47.59375 0.1875 
C 50.40625 0.1875 57.703125 0.1875 60 0 
L 60 4.296875 
L 53.09375 4.296875 
z
" id="CMBX12-104"/>
      <path d="M 34.703125 69.1875 
L 34.703125 64.890625 
C 40.90625 64.890625 41.59375 64.890625 41.59375 60.875 
L 41.59375 40.171875 
C 39.40625 42.09375 35 45 28.09375 45 
C 13.90625 45 3.796875 36.140625 3.796875 22 
C 3.796875 7.546875 13.703125 -1 27 -1 
C 32.5 -1 37.203125 0.890625 41.09375 4.21875 
L 41.09375 -1 
L 58.90625 -0.40625 
L 58.90625 3.90625 
C 52.703125 3.90625 52 3.90625 52 7.84375 
L 52 70 
z
M 41.09375 9.765625 
C 36.90625 3.609375 31.796875 2.296875 28.203125 2.296875 
C 15.796875 2.296875 15.796875 15.125 15.796875 21.796875 
C 15.796875 26.546875 15.796875 31.59375 18 35.4375 
C 21.09375 41.09375 27 41.6875 29.296875 41.6875 
C 33.40625 41.6875 37.796875 39.875 41.09375 35.4375 
z
" id="CMBX12-100"/>
      <path d="M 21.703125 70 
L 4.40625 69.1875 
L 4.40625 64.890625 
C 10.59375 64.890625 11.296875 64.890625 11.296875 60.953125 
L 11.296875 4.296875 
L 4.40625 4.296875 
L 4.40625 0 
C 6.703125 0.1875 13.796875 0.1875 16.5 0.1875 
C 19.203125 0.1875 26.296875 0.1875 28.59375 0 
L 28.59375 4.296875 
L 21.703125 4.296875 
z
" id="CMBX12-108"/>
     </defs>
     <g transform="translate(756.796039 397.464149)scale(0.2 -0.2)">
      <use transform="scale(0.996264)" xlink:href="#CMBX12-74"/>
      <use transform="translate(57.88486 0)scale(0.996264)" xlink:href="#CMBX12-111"/>
      <use transform="translate(113.924711 0)scale(0.996264)" xlink:href="#CMBX12-105"/>
      <use transform="translate(145.057961 0)scale(0.996264)" xlink:href="#CMBX12-110"/>
      <use transform="translate(204.211137 0)scale(0.996264)" xlink:href="#CMBX12-116"/>
      <use transform="translate(247.797687 0)scale(0.996264)" xlink:href="#CMBX12-45"/>
      <use transform="translate(285.157588 0)scale(0.996264)" xlink:href="#CMBX12-76"/>
      <use transform="translate(352.497683 0)scale(0.996264)" xlink:href="#CMBX12-111"/>
      <use transform="translate(408.537534 0)scale(0.996264)" xlink:href="#CMBX12-115"/>
      <use transform="translate(452.746871 0)scale(0.996264)" xlink:href="#CMBX12-115"/>
      <use transform="translate(496.956208 0)scale(0.996264)" xlink:href="#CMBX12-58"/>
      <use transform="translate(577.902659 0)scale(0.996264)" xlink:href="#CMMI12-11"/>
      <use transform="translate(640.583682 0)scale(0.996264)" xlink:href="#CMBX12-45"/>
      <use transform="translate(677.943582 0)scale(0.996264)" xlink:href="#CMBX12-83"/>
      <use transform="translate(740.210083 0)scale(0.996264)" xlink:href="#CMBX12-99"/>
      <use transform="translate(786.909958 0)scale(0.996264)" xlink:href="#CMBX12-104"/>
      <use transform="translate(849.176459 0)scale(0.996264)" xlink:href="#CMBX12-101"/>
      <use transform="translate(900.315726 0)scale(0.996264)" xlink:href="#CMBX12-100"/>
      <use transform="translate(962.582226 0)scale(0.996264)" xlink:href="#CMBX12-117"/>
      <use transform="translate(1024.848727 0)scale(0.996264)" xlink:href="#CMBX12-108"/>
      <use transform="translate(1055.981977 0)scale(0.996264)" xlink:href="#CMBX12-105"/>
      <use transform="translate(1087.115228 0)scale(0.996264)" xlink:href="#CMBX12-110"/>
      <use transform="translate(1149.381728 0)scale(0.996264)" xlink:href="#CMBX12-103"/>
     </g>
    </g>
   </g>
  </g>
 </g>
 <defs>
  <clipPath id="pafbe38a1ac">
   <rect height="375.135377" width="929.826016" x="86.054299" y="44.204405"/>
  </clipPath>
 </defs>
</svg>
